<svg width="132" height="22" viewBox="0 0 132 22" fill="none" xmlns="http://www.w3.org/2000/svg">
<g clip-path="url(#clip0_343_37333)">
<path d="M13.7382 21.5864L9.58633 15.3331H5.43449V21.5864H-0.00390625V0H9.55465C14.9948 0 18.631 2.91984 18.631 7.58736C18.631 10.4034 17.2476 12.6914 14.935 14.0325L20.0847 21.5864H13.7382ZM5.43449 10.5072H9.45785C11.5505 10.5072 13.1961 9.36496 13.1961 7.58736C13.1961 5.84144 11.554 4.73088 9.46137 4.73088H5.43449V10.5072Z" fill="black"/>
<path d="M42.5648 11.5227C42.5648 18.2213 38.6382 22 32.3568 22C26.1141 22 22.1875 18.2213 22.1875 11.5227V0H27.6646V11.616C27.6646 14.916 29.4985 16.9805 32.3621 16.9805C35.2256 16.9805 37.0947 14.9195 37.0947 11.616V0H42.5648V11.5227Z" fill="black"/>
<path d="M65.3954 4.79424H58.4117V21.5864H53.0032V4.79424H46.0195V0H65.3954V4.79424Z" fill="black"/>
<path d="M89.3322 11.5227C89.3322 18.2213 85.4056 22 79.1242 22C72.8797 22 68.9531 18.2213 68.9531 11.5227V0H74.425V11.616C74.425 14.916 76.2589 16.9805 79.1242 16.9805C81.9894 16.9805 83.8603 14.9195 83.8603 11.616V0H89.3322V11.5227Z" fill="black"/>
<path d="M111.544 15.5866C111.544 19.1752 108.615 21.5864 103.691 21.5864H92.6836V0H103.046C107.809 0 110.578 2.22288 110.578 5.7464C110.578 7.74576 109.451 9.81024 107.552 10.4755C110.224 11.0475 111.544 13.2704 111.544 15.5866ZM98.122 4.38064V8.888H102.209C104.27 8.888 105.396 7.87248 105.396 6.4768C105.396 5.11104 104.301 4.38064 102.209 4.38064H98.122ZM106.232 14.8896C106.232 13.5555 105.106 12.7934 103.078 12.7934H98.122V17.1424H102.981C105.243 17.1424 106.232 16.1586 106.232 14.8896Z" fill="black"/>
<path d="M120.54 4.70482V8.64194H130.26V13.2179H120.54V16.9597H131.644V21.6255H115.1V0.0390625H131.644V4.70482H120.54Z" fill="black"/>
</g>
<defs>
<clipPath id="clip0_343_37333">
<rect width="131.648" height="22" fill="white"/>
</clipPath>
</defs>
</svg>
