<svg width="44" height="44" viewBox="0 0 44 44" fill="none" xmlns="http://www.w3.org/2000/svg">
<path d="M22.2474 43.048V28.7533L17.4178 24.0693L13.6582 30.9009L22.2474 43.048Z" fill="#FEAB23"/>
<path d="M22.2441 43.048V28.7533L27.0738 24.0693L30.8334 30.9009L22.2441 43.048Z" fill="#007AFF"/>
<path d="M22.2474 14.9642L17.4178 19.6578L13.6582 12.8166L22.2474 0.679199V14.9642Z" fill="#FF00FF"/>
<path d="M22.2441 14.9642L27.0738 19.6578L30.8334 12.8166L22.2441 0.679199V14.9642Z" fill="#FEAB23"/>
<path d="M15.2861 21.8638L20.0177 17.073L13.1166 13.3608L0.845703 21.8638H15.2861Z" fill="#FEAB23"/>
<path d="M15.2861 21.854L20.0177 26.6448L13.1166 30.3667L0.845703 21.854H15.2861Z" fill="#007AFF"/>
<path d="M29.2082 21.8638L24.4766 17.073L31.3777 13.3608L43.6486 21.8638H29.2082Z" fill="#007AFF"/>
<path d="M29.2082 21.854L24.4766 26.6448L31.3777 30.3667L43.6486 21.854H29.2082Z" fill="#FEAB23"/>
</svg>
