<svg width="95" height="51" viewBox="0 0 95 51" fill="none" xmlns="http://www.w3.org/2000/svg">
<path d="M55.9935 25.8007C55.9935 30.5165 52.132 34.3213 47.3864 34.3213C42.6227 34.3213 38.7793 30.4986 38.7793 25.8007C38.7793 21.1027 42.6408 17.28 47.3864 17.28C52.15 17.28 55.9935 21.0848 55.9935 25.8007Z" fill="#FF00FF"/>
<path d="M64.9311 24.1567L50.9102 37.7505L69.3521 48.2896L94.2723 24.1567H64.9311Z" fill="#007AFF"/>
<path d="M64.9311 24.1751L50.9102 10.5993L69.3521 0.0422363L94.2723 24.1751H64.9311Z" fill="#FEAB23"/>
<path d="M67.655 18.9948C62.1332 13.9395 54.9513 11.1529 47.3905 11.1529C39.8296 11.1529 32.6297 13.9395 27.1259 18.9948L21.7305 13.225C28.7139 6.83008 37.8266 3.29321 47.3905 3.29321C56.9543 3.29321 66.0671 6.81222 73.0505 13.225L67.655 18.9948Z" fill="#FF00FF"/>
<path d="M29.7958 26.1392L43.8348 12.5455L25.3928 2.00635L0.472656 26.1392H29.7958Z" fill="#007AFF"/>
<path d="M29.7958 26.1226L43.8348 39.6984L25.3928 50.2554L0.472656 26.1226H29.7958Z" fill="#FEAB23"/>
<path d="M47.3905 47.004C37.8266 47.004 28.7139 43.485 21.7305 37.0722L27.1259 31.3025C32.6297 36.3577 39.8296 39.1443 47.3905 39.1443C54.9513 39.1443 62.1513 36.3577 67.655 31.3025L73.0505 37.0722C66.0671 43.4672 56.9543 47.004 47.3905 47.004Z" fill="#FF00FF"/>
</svg>
