<svg width="35" height="35" viewBox="0 0 35 35" fill="none" xmlns="http://www.w3.org/2000/svg">
<path d="M22.0586 13.1963L22.0684 21.6313L31.7276 16.9376L34.9473 0.437012L22.0586 13.1963Z" fill="#FEAB23"/>
<path d="M22.0586 13.206L13.4297 13.0894L18.181 3.52724L34.9479 0.437012L22.0586 13.206Z" fill="#007AFF"/>
<path d="M13.2325 13.1963L13.2227 21.6313L3.56349 16.9376L0.34375 0.437012L13.2325 13.1963Z" fill="#007AFF"/>
<path d="M13.2331 13.206L21.862 13.0894L17.1107 3.52724L0.34375 0.437012L13.2331 13.206Z" fill="#FEAB23"/>
<path d="M13.2325 21.7186L13.2227 13.2837L3.56349 17.9773L0.34375 34.478L13.2325 21.7186Z" fill="#FEAB23"/>
<path d="M13.2331 21.708L21.862 21.8246L17.1107 31.3868L0.34375 34.477L13.2331 21.708Z" fill="#007AFF"/>
<path d="M22.0586 21.7186L22.0684 13.2837L31.7276 17.9773L34.9473 34.478L22.0586 21.7186Z" fill="#007AFF"/>
<path d="M22.0586 21.708L13.4297 21.8246L18.181 31.3868L34.9479 34.477L22.0586 21.708Z" fill="#FEAB23"/>
<path d="M28.5152 17.248H17.6191V27.6557H28.5152V17.248Z" fill="#FF00FF"/>
</svg>
