<svg width="68" height="68" viewBox="0 0 68 68" fill="none" xmlns="http://www.w3.org/2000/svg">
<path d="M42.2856 22.5786L21.6465 27.9062L26.5669 46.6841L47.206 41.3565L42.2856 22.5786Z" fill="#FF00FF"/>
<path d="M0.980469 64.9543L31.6718 67.4237L28.4374 50.4023L17.8278 49.9084L0.980469 64.9543Z" fill="#007AFF"/>
<path d="M0.980469 64.9547L1.72687 34.3867L18.4498 39.3785L17.8278 49.9088L0.980469 64.9547Z" fill="#FEAB23"/>
<path d="M67.2129 64.9541L36.5215 67.4235L39.7737 50.4021L50.3832 49.9082L67.2129 64.9541Z" fill="#007AFF"/>
<path d="M67.2114 64.9544L66.4827 34.3865L49.7598 39.3782L50.3818 49.9086L67.2114 64.9544Z" fill="#FEAB23"/>
<path d="M0.980469 3.3432L31.6718 0.873779L28.4374 17.9128L17.8278 18.389L0.980469 3.3432Z" fill="#007AFF"/>
<path d="M0.980469 3.34277L1.72687 33.9107L18.4498 28.9189L17.8278 18.3886L0.980469 3.34277Z" fill="#FEAB23"/>
<path d="M67.2168 3.3432L36.5254 0.873779L39.7776 17.9128L50.3872 18.389L67.2168 3.3432Z" fill="#007AFF"/>
<path d="M67.2153 3.34277L66.4866 33.9107L49.7637 28.9189L50.3857 18.3886L67.2153 3.34277Z" fill="#FEAB23"/>
</svg>
