<svg width="98" height="64" viewBox="0 0 98 64" fill="none" xmlns="http://www.w3.org/2000/svg">
<path d="M51.3359 36.8013L29.3672 52.0502L58.2628 63.8905L97.3072 36.8013H51.3359Z" fill="#007AFF"/>
<path d="M51.3359 36.8208L29.3672 21.552L58.2628 9.71167L97.3072 36.8208H51.3359Z" fill="#FEAB23"/>
<path d="M13.4813 36.8013L0.714844 45.6516L17.4884 52.5286L40.1619 36.8013H13.4813Z" fill="#007AFF"/>
<path d="M13.4813 36.7998L0.714844 27.9495L17.4884 21.0725L40.1619 36.7998H13.4813Z" fill="#FEAB23"/>
<path d="M95.4343 17.0864C95.4343 26.0165 88.1251 33.2722 79.0843 33.2722C70.0637 33.2722 62.7344 26.0364 62.7344 17.0864C62.7344 8.15632 70.0435 0.900635 79.0843 0.900635C88.1251 0.920568 95.4343 8.15632 95.4343 17.0864Z" fill="#FF00FF"/>
</svg>
