<svg width="67" height="67" viewBox="0 0 67 67" fill="none" xmlns="http://www.w3.org/2000/svg">
<path d="M41.4399 21.8252L20.8008 27.1528L25.7212 45.9307L46.3603 40.6031L41.4399 21.8252Z" fill="#FF00FF"/>
<path d="M0.134766 64.2009L30.8261 66.6703L27.5917 49.6489L16.9821 49.155L0.134766 64.2009Z" fill="#007AFF"/>
<path d="M0.134766 64.2012L0.881168 33.6333L17.6041 38.6251L16.9821 49.1554L0.134766 64.2012Z" fill="#FEAB23"/>
<path d="M66.3671 64.2006L35.6758 66.6701L38.928 49.6487L49.5375 49.1548L66.3671 64.2006Z" fill="#007AFF"/>
<path d="M66.3657 64.201L65.637 33.6331L48.9141 38.6248L49.5361 49.1551L66.3657 64.201Z" fill="#FEAB23"/>
<path d="M0.134766 2.58978L30.8261 0.120361L27.5917 17.1594L16.9821 17.6356L0.134766 2.58978Z" fill="#007AFF"/>
<path d="M0.134766 2.58936L0.881168 33.1573L17.6041 28.1655L16.9821 17.6352L0.134766 2.58936Z" fill="#FEAB23"/>
<path d="M66.3711 2.58978L35.6797 0.120361L38.9319 17.1594L49.5414 17.6356L66.3711 2.58978Z" fill="#007AFF"/>
<path d="M66.3696 2.58936L65.6409 33.1573L48.918 28.1655L49.54 17.6352L66.3696 2.58936Z" fill="#FEAB23"/>
</svg>
