<svg width="73" height="71" viewBox="0 0 73 71" fill="none" xmlns="http://www.w3.org/2000/svg">
<path d="M35.7871 28.765L52.6226 9.1642L41.3989 0.769531L35.7871 7.77172V28.765Z" fill="#007AFF"/>
<path d="M35.7847 28.765L18.9492 9.1642L30.1729 0.769531L35.7847 7.77172V28.765Z" fill="#FEAB23"/>
<path d="M35.7847 42.0259L18.9492 61.6134L30.1729 70.0214L35.7847 63.0192V42.0259Z" fill="#007AFF"/>
<path d="M35.7871 42.0259L52.6226 61.6134L41.3989 70.0214L35.7871 63.0192V42.0259Z" fill="#FEAB23"/>
<path d="M43.8047 35.3953L63.5397 52.105L72.0109 40.9652L64.956 35.3953H43.8047Z" fill="#007AFF"/>
<path d="M43.8047 35.3951L63.5397 18.6853L72.0109 29.8251L64.956 35.3951H43.8047Z" fill="#FEAB23"/>
<path d="M29.1027 35.3951L9.35433 18.6853L0.896484 29.8251L7.95137 35.3951H29.1027Z" fill="#007AFF"/>
<path d="M29.1027 35.3953L9.35433 52.105L0.896484 40.9652L7.95137 35.3953H29.1027Z" fill="#FEAB23"/>
<path d="M35.7858 39.3748C33.5812 39.3748 31.7773 37.5844 31.7773 35.3962C31.7773 33.2081 33.5812 31.4177 35.7858 31.4177C37.9905 31.4177 39.7943 33.2081 39.7943 35.3962C39.7943 37.5844 37.9905 39.3748 35.7858 39.3748Z" fill="#FF00FF"/>
<path d="M35.7843 34.0691C36.5192 34.0691 37.1204 34.6659 37.1204 35.3953C37.1204 36.1247 36.5192 36.7214 35.7843 36.7214C35.0494 36.7214 34.4481 36.1247 34.4481 35.3953C34.4481 34.6659 35.0494 34.0691 35.7843 34.0691ZM35.7843 28.7644C32.0965 28.7644 29.1035 31.735 29.1035 35.3953C29.1035 39.0555 32.0965 42.0261 35.7843 42.0261C39.4721 42.0261 42.465 39.0555 42.465 35.3953C42.465 31.735 39.4721 28.7644 35.7843 28.7644Z" fill="#FF00FF"/>
</svg>
