<svg width="56" height="77" viewBox="0 0 56 77" fill="none" xmlns="http://www.w3.org/2000/svg">
<path d="M8.14609 15.6313L23.7489 40.113L16.4517 40.6876L0.863281 16.206L8.14609 15.6313Z" fill="#FF00FF"/>
<path d="M38.1463 15.4359L49.9477 11.3091L49.1124 25.2279L28.1408 32.5392L38.1463 15.4359Z" fill="#007AFF"/>
<path d="M38.1614 15.4436L35.9248 3.18876L24.1729 10.7867L28.1562 32.5471L38.1614 15.4436Z" fill="#FEAB23"/>
<path d="M48.1254 61.1597L32.5226 36.6781L39.8198 36.1034L55.4082 60.585L48.1254 61.1597Z" fill="#FF00FF"/>
<path d="M18.1252 61.3554L6.32382 65.4822L7.15906 51.5634L28.1307 44.252L18.1252 61.3554Z" fill="#007AFF"/>
<path d="M18.1077 61.3475L20.3444 73.6021L32.0965 66.0041L28.1133 44.2441L18.1077 61.3475Z" fill="#FEAB23"/>
</svg>
