<svg width="50" height="50" viewBox="0 0 50 50" fill="none" xmlns="http://www.w3.org/2000/svg">
<style>
 	path:nth-child(6) {
			
      fill: #240939;
    }
	path:nth-child(7) {
			
       fill: #240939;
    }
		path:nth-child(13) {
			
      fill: #240939;
    }
		path:nth-child(3) {
			
       fill: #240939;
    }
			path:nth-child(15) {
			
       fill: #240939;
    }
			path:nth-child(10) {
			
      fill: #240939;
    }
		path:nth-child(12) {
			
       fill: #240939;
    }
    @media (prefers-color-scheme: dark) {
		
		path:nth-child(6) {
			
      fill: white;
    }
	path:nth-child(7) {
			
      fill: white;
    }
		path:nth-child(13) {
			
      fill: white;
    }
		path:nth-child(3) {
			
      fill: white;
    }
			path:nth-child(15) {
			
      fill: white;
    }
			path:nth-child(10) {
			
      fill: white;
    }
		path:nth-child(12) {
			
      fill: white;
    }
    }
  </style>
<path d="M32.9003 19.8107L27.9312 20.0537L25.016 15.9017L22.0788 20.0537L17.1097 19.8107L18.4348 24.7356L15.1662 28.5784L19.7378 30.566L20.6212 35.6014L25.016 33.172L29.3888 35.6014L30.2722 30.566L34.8438 28.5784L31.5752 24.7356L32.9003 19.8107Z" fill="#007AFF"/>
<path d="M12.5601 16.0341L17.9046 16.277L15.144 10.4025L5.02914 9.91661L12.5601 16.0341Z" fill="white"/>
<path d="M13.9735 21.224L12.5601 16.0341L5.02914 9.91661L7.67932 19.7664L13.9735 21.224Z" fill="#007AFF"/>
<path d="M21.9463 14.2231L25.0161 9.8724V0.0446587L19.1636 8.32646L21.9463 14.2231Z" fill="#FF00FF"/>
<path d="M25.016 9.8724L28.1521 14.3114L30.9127 8.4148L25.016 0.0446587V9.8724Z" fill="white"/>
<path d="M9.49024 29.8375L13.0017 25.7297L6.7738 24.2721L0.0820885 32.0901L9.49024 29.8375Z" />
<path d="M14.371 31.9795L9.49024 29.8373L0.0820885 32.0899L9.31355 36.1314L14.371 31.9795Z" fill="#007AFF"/>
<path d="M32.2157 16.277L37.4498 16.0341L44.9807 9.91661L34.9763 10.4025L32.2157 16.277Z" fill="#FF00FF"/>
<path d="M37.45 16.0341L36.0365 21.2682L42.3086 19.7885L44.9809 9.91661L37.45 16.0341Z" fill="white"/>
<path d="M22.8075 38.3179L18.1035 40.9239L13.9074 49.8683L22.8075 44.9655V38.3179Z" fill="#007AFF"/>
<path d="M18.1033 40.9237L17.1757 35.6013L12.1404 39.7091L13.9072 49.8681L18.1033 40.9237Z" fill="white"/>
<path d="M40.5197 29.8373L35.7052 31.9574L40.7626 36.0873L49.9278 32.0899L40.5197 29.8373Z" fill="white"/>
<path d="M37.0522 25.7735L40.5195 29.8371L49.9276 32.0898L43.2801 24.3159L37.0522 25.7735Z" fill="#FF00FF"/>
<path d="M31.9063 40.9236L27.3127 38.3617V45.0093L36.1024 49.8679L31.9063 40.9236Z" fill="white"/>
<path d="M32.8556 35.5354L31.906 40.924L36.1021 49.8684L37.8909 39.6431L32.8556 35.5354Z" fill="#007AFF"/>
</svg>
