<svg width="20" height="19" viewBox="0 0 20 19" fill="none" xmlns="http://www.w3.org/2000/svg">
<path fill-rule="evenodd" clip-rule="evenodd" d="M6.16704 0.0558C7.15875 0.0101455 7.47495 7.11675e-08 10.0012 9.77087e-08C12.5274 1.2425e-07 12.8436 0.010991 13.8345 0.0558001C14.8253 0.100609 15.5017 0.258709 16.0935 0.487827C16.7132 0.722018 17.2755 1.0881 17.7405 1.56155C18.2139 2.02571 18.5792 2.58709 18.8125 3.20765C19.0425 3.79947 19.1997 4.47584 19.2454 5.46502C19.291 6.45843 19.3012 6.77463 19.3012 9.3C19.3012 11.8262 19.2902 12.1424 19.2454 13.1341C19.2006 14.1233 19.0425 14.7997 18.8125 15.3915C18.5791 16.0121 18.2133 16.5745 17.7405 17.0393C17.2755 17.5127 16.7132 17.878 16.0935 18.1113C15.5017 18.3413 14.8253 18.4985 13.8362 18.5442C12.8436 18.5899 12.5274 18.6 10.0012 18.6C7.47495 18.6 7.15875 18.589 6.16704 18.5442C5.17785 18.4994 4.50149 18.3413 3.90967 18.1113C3.28904 17.878 2.72673 17.5121 2.26188 17.0393C1.78875 16.5749 1.42261 16.0128 1.189 15.3923C0.959881 14.8005 0.802626 14.1242 0.756972 13.135C0.711317 12.1416 0.701172 11.8254 0.701172 9.3C0.701172 6.77378 0.712163 6.45758 0.756972 5.46671C0.801781 4.47584 0.959881 3.79947 1.189 3.20765C1.42296 2.58716 1.78937 2.02513 2.26273 1.56071C2.72692 1.08768 3.28866 0.721548 3.90883 0.487827C4.50064 0.258709 5.17701 0.101455 6.16619 0.0558L6.16704 0.0558ZM13.7592 1.7298C12.7785 1.68499 12.4843 1.67569 10.0012 1.67569C7.51807 1.67569 7.22385 1.68499 6.24313 1.7298C5.33595 1.77123 4.8439 1.92256 4.51586 2.05023C4.08214 2.21932 3.77186 2.41969 3.44636 2.74519C3.13781 3.04537 2.90035 3.4108 2.7514 3.81469C2.62374 4.14273 2.4724 4.63478 2.43097 5.54195C2.38616 6.52268 2.37686 6.8169 2.37686 9.3C2.37686 11.7831 2.38616 12.0773 2.43097 13.058C2.4724 13.9652 2.62374 14.4573 2.7514 14.7853C2.9002 15.1886 3.13777 15.5547 3.44636 15.8548C3.7465 16.1634 4.11258 16.401 4.51586 16.5498C4.8439 16.6774 5.33595 16.8288 6.24313 16.8702C7.22385 16.915 7.51723 16.9243 10.0012 16.9243C12.4851 16.9243 12.7785 16.915 13.7592 16.8702C14.6664 16.8288 15.1584 16.6774 15.4865 16.5498C15.9202 16.3807 16.2305 16.1803 16.556 15.8548C16.8646 15.5547 17.1021 15.1886 17.2509 14.7853C17.3786 14.4573 17.5299 13.9652 17.5714 13.058C17.6162 12.0773 17.6255 11.7831 17.6255 9.3C17.6255 6.8169 17.6162 6.52268 17.5714 5.54195C17.5299 4.63478 17.3786 4.14273 17.2509 3.81469C17.0819 3.38097 16.8815 3.07069 16.556 2.74519C16.2558 2.43666 15.8904 2.19921 15.4865 2.05023C15.1584 1.92256 14.6664 1.77123 13.7592 1.7298ZM8.81331 12.1669C9.4767 12.4431 10.2154 12.4804 10.9032 12.2724C11.591 12.0644 12.1853 11.6241 12.5846 11.0266C12.9838 10.4292 13.1632 9.71163 13.0922 8.99657C13.0212 8.28151 12.7041 7.6133 12.1951 7.10605C11.8707 6.78179 11.4784 6.53351 11.0464 6.37908C10.6145 6.22464 10.1537 6.1679 9.69723 6.21292C9.24074 6.25795 8.79991 6.40362 8.40648 6.63946C8.01305 6.87531 7.6768 7.19545 7.42195 7.57684C7.16709 7.95823 6.99997 8.39138 6.93261 8.84511C6.86525 9.29884 6.89933 9.76187 7.03239 10.2008C7.16546 10.6398 7.3942 11.0438 7.70214 11.3838C8.01009 11.7238 8.38959 11.9912 8.81331 12.1669ZM6.62104 5.91987C7.06493 5.47599 7.5919 5.12388 8.17186 4.88365C8.75182 4.64342 9.37342 4.51978 10.0012 4.51978C10.6289 4.51978 11.2505 4.64342 11.8305 4.88365C12.4104 5.12388 12.9374 5.47599 13.3813 5.91987C13.8252 6.36376 14.1773 6.89073 14.4175 7.47069C14.6578 8.05065 14.7814 8.67225 14.7814 9.3C14.7814 9.92775 14.6578 10.5493 14.4175 11.1293C14.1773 11.7093 13.8252 12.2362 13.3813 12.6801C12.4848 13.5766 11.269 14.0802 10.0012 14.0802C8.73338 14.0802 7.51751 13.5766 6.62104 12.6801C5.72458 11.7837 5.22095 10.5678 5.22095 9.3C5.22095 8.03221 5.72458 6.81634 6.62104 5.91987ZM15.8416 5.23167C15.9516 5.12791 16.0396 5.00313 16.1005 4.86472C16.1614 4.72632 16.194 4.5771 16.1962 4.4259C16.1984 4.2747 16.1702 4.12459 16.1134 3.98447C16.0565 3.84434 15.9721 3.71705 15.8652 3.61012C15.7583 3.5032 15.631 3.41881 15.4909 3.36197C15.3507 3.30512 15.2006 3.27696 15.0494 3.27917C14.8982 3.28137 14.749 3.31389 14.6106 3.3748C14.4722 3.43571 14.3474 3.52377 14.2437 3.63376C14.0419 3.84769 13.9314 4.13184 13.9357 4.4259C13.94 4.71995 14.0587 5.00076 14.2666 5.20871C14.4746 5.41666 14.7554 5.53538 15.0494 5.53967C15.3435 5.54396 15.6276 5.43347 15.8416 5.23167Z" fill="#303669"/>
</svg>
