<svg width="23" height="23" viewBox="0 0 23 23" fill="none" xmlns="http://www.w3.org/2000/svg">
<path fill-rule="evenodd" clip-rule="evenodd" d="M8.87873 7.15027C8.67898 6.70813 8.46868 6.69927 8.27864 6.69154C8.1232 6.6849 7.94526 6.68531 7.76759 6.68531C7.58979 6.68531 7.30086 6.75183 7.05652 7.01751C6.81204 7.28318 6.12305 7.92544 6.12305 9.23166C6.12305 10.538 7.07874 11.8003 7.21196 11.9776C7.34531 12.1546 9.05682 14.9208 11.7674 15.9851C14.02 16.8695 14.4785 16.6935 14.9674 16.6493C15.4564 16.605 16.5451 16.0072 16.7674 15.3872C16.9897 14.7673 16.9897 14.236 16.923 14.1249C16.8563 14.0143 16.6785 13.9479 16.4118 13.8151C16.1451 13.6824 14.8341 13.04 14.5896 12.9515C14.3451 12.8629 14.1673 12.8187 13.9895 13.0845C13.8117 13.35 13.3009 13.9479 13.1453 14.1249C12.9898 14.3024 12.8342 14.3245 12.5675 14.1917C12.3008 14.0585 11.4419 13.7785 10.423 12.874C9.63023 12.1703 9.09501 11.3013 8.93943 11.0355C8.78385 10.7699 8.92275 10.6261 9.05653 10.4937C9.17627 10.3748 9.32324 10.1838 9.45659 10.0288C9.58966 9.87374 9.63411 9.7631 9.72301 9.58608C9.81191 9.40877 9.76746 9.25375 9.70079 9.12099C9.63411 8.98822 9.11585 7.67525 8.87873 7.15027Z" fill="#3D8D52"/>
<path d="M19.0952 4.08417C17.0801 2.0765 14.4005 0.970251 11.5456 0.968994C5.66269 0.968994 0.875164 5.73393 0.872799 11.5907C0.872105 13.4629 1.36343 15.2904 2.29731 16.9013L0.783203 22.4055L6.44099 20.9285C7.99984 21.7749 9.75496 22.2209 11.5411 22.2216H11.5456H11.5456C17.4276 22.2216 22.2158 17.4558 22.2184 11.5993C22.2193 8.76086 21.1101 6.09199 19.0952 4.08417V4.08417ZM11.5456 20.4276H11.5422C9.95014 20.4268 8.38893 20.0012 7.02719 19.1967L6.70311 19.0055L3.34567 19.8819L4.24205 16.624L4.03091 16.29C3.14286 14.8842 2.67405 13.2596 2.67474 11.5914C2.67668 6.72346 6.65588 2.76315 11.549 2.76315C13.9185 2.76412 16.1455 3.68366 17.8205 5.35238C19.4953 7.02109 20.417 9.23939 20.4163 11.5986C20.4142 16.4667 16.4348 20.4276 11.5456 20.4276Z" fill="#3D8D52"/>
</svg>
