<svg width="131" height="19" viewBox="0 0 131 19" fill="none" xmlns="http://www.w3.org/2000/svg">
<g clip-path="url(#clip0_518_4124)">
<path d="M5.99534 3.41406C8.78612 3.41406 11.0343 5.44901 11.0343 8.23979C11.0343 10.9918 8.74736 13.1043 6.131 13.1043C4.91004 13.1043 3.72783 12.7554 2.83633 11.7476H2.73943V18.7827H0.878906V9.01501C0.878906 5.60405 2.83633 3.41406 5.99534 3.41406ZM5.95658 11.4763C7.79772 11.4763 9.05745 10.0228 9.05745 8.25917C9.05745 6.51493 7.8171 5.0614 5.95658 5.0614C4.07668 5.0614 2.79757 6.49555 2.79757 8.23979C2.79757 10.0034 4.09606 11.4763 5.95658 11.4763Z" fill="#8C64D8"/>
<path d="M12.7598 8.25917C12.7598 5.46839 15.1048 3.41406 17.8374 3.41406C20.5895 3.41406 22.9151 5.46839 22.9151 8.25917C22.9151 11.05 20.5701 13.1043 17.8374 13.1043C15.0854 13.1043 12.7598 11.05 12.7598 8.25917ZM17.8374 11.4763C19.698 11.4763 20.9577 10.0422 20.9577 8.25917C20.9577 6.47617 19.698 5.04202 17.8374 5.04202C15.9769 5.04202 14.7172 6.45679 14.7172 8.25917C14.7172 10.0422 15.9769 11.4763 17.8374 11.4763Z" fill="#8C64D8"/>
<path d="M29.794 13.1043C26.8676 13.1043 24.6582 11.0693 24.6582 8.25917C24.6582 5.46839 26.8288 3.41406 29.7359 3.41406C31.9646 3.41406 34.0577 4.61565 34.581 6.92192H32.6623C32.1972 5.68157 31.0925 5.04202 29.7746 5.04202C27.8172 5.04202 26.6156 6.49555 26.6156 8.27855C26.6156 10.0809 27.856 11.4569 29.8134 11.4569C31.0925 11.4569 32.236 10.8755 32.7011 9.53828H34.6197C33.9221 11.9802 31.9452 13.1043 29.794 13.1043Z" fill="#8C64D8"/>
<path d="M41.5009 11.7671L38.4388 5.39091H38.3807V12.9105H36.5977V3.60791H39.4466L42.4699 9.96469H42.5281L45.5514 3.60791H48.4003V12.8911H46.6173V5.37153H46.5592L43.5165 11.7671H41.5009Z" fill="#8C64D8"/>
<path d="M50.4141 8.25917C50.4141 5.46839 52.7591 3.41406 55.4917 3.41406C58.2438 3.41406 60.5694 5.46839 60.5694 8.25917C60.5694 11.05 58.2244 13.1043 55.4917 13.1043C52.7397 13.1043 50.4141 11.05 50.4141 8.25917ZM55.4917 11.4763C57.3523 11.4763 58.612 10.0422 58.612 8.25917C58.612 6.47617 57.3523 5.04202 55.4917 5.04202C53.6312 5.04202 52.3715 6.45679 52.3715 8.25917C52.3715 10.0422 53.6312 11.4763 55.4917 11.4763Z" fill="#8C64D8"/>
<path d="M61.5195 12.9877V11.0691H61.5583C61.9071 11.0691 62.3529 10.914 62.6242 10.6039C62.9731 10.2163 63.1475 9.53802 63.3219 8.51086L63.5932 7.01856C63.9033 5.31309 64.5041 3.56885 67.0817 3.56885H70.7059V12.8908H68.8453V5.29371H67.3918C65.9383 5.29371 65.6476 5.7007 65.2987 7.6775L65.0662 9.07289C64.853 10.352 64.5429 11.4567 63.8646 12.1544C63.3607 12.6777 62.663 12.9877 61.7133 12.9877H61.5195Z" fill="#8C64D8"/>
<path d="M72.7617 8.25917C72.7617 5.46839 75.1068 3.41406 77.8394 3.41406C80.5914 3.41406 82.9171 5.46839 82.9171 8.25917C82.9171 11.05 80.572 13.1043 77.8394 13.1043C75.1068 13.1043 72.7617 11.05 72.7617 8.25917ZM77.8394 11.4763C79.6999 11.4763 80.9596 10.0422 80.9596 8.25917C80.9596 6.47617 79.6999 5.04202 77.8394 5.04202C75.9789 5.04202 74.7191 6.45679 74.7191 8.25917C74.7191 10.0422 75.9983 11.4763 77.8394 11.4763Z" fill="#8C64D8"/>
<path d="M85.0877 15.1585H83.3047V11.1855H84.5063C85.0295 10.5847 85.3203 9.69322 85.5722 8.62729L85.9792 6.90243C86.3668 5.23572 87.0839 3.58838 89.3708 3.58838H92.9755V11.1855H94.3128V15.1585H92.5298V12.9104H85.0877V15.1585ZM91.1344 11.2243V5.27448H89.3901C88.2661 5.27448 87.8785 6.18536 87.6459 7.135L87.2389 8.918C87.0064 9.9064 86.6769 10.7398 86.328 11.0886V11.2243H91.1344Z" fill="#8C64D8"/>
<path d="M100.784 13.1043C97.8192 13.1043 95.668 11.0694 95.668 8.25919C95.668 5.46841 97.8386 3.41408 100.707 3.41408C102.936 3.41408 105.61 4.86761 105.61 8.41423V8.80184H97.5091C97.7029 10.3523 98.9239 11.4763 100.746 11.4763C101.831 11.4763 103.129 11.0694 103.498 10.1391H105.416C104.854 12.174 102.684 13.1043 100.784 13.1043ZM97.5672 0.216309H99.4859V2.13497H97.5672V0.216309ZM103.691 7.36769C103.401 5.95292 102.315 5.02266 100.688 5.02266C99.0595 5.02266 97.9549 6.03044 97.606 7.36769H103.691ZM101.753 0.216309H103.672V2.13497H101.753V0.216309Z" fill="#8C64D8"/>
<path d="M114.391 3.60791V7.29019H115.941L118.131 3.60791H120.166L117.453 8.04603L120.399 12.9105H118.325L115.98 8.99567H114.41V12.9105H112.666V8.99567H111.096L108.751 12.9105H106.658L109.604 8.04603L106.891 3.60791H108.926L111.116 7.29019H112.666V3.60791H114.391Z" fill="#8C64D8"/>
<path d="M121.717 8.72435L121.697 3.60791H123.558L123.577 6.24365H123.635C124.411 5.29401 125.418 4.82888 126.601 4.82888C128.887 4.82888 130.729 6.53436 130.729 8.89877C130.729 11.3019 128.849 13.0849 126.252 13.0849C123.635 13.1043 121.717 11.2632 121.717 8.72435ZM126.194 11.4764C127.666 11.4764 128.732 10.4492 128.732 8.99567C128.732 7.54214 127.666 6.49559 126.194 6.49559C124.74 6.49559 123.655 7.56152 123.655 8.99567C123.655 10.4298 124.74 11.4764 126.194 11.4764Z" fill="#8C64D8"/>
</g>
<defs>
<clipPath id="clip0_518_4124">
<rect width="129.83" height="18.5665" fill="white" transform="translate(0.878906 0.216797)"/>
</clipPath>
</defs>
</svg>
