<svg width="89" height="51" viewBox="0 0 89 51" fill="none" xmlns="http://www.w3.org/2000/svg">
<path d="M32.9854 3.13749C33.2221 1.8946 33.8731 1.10547 35.2147 1.10547C37.0691 1.10547 37.8188 2.62455 37.8188 4.83413C37.8188 7.04371 37.0691 8.56279 35.2147 8.56279C33.7745 8.56279 33.1235 7.65528 32.8867 6.33348H33.9718C34.1691 7.26072 34.5834 7.51719 35.2541 7.51719C36.2405 7.51719 36.6548 6.66887 36.6943 5.20897H34.4453V4.18309H36.6943C36.5956 2.88102 36.1814 2.15107 35.2541 2.15107C34.5636 2.15107 34.248 2.42727 34.0507 3.13749H32.9854Z" fill="#1D1D1B"/>
<path d="M38.6873 7.35964C39.4173 7.35964 39.6737 7.08344 39.6737 4.43984V1.22412H43.7772V8.42497H42.6922V2.25H40.7588V4.65686C40.7588 7.93176 40.088 8.4447 38.6873 8.4447H38.5098V7.37937H38.6873V7.35964Z" fill="#1D1D1B"/>
<path d="M47.5041 7.41883C48.6089 7.41883 49.0034 6.9848 49.0034 6.23512C49.0034 5.48545 48.6089 5.05142 47.5041 5.05142H46.5966V7.43855H47.5041V7.41883ZM47.6619 4.04528C49.2402 4.04528 50.1082 4.85414 50.1082 6.23512C50.1082 7.59638 49.2402 8.4447 47.6619 8.4447H45.5312V1.22412H46.6163V4.02555H47.6619V4.04528Z" fill="#1D1D1B"/>
<path d="M52.4776 2.25V8.42497H51.3926V1.22412H55.2988V2.25H52.4776Z" fill="#1D1D1B"/>
<path d="M57.0517 5.28816H58.7089L58.1565 2.34864H57.6041L57.0517 5.28816ZM58.8864 6.29431H56.8544L56.4599 8.42497H55.3945L56.8347 1.22412H58.9259L60.3661 8.42497H59.3007L58.8864 6.29431Z" fill="#1D1D1B"/>
<path d="M63.3253 3.90718L64.3906 1.22412H65.5151L62.6742 8.42497H61.5497L62.5559 5.88001L60.4844 1.22412H61.6286L62.8518 3.90718H63.3253Z" fill="#1D1D1B"/>
<path d="M67.5694 2.25V8.42497H66.4844V1.22412H70.4103V2.25H67.5694Z" fill="#1D1D1B"/>
<path d="M74.9463 4.83413C74.9463 3.19668 74.6306 2.15107 73.5061 2.15107C72.3816 2.15107 72.0659 3.19668 72.0659 4.83413C72.0659 6.47158 72.3816 7.51719 73.5061 7.51719C74.6306 7.51719 74.9463 6.47158 74.9463 4.83413ZM76.0313 4.83413C76.0313 7.00425 75.3408 8.56279 73.4864 8.56279C71.6319 8.56279 70.9414 7.00425 70.9414 4.83413C70.9414 2.66401 71.6319 1.10547 73.4864 1.10547C75.3408 1.10547 76.0313 2.66401 76.0313 4.83413Z" fill="#1D1D1B"/>
<path d="M76.9002 7.35964C77.6302 7.35964 77.8866 7.08344 77.8866 4.43984V1.22412H81.9901V8.42497H80.9051V2.25H78.9717V4.65686C78.9717 7.93176 78.3009 8.4447 76.9002 8.4447H76.7227V7.37937H76.9002V7.35964Z" fill="#1D1D1B"/>
<path d="M85.7387 7.41883C86.8434 7.41883 87.238 6.9848 87.238 6.23512C87.238 5.48545 86.8434 5.05142 85.7387 5.05142H84.8312V7.43855H85.7387V7.41883ZM85.8768 4.04528C87.455 4.04528 88.3231 4.85414 88.3231 6.23512C88.3231 7.59638 87.455 8.4447 85.8768 8.4447H83.7461V1.22412H84.8312V4.02555H85.8768V4.04528Z" fill="#1D1D1B"/>
<path d="M40.6007 29.061H32.6699V28.1929H36.2013V22.9255H33.2223V22.0771H40.0483V22.9255H37.1088V28.1929H40.6007V29.061Z" fill="#1D1D1B"/>
<path d="M50.3254 26.6738C49.2009 28.2718 47.9185 29.199 46.4783 29.4752V21.5642H47.3464V28.3113C47.7015 28.1929 48.1158 27.897 48.5695 27.4235C49.043 26.95 49.3981 26.4568 49.6743 25.9636L50.3254 26.6738ZM45.0579 24.6221C45.0579 26.3779 44.2688 27.9956 42.7102 29.4752L42 28.8242C42.651 28.2915 43.1837 27.68 43.598 26.9895C44.0123 26.299 44.2096 25.3323 44.2096 24.1091V21.5444H45.0579V24.6221Z" fill="#1D1D1B"/>
<path d="M59.3806 22.4327L58.7295 22.7089C58.6112 22.1763 58.4731 21.762 58.2758 21.4463L58.9663 21.1504C59.1241 21.5055 59.2622 21.9198 59.3806 22.4327ZM58.3152 22.8273L57.6642 23.1035C57.5458 22.5708 57.388 22.1565 57.2105 21.8212L57.9009 21.545C58.0785 21.8803 58.2166 22.3144 58.3152 22.8273ZM59.0847 23.2811L59.0649 25.1158C59.0649 25.7274 59.0255 26.2995 58.9663 26.8124C58.9071 27.3254 58.8282 27.7988 58.6901 28.2131C58.552 28.6274 58.4139 28.9234 58.2561 29.0812C58.0982 29.239 57.9207 29.3574 57.7431 29.3968C57.5656 29.4363 57.3288 29.4758 57.0724 29.4758C56.8948 29.4758 56.5989 29.4758 56.2043 29.4758L55.9676 28.5485C56.52 28.588 56.9343 28.6274 57.2499 28.6274C57.5656 28.6274 57.822 28.2921 57.9996 27.6016C58.1771 26.9111 58.2758 26.0825 58.2758 25.0961V24.1491H55.9084C55.7111 25.5104 55.3363 26.6151 54.7641 27.4635C54.192 28.3118 53.4029 28.9826 52.3967 29.4955L51.7852 28.7853C52.8505 28.2329 53.6199 27.641 54.0934 26.9703C54.5669 26.2995 54.8825 25.3723 55.0601 24.1886H51.943V23.2811H55.1192V21.5055H55.9676V23.2811H59.0847Z" fill="#1D1D1B"/>
<path d="M67.8055 25.3518H64.0768V28.0546H67.8055V25.3518ZM69.0878 22.4517H65.0435C64.8857 23.2803 64.6292 24.0103 64.2544 24.6613H68.5157V29.692H67.7858V28.7648H64.0571V29.7118H63.3469V26.0028C62.7156 26.6933 62.1632 27.2063 61.6897 27.5219L61.0781 27.0287C62.8142 25.7661 63.8796 24.247 64.2741 22.4517H61.6305V21.7612H69.0878V22.4517Z" fill="#1D1D1B"/>
<path d="M78.2021 25.6285C78.0443 26.2796 77.7089 26.9109 77.1565 27.483L76.5054 27.1082C77.117 26.5163 77.4721 25.9245 77.5708 25.2734L78.2021 25.6285ZM73.9999 25.5891C73.9802 26.2993 73.704 26.9701 73.1911 27.5816L72.4809 27.266C72.9938 26.7333 73.2897 26.102 73.3489 25.3523L73.9999 25.5891ZM79.0701 28.9232L78.5967 29.6531C77.3143 29.4558 76.2292 28.8048 75.3612 27.6408C74.8483 28.5483 73.8224 29.2388 72.2441 29.7123L71.7706 29.0415C72.54 28.8837 73.1911 28.647 73.704 28.2919C74.217 27.9565 74.5918 27.5619 74.7891 27.1082C74.9864 26.6544 75.085 26.0034 75.085 25.1353L75.7952 25.234C75.7558 25.9836 75.7163 26.4571 75.6769 26.6347C76.2095 27.917 77.3538 28.6667 79.0701 28.9232ZM78.0837 23.5768H71.4353V21.6237H72.1455V22.8468H74.3551V21.1699H75.1047V22.8468H77.334V21.5645H78.064V23.5768H78.0837ZM78.6164 24.9578H72.2047C72.2047 25.8455 72.1849 26.4966 72.1455 26.9109C72.106 27.3252 71.9877 27.7592 71.7904 28.2327C71.5931 28.6864 71.2774 29.1402 70.8631 29.5545L70.291 29.0021C70.6461 28.7062 70.9223 28.3116 71.1196 27.7789C71.3366 27.2463 71.4353 26.4571 71.4353 25.4115V24.2673H78.5967V24.9578H78.6164Z" fill="#1D1D1B"/>
<path d="M40.6974 33.2235H38.6457V34.0916H37.896V33.2235H35.3905V34.0916H34.6606V33.2235H32.6088V32.4738H34.6606V31.3296H35.3905V32.4738H37.896V31.3296H38.6457V32.4738H40.6974V33.2235ZM40.8947 39.0237L40.4212 39.7536C38.8627 39.4379 37.6395 38.8856 36.732 38.0964C35.8837 38.7672 34.6211 39.2998 32.9442 39.6747L32.4707 38.9645C34.0687 38.708 35.2919 38.2345 36.1796 37.5638C35.6667 37.0311 35.2327 36.3209 34.917 35.4528C34.6211 35.7882 34.3449 36.0249 34.1082 36.2025L33.5755 35.729C34.1871 35.3147 34.6408 34.8018 34.9367 34.1902L35.5286 34.5453C35.4891 34.6242 35.4694 34.7229 35.4102 34.8018C35.647 35.5909 36.1007 36.3603 36.7715 37.11C37.5014 36.2814 37.9946 35.3542 38.2314 34.3678L38.9219 34.644C38.6062 35.8868 38.0736 36.8733 37.3042 37.6032C38.5076 38.3923 39.6913 38.8856 40.8947 39.0237Z" fill="#1D1D1B"/>
<path d="M50.0695 38.3336L49.3198 38.7084C48.7872 37.4655 48.0769 36.4199 47.1497 35.5321L47.6429 35.0784C48.7674 36.124 49.5763 37.209 50.0695 38.3336ZM46.5184 39.2213C46.5184 39.3792 46.4592 39.5173 46.3211 39.6159C46.183 39.7145 46.0252 39.7737 45.8082 39.7737H44.8218L44.585 39.0438C45.019 39.103 45.3347 39.1227 45.532 39.1227C45.6898 39.1227 45.7885 39.0832 45.7885 39.0043V33.796H46.5184V39.2213ZM45.2558 35.5321C44.7626 36.7356 43.934 37.8206 42.8095 38.7676L42.1979 38.1757C43.3421 37.2879 44.1707 36.2621 44.7034 35.0981L45.2558 35.5321ZM49.4974 33.2831C49.4974 33.5001 49.2606 33.9736 48.8069 34.7233L48.1756 34.2892C48.4518 33.8749 48.6491 33.5396 48.7674 33.2634H44.4667C44.0721 34.1117 43.3421 34.9008 42.2768 35.6702L41.7441 35.0586C43.2238 33.9933 44.151 32.7504 44.5653 31.2905L45.1769 31.5865C45.098 31.9416 44.9599 32.2967 44.802 32.6123H49.5171V33.2831H49.4974Z" fill="#1D1D1B"/>
<path d="M58.8667 33.3815H57.3673V37.9782H58.8667V33.3815ZM59.6164 39.3987H58.8667V38.6885H57.3673V39.3987H56.6571V32.691H59.6361V39.3987H59.6164ZM56.0653 33.2632L56.0258 35.5122C56.0061 36.2816 55.9666 36.9524 55.8877 37.5442C55.8088 38.1361 55.7101 38.5504 55.6115 38.7871C55.5129 39.0238 55.3748 39.1817 55.2169 39.3C55.0591 39.3987 54.8816 39.4579 54.6448 39.4579C54.4673 39.4579 54.0924 39.3987 53.4808 39.3L53.3625 38.4715C54.0332 38.6687 54.4475 38.7871 54.5856 38.7871C54.6843 38.7871 54.7632 38.7279 54.8618 38.5898C54.9407 38.4517 55.0394 38.0572 55.1183 37.3469C55.2169 36.6564 55.2761 35.5319 55.3353 33.9931H54.1713C54.0924 35.5517 53.8951 36.7945 53.54 37.702C53.2046 38.6096 52.6917 39.3592 52.0604 39.9314L51.4883 39.4184C52.1196 38.7279 52.5536 38.1558 52.7509 37.702C52.9679 37.2483 53.1257 36.617 53.2244 35.8476C53.3428 35.0782 53.4019 34.4469 53.4217 33.9931H51.8631V33.3026H53.4217C53.4611 33.0264 53.4808 32.3754 53.5203 31.3101L54.2897 31.3692L54.2108 33.3026H56.0653V33.2632Z" fill="#1D1D1B"/>
<path d="M67.4092 34.3478H65.2588V35.137H67.4092V34.3478ZM67.4092 32.9669H65.2588V33.6574H67.4092V32.9669ZM69.599 38.7867L69.1256 39.3391C68.0405 38.8065 67.2316 38.0568 66.7384 37.1098V39.8126H66.0085V37.1295C65.5942 38.037 64.7853 38.7867 63.6213 39.3786L63.069 38.8459C64.2132 38.2935 64.9826 37.6622 65.3574 36.9323H63.6016V36.2418H66.0085V35.8275H64.5289V32.9669H63.6805V32.2764H64.5289V31.2899H65.2391V32.2764H67.3895V31.2505H68.1194V32.2764H69.0466V32.9669H68.1194V35.8275H66.7187V36.2418H69.165V36.9323H67.4092C67.8235 37.6622 68.5337 38.2935 69.599 38.7867ZM62.1812 33.3417C62.1614 34.0716 61.9642 34.7819 61.6091 35.4329L60.9186 35.1962C61.3329 34.5846 61.5301 33.9138 61.5301 33.1641L62.1812 33.3417ZM64.3908 37.7214L63.8778 38.2343C63.6805 37.8989 63.3452 37.5833 62.8717 37.2874C62.7138 38.1357 62.2206 38.9643 61.392 39.7929L60.8594 39.3194C61.2934 38.8854 61.6288 38.4711 61.8655 38.037C62.1023 37.6228 62.2206 37.2085 62.2601 36.7942C62.2995 36.3799 62.3193 35.7683 62.3193 34.9594V31.3097H63.0295V34.0322C63.3057 33.8744 63.6213 33.5784 63.9567 33.1247L64.3118 33.7757C63.937 34.2492 63.503 34.5649 63.0098 34.7424C62.99 35.8472 62.9703 36.4785 62.9506 36.6363C63.6213 36.952 64.0948 37.3071 64.3908 37.7214Z" fill="#1D1D1B"/>
<path d="M78.2021 35.7296C78.0443 36.3806 77.7089 37.0119 77.1565 37.5841L76.5054 37.2092C77.117 36.6371 77.4721 36.0255 77.5708 35.3745L78.2021 35.7296ZM73.9999 35.6901C73.9802 36.4004 73.704 37.0711 73.1911 37.6827L72.4809 37.3671C72.9938 36.8344 73.2897 36.2031 73.3489 35.4534L73.9999 35.6901ZM79.0701 39.044L78.5967 39.7739C77.3143 39.5766 76.2292 38.9256 75.3612 37.7616C74.8483 38.6691 73.8224 39.3596 72.2441 39.8331L71.7706 39.1623C72.54 39.0045 73.1911 38.7678 73.704 38.4127C74.217 38.0773 74.5918 37.6827 74.7891 37.229C74.9864 36.7752 75.085 36.1242 75.085 35.2561L75.7952 35.3548C75.7558 36.1044 75.7163 36.5779 75.6769 36.7555C76.2095 38.0181 77.3538 38.7875 79.0701 39.044ZM78.0837 33.6779H71.4353V31.7247H72.1455V32.9479H74.3551V31.271H75.1047V32.9479H77.334V31.6656H78.064V33.6779H78.0837ZM78.6164 35.0786H72.2047C72.2047 35.9663 72.1849 36.6174 72.1455 37.0317C72.106 37.446 71.9877 37.88 71.7904 38.3535C71.5931 38.8072 71.2774 39.261 70.8631 39.6753L70.291 39.1229C70.6461 38.827 70.9223 38.4324 71.1196 37.8997C71.3366 37.3671 71.4353 36.5779 71.4353 35.5323V34.3881H78.5967V35.0786H78.6164Z" fill="#1D1D1B"/>
<path d="M40.5419 46.9548H39.812V41.9043H40.5419V46.9548ZM39.1018 46.9153H38.3718V44.9227H37.0895V44.1928H38.3718V42.1213H39.1018V46.9153ZM40.4827 47.2507V49.1643H35.1166V49.7759H40.6208V50.5256H34.3867V48.4344H39.7331V47.9806H34.3472V47.2507H40.4827ZM36.0636 44.5676C36.0636 44.2322 35.9255 43.9363 35.669 43.6996C35.3928 43.4628 35.0772 43.3445 34.7023 43.3445C34.3275 43.3445 34.0118 43.4628 33.7356 43.6996C33.4594 43.9363 33.3411 44.2322 33.3411 44.5676C33.3411 44.903 33.4792 45.1989 33.7356 45.4357C34.0118 45.6724 34.3275 45.8105 34.7023 45.8105C35.0772 45.8105 35.3928 45.6921 35.669 45.4554C35.9255 45.1792 36.0636 44.903 36.0636 44.5676ZM36.7738 44.5479C36.7738 45.1003 36.5765 45.5738 36.2017 45.9486C35.8269 46.3235 35.3139 46.5207 34.7023 46.5207C34.071 46.5207 33.5581 46.3432 33.1833 45.9881C32.8084 45.633 32.6309 45.1595 32.6309 44.5874C32.6309 44.0152 32.8281 43.5418 33.2227 43.1866C33.6173 42.8315 34.1105 42.6342 34.7023 42.6342C35.3139 42.6342 35.8071 42.8118 36.2017 43.1866C36.5765 43.5418 36.7738 44.0152 36.7738 44.5479Z" fill="#1D1D1B"/>
<path d="M50.3257 46.6387H48.8066V50.6041H48.0964V41.9434H48.8066V45.9088H50.3257V46.6387ZM42.8487 49.4007C42.6711 49.1245 42.5133 48.9272 42.3555 48.7891C43.3024 48.3551 44.0718 47.6843 44.644 46.7768C45.2358 45.8693 45.5909 44.9223 45.7093 43.9162H42.533V43.1468H46.5379C46.459 44.508 46.0841 45.7312 45.4331 46.836C44.8018 47.9605 43.9337 48.8088 42.8487 49.4007Z" fill="#1D1D1B"/>
<path d="M59.5392 46.9743H58.829V44.7844H56.4813V44.0348H58.829V41.9238H59.5392V46.9743ZM58.8487 50.5057V48.158H53.3445V47.4083H59.5392V50.5057H58.8487ZM56.1262 46.7967C55.5541 46.4219 54.903 45.7511 54.1928 44.7647C53.7391 45.5144 53.1275 46.2246 52.3581 46.8756C52.0621 46.5797 51.8451 46.4022 51.707 46.343C53.1472 45.3368 53.8574 44.1729 53.8574 42.8116C53.8574 42.6735 53.8574 42.5551 53.8377 42.4565C54.1533 42.5157 54.469 42.5551 54.7847 42.5749C54.6466 42.8708 54.5676 43.3048 54.5676 43.8375C54.5676 43.9558 54.7847 44.2912 55.2187 44.8239C55.6527 45.3566 56.2051 45.83 56.8364 46.2246C56.5405 46.3233 56.3037 46.5205 56.1262 46.7967Z" fill="#1D1D1B"/>
<path d="M69.3437 45.4947H67.8246V48.3553H67.1144V41.9238H67.8246V44.7647H69.3437V45.4947ZM67.8246 50.3676H62.2217V47.4675H62.9714V49.6179H67.8246V50.3676ZM66.2858 46.7178C65.2994 46.8756 63.7211 46.9546 61.5312 46.9546V42.4959H65.6939V43.2456H62.2809V44.2912H65.4967V45.0409H62.2809V46.2049C63.6422 46.2246 64.964 46.1457 66.2858 45.9879V46.7178Z" fill="#1D1D1B"/>
<path d="M36.7318 17.599V18.6051H32.6875V11.4043H36.7318V12.4104H33.7726V14.3636H35.9427V15.3697H33.7726V17.599H36.7318Z" fill="#1D1D1B"/>
<path d="M42.3351 17.599V18.6051H38.1133V11.4043H39.1983V17.599H42.3351Z" fill="#1D1D1B"/>
<path d="M45.4911 11.2661C46.8326 11.2661 47.4836 12.0552 47.7204 13.2981H46.6353C46.438 12.5879 46.1026 12.292 45.4319 12.292C44.3468 12.292 43.972 13.2981 43.972 14.975C43.972 16.6717 44.3468 17.6581 45.4319 17.6581C46.5958 17.6581 46.7339 16.7506 46.7339 15.7445V15.6458H45.0965V14.6397H47.819V15.4485C47.819 17.5003 47.1285 18.684 45.4713 18.684C43.6169 18.684 42.8672 17.1649 42.8672 14.9553C42.8869 12.7852 43.6366 11.2661 45.4911 11.2661Z" fill="#1D1D1B"/>
<path d="M50.3445 15.4488H52.0017L51.4493 12.5093H50.8969L50.3445 15.4488ZM52.199 16.455H50.1669L49.7724 18.5856H48.707L50.1472 11.3848H52.2384L53.6786 18.5856H52.5935L52.199 16.455Z" fill="#1D1D1B"/>
<path d="M58.2955 13.2976C58.0982 12.5873 57.7628 12.2914 57.092 12.2914C56.007 12.2914 55.6321 13.2976 55.6321 14.9745C55.6321 16.6711 56.007 17.6575 57.092 17.6575C57.7825 17.6575 58.1968 17.3813 58.3744 16.4541H59.4594C59.2227 17.7956 58.5519 18.6834 57.1315 18.6834C55.277 18.6834 54.5273 17.1643 54.5273 14.9547C54.5273 12.7452 55.277 11.2261 57.1315 11.2261C58.473 11.2261 59.1241 12.0152 59.3608 13.2581H58.2955V13.2976Z" fill="#1D1D1B"/>
<path d="M64.4129 14.9948C64.4129 13.3573 64.0972 12.3117 62.9727 12.3117C61.8482 12.3117 61.5325 13.3573 61.5325 14.9948C61.5325 16.6322 61.8482 17.6778 62.9727 17.6778C64.0972 17.6778 64.4129 16.652 64.4129 14.9948ZM65.4979 14.9948C65.4979 17.1649 64.8074 18.7234 62.953 18.7234C61.0985 18.7234 60.4277 17.1649 60.4277 14.9948C60.4277 12.8247 61.1182 11.2661 62.9727 11.2661C64.8272 11.2661 65.4979 12.8247 65.4979 14.9948Z" fill="#1D1D1B"/>
<path d="M68.0007 15.4488H69.6579L69.1055 12.5093H68.5531L68.0007 15.4488ZM69.8552 16.455H67.8232L67.4286 18.5856H66.3633L67.8035 11.3848H69.8947L71.3348 18.5856H70.2498L69.8552 16.455Z" fill="#1D1D1B"/>
<path d="M76.7414 17.599V18.6051H72.5195V11.4043H73.5849V17.599H76.7414Z" fill="#1D1D1B"/>
<path d="M23.0218 20.9722V6.66913C23.0218 6.3732 23.3966 6.25483 23.5742 6.49157C25.2116 8.58278 26.0994 11.1475 26.0994 13.8305C26.0994 16.5333 25.2116 19.0783 23.5742 21.1695C23.3966 21.3865 23.0218 21.2681 23.0218 20.9722ZM14.1243 25.7859C11.4215 25.7859 8.87653 24.8981 6.78532 23.2607C6.54858 23.0831 6.68668 22.7083 6.96287 22.7083H21.2659C21.5619 22.7083 21.6802 23.0831 21.4435 23.2607C19.3917 24.8981 16.8271 25.7859 14.1243 25.7859ZM2.16888 13.8108C2.16888 11.108 3.05666 8.56305 4.69411 6.47184C4.87167 6.2351 5.24651 6.3732 5.24651 6.6494V20.9525C5.24651 21.2484 4.87167 21.3668 4.69411 21.13C3.05666 19.0783 2.16888 16.5136 2.16888 13.8108ZM21.5619 21.2681H6.66695V6.35347H21.5619V21.2681ZM14.1243 1.85541C16.8271 1.85541 19.372 2.74318 21.4632 4.38064C21.7 4.55819 21.5619 4.93303 21.2857 4.93303H6.9826C6.68668 4.93303 6.56831 4.55819 6.80505 4.38064C8.87653 2.74318 11.4412 1.85541 14.1243 1.85541ZM23.6136 4.32145C21.0884 1.79622 17.7148 0.395508 14.1243 0.395508C10.5337 0.395508 7.16016 1.79622 4.63493 4.32145C2.1097 6.86641 0.708984 10.24 0.708984 13.8108C0.708984 17.4014 2.1097 20.7749 4.63493 23.3001C7.17989 25.8451 10.5534 27.2458 14.1243 27.2458C17.6951 27.2458 21.0884 25.8451 23.6136 23.3199C26.1586 20.7946 27.5396 17.4211 27.5396 13.8305C27.5396 10.24 26.1586 6.86641 23.6136 4.32145Z" fill="#1D1D1B"/>
<path d="M16.51 13.8902C16.51 15.1922 15.4644 16.2378 14.1623 16.2378C12.8603 16.2378 11.7949 15.1922 11.7949 13.8902C11.7949 12.5881 12.8405 11.5425 14.1426 11.5425C15.4447 11.5425 16.51 12.5881 16.51 13.8902Z" fill="#1D1D1B"/>
</svg>
