<svg width="27" height="27" viewBox="0 0 27 27" fill="none" xmlns="http://www.w3.org/2000/svg">
<path d="M23.3486 0.750505H21.9154V0.189819H25.4025V0.750505H23.9723V3.55994H23.3516L23.3486 0.750505ZM25.2136 13.2805C25.2097 13.2507 25.1997 13.222 25.1842 13.1962C25.1688 13.1704 25.1481 13.1481 25.1236 13.1306C25.1002 13.1121 25.0731 13.0987 25.0442 13.0915C25.0152 13.0843 24.9851 13.0833 24.9557 13.0886C24.8986 13.0965 24.8468 13.1267 24.8118 13.1726C24.7802 13.2188 24.767 13.2752 24.7748 13.3306C24.7825 13.3861 24.8107 13.4366 24.8538 13.4724C24.8908 13.5005 24.9362 13.5153 24.9827 13.5144C25.0163 13.5148 25.0496 13.5077 25.0802 13.4937C25.1108 13.4797 25.1379 13.4591 25.1596 13.4334C25.1785 13.4118 25.1928 13.3866 25.2016 13.3593C25.2103 13.3319 25.2134 13.3031 25.2106 13.2745L25.2136 13.2805ZM7.9732 24.6232C7.9732 24.0055 7.47847 23.7237 6.79185 23.7237C6.56955 23.7178 6.34841 23.7576 6.14212 23.8407C5.93582 23.9237 5.74877 24.0482 5.59252 24.2064L5.89236 24.5063C6.01086 24.3897 6.15151 24.2981 6.306 24.2368C6.46049 24.1756 6.62569 24.1458 6.79185 24.1495C7.28058 24.1495 7.52045 24.3174 7.52045 24.6022C7.51851 24.6872 7.49237 24.7698 7.4451 24.8405C7.39784 24.9111 7.3314 24.9668 7.25359 25.001L5.66748 25.9005V26.3892H7.92821V25.9574H6.37808L7.50845 25.3248C7.64943 25.2617 7.76978 25.1602 7.85569 25.0319C7.9416 24.9035 7.9896 24.7536 7.99418 24.5992L7.9732 24.6232ZM25.4684 14.8456C25.4769 14.8845 25.4967 14.92 25.5254 14.9476C25.5533 14.9741 25.5873 14.9935 25.6244 15.0039C25.6615 15.0144 25.7006 15.0156 25.7383 15.0076C25.7662 15.0009 25.7925 14.9887 25.8157 14.9717C25.8389 14.9547 25.8584 14.9333 25.8732 14.9086C25.8893 14.883 25.9 14.8544 25.9047 14.8244C25.9093 14.7945 25.9078 14.764 25.9002 14.7347C25.8881 14.7066 25.8704 14.6812 25.8482 14.6601C25.8261 14.639 25.7999 14.6226 25.7713 14.6118C25.7325 14.5916 25.6888 14.583 25.6453 14.587C25.6019 14.591 25.5605 14.6074 25.526 14.6343C25.4916 14.6611 25.4656 14.6973 25.4511 14.7385C25.4367 14.7797 25.4343 14.8242 25.4444 14.8666L25.4684 14.8456ZM25.2016 14.0001C25.182 14.0523 25.182 14.1098 25.2016 14.162C25.2133 14.1894 25.2307 14.2139 25.2526 14.234C25.278 14.26 25.3096 14.2793 25.3444 14.2901C25.3793 14.3008 25.4162 14.3027 25.452 14.2956C25.4877 14.2884 25.5211 14.2725 25.5491 14.2492C25.5771 14.2258 25.5988 14.1959 25.6123 14.162C25.6242 14.1346 25.6304 14.105 25.6304 14.0751C25.6304 14.0452 25.6242 14.0156 25.6123 13.9881C25.5874 13.9334 25.5422 13.8906 25.4862 13.8688C25.4302 13.847 25.3679 13.8478 25.3125 13.8712C25.2584 13.8975 25.2165 13.9437 25.1956 14.0001H25.2016ZM10.9205 24.6202C10.9205 24.0025 10.4288 23.7207 9.73922 23.7207C9.51696 23.7152 9.29591 23.7551 9.08966 23.8382C8.88342 23.9212 8.69633 24.0455 8.53988 24.2034L8.83972 24.5033C8.95812 24.3866 9.09874 24.2949 9.25325 24.2336C9.40777 24.1723 9.57303 24.1427 9.73922 24.1465C10.2279 24.1465 10.4648 24.3144 10.4648 24.5992C10.4636 24.6843 10.4378 24.7673 10.3904 24.8381C10.343 24.9089 10.2762 24.9644 10.198 24.998L8.61183 25.8975V26.3862H10.8726V25.9545H9.32545L10.4558 25.3218C10.596 25.258 10.7156 25.1562 10.8009 25.028C10.8862 24.8998 10.9339 24.7502 10.9385 24.5962L10.9205 24.6202ZM11.5052 25.2558H13.0044V24.8661H11.5052V25.2558ZM15.9637 24.5962C15.9637 23.9786 15.469 23.6967 14.7794 23.6967C14.5571 23.6905 14.3358 23.7301 14.1294 23.8132C13.9231 23.8962 13.7361 24.0209 13.5801 24.1794L13.8799 24.4793C13.9984 24.3627 14.1391 24.2711 14.2935 24.2099C14.448 24.1486 14.6132 24.1189 14.7794 24.1225C15.2681 24.1225 15.505 24.2904 15.505 24.5752C15.5038 24.6604 15.4779 24.7433 15.4306 24.8141C15.3832 24.8849 15.3164 24.9404 15.2381 24.974L13.655 25.8735V26.3622H15.8768V25.9305H14.3297L15.46 25.2978C15.601 25.2348 15.7213 25.1332 15.8073 25.0049C15.8932 24.8766 15.9412 24.7266 15.9457 24.5722L15.9637 24.5962ZM19.3099 25.052C19.3164 25.3321 19.2393 25.6079 19.0884 25.844C18.9374 26.0801 18.7195 26.2658 18.4625 26.3775C18.2055 26.4891 17.921 26.5216 17.6454 26.4708C17.3698 26.4199 17.1156 26.2881 16.9154 26.0921C16.7151 25.8961 16.5778 25.6448 16.521 25.3704C16.4643 25.096 16.4906 24.8108 16.5967 24.5515C16.7028 24.2921 16.8838 24.0702 17.1166 23.9142C17.3494 23.7582 17.6234 23.6752 17.9037 23.6757C18.0888 23.6642 18.2742 23.6917 18.448 23.7564C18.6218 23.8211 18.7801 23.9216 18.9126 24.0513C19.0452 24.181 19.149 24.3371 19.2174 24.5095C19.2859 24.6818 19.3174 24.8667 19.3099 25.052ZM18.8361 25.052C18.8308 24.8688 18.7717 24.6912 18.666 24.5415C18.5604 24.3917 18.413 24.2764 18.2422 24.2099C18.0714 24.1435 17.8848 24.1288 17.7058 24.1678C17.5267 24.2068 17.3631 24.2976 17.2353 24.429C17.1076 24.5605 17.0215 24.7266 16.9876 24.9067C16.9538 25.0868 16.9737 25.2729 17.045 25.4417C17.1163 25.6106 17.2358 25.7546 17.3885 25.8559C17.5412 25.9573 17.7204 26.0113 17.9037 26.0114C18.0309 26.0209 18.1586 26.0023 18.2779 25.957C18.3971 25.9117 18.505 25.8409 18.5939 25.7494C18.6828 25.6579 18.7506 25.5481 18.7924 25.4276C18.8343 25.3071 18.8492 25.1788 18.8361 25.052ZM19.3908 18.0898C19.4211 18.0902 19.4512 18.0842 19.479 18.0723C19.5069 18.0605 19.532 18.0429 19.5527 18.0209C19.5734 17.9997 19.5893 17.9742 19.5991 17.9462C19.6089 17.9182 19.6126 17.8885 19.6097 17.859C19.605 17.8033 19.5807 17.7511 19.5412 17.7116C19.5017 17.6721 19.4495 17.6478 19.3938 17.6431C19.339 17.6437 19.2862 17.6636 19.2445 17.6992C19.2029 17.7348 19.1751 17.7839 19.1659 17.838C19.1595 17.8678 19.16 17.8987 19.1672 17.9283C19.1745 17.9579 19.1884 17.9854 19.2079 18.0089C19.2279 18.0342 19.2535 18.0547 19.2826 18.0687C19.3116 18.0827 19.3435 18.09 19.3758 18.0898H19.3908ZM18.1345 16.7916C18.105 16.7972 18.0772 16.8097 18.0533 16.8279C18.0293 16.8461 18.0099 16.8696 17.9966 16.8965C17.9834 16.9257 17.9765 16.9574 17.9765 16.9895C17.9765 17.0215 17.9834 17.0532 17.9966 17.0824C18.0076 17.1139 18.0254 17.1425 18.0487 17.1663C18.0721 17.1902 18.1003 17.2086 18.1315 17.2203C18.1553 17.2249 18.1797 17.2249 18.2035 17.2203C18.2369 17.2199 18.2697 17.2116 18.2994 17.1963C18.3547 17.1757 18.3995 17.1339 18.424 17.0802C18.4484 17.0265 18.4505 16.9653 18.4299 16.91C18.4092 16.8547 18.3674 16.8099 18.3137 16.7855C18.26 16.761 18.1988 16.7589 18.1435 16.7796L18.1345 16.7916ZM18.2784 15.6912C18.308 15.7029 18.3396 15.709 18.3714 15.7092C18.4124 15.7098 18.4527 15.6993 18.4881 15.6787C18.5235 15.6581 18.5526 15.6282 18.5723 15.5922C18.5975 15.5407 18.6029 15.4816 18.5875 15.4263C18.572 15.371 18.5367 15.3234 18.4883 15.2924C18.463 15.2768 18.4349 15.2664 18.4056 15.2618C18.3762 15.2572 18.3463 15.2584 18.3174 15.2654C18.2559 15.2838 18.2041 15.3259 18.1735 15.3823C18.1602 15.4121 18.1533 15.4442 18.1533 15.4768C18.1533 15.5093 18.1602 15.5415 18.1735 15.5712C18.1831 15.5977 18.1982 15.6218 18.2179 15.642C18.2375 15.6622 18.2612 15.6779 18.2874 15.6882L18.2784 15.6912ZM18.8121 17.4182C18.7662 17.3872 18.7106 17.3738 18.6555 17.3804C18.6005 17.387 18.5496 17.4132 18.5123 17.4542C18.4911 17.4751 18.4747 17.5005 18.4643 17.5285C18.454 17.5565 18.4499 17.5864 18.4524 17.6161C18.4557 17.6488 18.466 17.6805 18.4825 17.7089C18.499 17.7374 18.5215 17.7619 18.5483 17.781C18.5884 17.8101 18.6367 17.8258 18.6862 17.826H18.7372C18.7656 17.8195 18.7923 17.8067 18.8151 17.7885C18.8379 17.7704 18.8564 17.7473 18.8691 17.721C18.8965 17.6724 18.9058 17.6156 18.8954 17.5607C18.8849 17.5059 18.8555 17.4565 18.8121 17.4212V17.4182ZM25.6723 15.6222C25.6791 15.669 25.7012 15.7123 25.7353 15.7451C25.759 15.7689 25.7877 15.7872 25.8193 15.7986C25.851 15.81 25.8847 15.8143 25.9182 15.8111C25.9672 15.8313 26.0221 15.8313 26.0711 15.8111C26.089 15.7874 26.1019 15.7603 26.1091 15.7314C26.1163 15.7026 26.1177 15.6726 26.1131 15.6432C26.1096 15.6133 26.0997 15.5844 26.0842 15.5586C26.0687 15.5327 26.0479 15.5105 26.0231 15.4933C26.0003 15.4759 25.9741 15.4635 25.9463 15.4568C25.9184 15.4501 25.8894 15.4492 25.8612 15.4543C25.833 15.4583 25.8059 15.4679 25.7814 15.4825C25.7569 15.497 25.7356 15.5163 25.7186 15.5392C25.7016 15.562 25.6893 15.588 25.6824 15.6156C25.6755 15.6433 25.6741 15.672 25.6783 15.7002L25.6723 15.6222ZM18.8751 14.7197C18.8443 14.7177 18.8134 14.7219 18.7842 14.732C18.7551 14.7421 18.7282 14.758 18.7053 14.7787C18.6824 14.7994 18.6638 14.8245 18.6508 14.8524C18.6377 14.8804 18.6304 14.9107 18.6292 14.9416C18.6281 14.972 18.6337 15.0023 18.6457 15.0302C18.6576 15.0582 18.6755 15.0832 18.6982 15.1035C18.7407 15.1425 18.7964 15.1639 18.8541 15.1635C18.9098 15.1635 18.9638 15.1445 19.007 15.1095C19.0447 15.0697 19.0674 15.018 19.0712 14.9633C19.075 14.9087 19.0598 14.8544 19.028 14.8097C19.0098 14.7861 18.9867 14.7667 18.9603 14.7527C18.9339 14.7387 18.9049 14.7306 18.8751 14.7287V14.7197ZM19.6097 14.3359C19.5804 14.3232 19.5487 14.3167 19.5168 14.3167C19.4848 14.3167 19.4532 14.3232 19.4238 14.3359C19.3947 14.3485 19.3684 14.367 19.3468 14.3903C19.3251 14.4135 19.3085 14.4409 19.2979 14.4709C19.2854 14.4971 19.2789 14.5258 19.2789 14.5548C19.2789 14.5839 19.2854 14.6125 19.2979 14.6388C19.3169 14.6767 19.346 14.7088 19.3819 14.7315C19.4178 14.7543 19.4593 14.7668 19.5018 14.7677C19.5297 14.7675 19.5573 14.7613 19.5827 14.7497C19.6352 14.7271 19.6773 14.6856 19.7007 14.6333C19.724 14.5811 19.7269 14.5221 19.7087 14.4679C19.7005 14.4405 19.6867 14.4151 19.6681 14.3934C19.6495 14.3717 19.6265 14.3542 19.6007 14.3419L19.6097 14.3359ZM18.1315 16.5337C18.1862 16.5344 18.2393 16.5154 18.2812 16.4802C18.323 16.4449 18.3508 16.3958 18.3594 16.3418C18.3645 16.2848 18.3487 16.2279 18.3151 16.1816C18.2815 16.1353 18.2323 16.1028 18.1765 16.09C18.1484 16.0835 18.1193 16.0829 18.091 16.088C18.0626 16.0932 18.0356 16.104 18.0116 16.1199C17.9856 16.1385 17.9637 16.1621 17.9472 16.1895C17.9307 16.2168 17.9199 16.2472 17.9156 16.2788C17.9094 16.3089 17.9102 16.3399 17.918 16.3696C17.9258 16.3993 17.9404 16.4267 17.9606 16.4498C17.9795 16.4743 18.0035 16.4946 18.0309 16.5091C18.0583 16.5235 18.0886 16.5319 18.1195 16.5337H18.1315ZM20.0654 17.9669C20.0882 17.9714 20.1116 17.9714 20.1344 17.9669C20.1769 17.9662 20.2184 17.9537 20.2543 17.9309C20.2825 17.915 20.3068 17.893 20.3255 17.8666C20.3442 17.8401 20.3567 17.8099 20.3623 17.778C20.3685 17.7487 20.3679 17.7183 20.3606 17.6892C20.3534 17.6601 20.3396 17.6331 20.3203 17.6101C20.2901 17.5596 20.241 17.5232 20.184 17.5088C20.1269 17.4945 20.0665 17.5034 20.016 17.5336C19.9655 17.5639 19.9291 17.6129 19.9147 17.67C19.9004 17.727 19.9093 17.7875 19.9395 17.838C19.9502 17.8658 19.9671 17.8908 19.9889 17.9111C20.0107 17.9313 20.0369 17.9463 20.0654 17.9549V17.9669ZM4.98386 25.1059C4.99295 25.2892 4.96344 25.4723 4.89726 25.6434C4.83108 25.8145 4.72969 25.9699 4.59968 26.0993C4.46966 26.2288 4.3139 26.3295 4.14249 26.3949C3.97108 26.4603 3.78784 26.489 3.60463 26.4792C3.22382 26.4925 2.84595 26.4079 2.50724 26.2333L2.69314 25.8585C2.97176 25.9982 3.28117 26.0652 3.59263 26.0534C3.70081 26.0667 3.81057 26.0578 3.91522 26.0274C4.01986 25.9969 4.11722 25.9455 4.20136 25.8762C4.2855 25.8069 4.35467 25.7212 4.40466 25.6244C4.45465 25.5275 4.48441 25.4215 4.49213 25.3128C4.20043 25.453 3.88026 25.5238 3.55666 25.5197C2.92401 25.5197 2.4023 25.2768 2.4023 24.6412C2.4023 24.0865 2.89102 23.7267 3.6556 23.7267C4.5551 23.7267 4.96587 24.2634 4.96587 25.1059H4.98386ZM4.49813 24.917C4.45315 24.3893 4.21628 24.1525 3.59863 24.1525C3.1129 24.1525 2.87304 24.3414 2.87304 24.6472C2.87304 24.953 3.09491 25.0939 3.61662 25.0939C3.91772 25.0979 4.2162 25.0376 4.49213 24.917H4.49813ZM20.5362 17.3582C20.5706 17.3818 20.6114 17.3943 20.6531 17.3942C20.671 17.3971 20.6892 17.3971 20.7071 17.3942C20.7384 17.3859 20.7675 17.3709 20.7923 17.3502C20.8172 17.3295 20.8372 17.3036 20.851 17.2743C20.8644 17.2441 20.8713 17.2114 20.8713 17.1783C20.8713 17.1453 20.8644 17.1126 20.851 17.0824C20.8393 17.0547 20.8217 17.0299 20.7994 17.0097C20.7772 16.9895 20.7508 16.9744 20.7221 16.9655C20.6701 16.9475 20.6133 16.9493 20.5625 16.9703C20.5117 16.9914 20.4704 17.0304 20.4464 17.0799C20.4224 17.1294 20.4174 17.186 20.4323 17.2389C20.4471 17.2919 20.4809 17.3375 20.5272 17.3672L20.5362 17.3582ZM13.4421 9.08586C13.835 9.1088 14.2269 9.02741 14.5782 8.84995C14.9294 8.67249 15.2274 8.40527 15.442 8.07542L14.8603 7.73361C14.6996 7.96069 14.4837 8.14313 14.2329 8.26377C13.9822 8.38441 13.7049 8.43929 13.4272 8.42323C13.231 8.43726 13.0341 8.40981 12.8493 8.34269C12.6645 8.27557 12.4959 8.17027 12.3544 8.03365C12.213 7.89703 12.1019 7.73216 12.0285 7.54976C11.955 7.36737 11.9208 7.17154 11.928 6.97503C11.9163 6.7774 11.9475 6.57957 12.0195 6.39512C12.0914 6.21067 12.2024 6.04395 12.3447 5.9064C12.4871 5.76885 12.6576 5.66371 12.8444 5.5982C13.0312 5.53268 13.23 5.50834 13.4272 5.52684C13.7048 5.51163 13.9818 5.56688 14.2324 5.68745C14.483 5.80802 14.699 5.99 14.8603 6.21646L15.436 5.88064C15.2228 5.55083 14.9259 5.28351 14.5756 5.10599C14.2253 4.92847 13.8342 4.84711 13.4421 4.87021C12.1828 4.87021 11.2084 5.67076 11.2084 6.96904C11.2084 8.26731 12.1619 9.06787 13.4421 9.06787V9.08586ZM19.3608 10.645C19.3366 10.6264 19.3089 10.6129 19.2793 10.6052C19.2498 10.5976 19.219 10.5959 19.1888 10.6004C19.1586 10.6049 19.1296 10.6154 19.1035 10.6313C19.0774 10.6472 19.0548 10.6682 19.037 10.693C19.0197 10.7164 19.0074 10.7431 19.0007 10.7714C18.994 10.7998 18.9931 10.8292 18.998 10.8579C19.0077 10.9101 19.035 10.9573 19.0754 10.9917C19.1158 11.0261 19.1669 11.0456 19.2199 11.0468H19.2499C19.3082 11.0365 19.3604 11.0044 19.396 10.9571C19.4317 10.9098 19.448 10.8508 19.4418 10.7919C19.4386 10.7637 19.4297 10.7365 19.4158 10.7118C19.4019 10.6871 19.3832 10.6654 19.3608 10.648V10.645ZM17.232 11.3976C17.203 11.3888 17.1725 11.3864 17.1425 11.3905C17.1124 11.3946 17.0837 11.4052 17.0581 11.4216C17.0317 11.4368 17.0086 11.457 16.9901 11.4812C16.9715 11.5054 16.958 11.533 16.9502 11.5625C16.9438 11.5906 16.9431 11.6197 16.9483 11.648C16.9534 11.6764 16.9643 11.7034 16.9802 11.7274C17.0002 11.7603 17.0284 11.7875 17.062 11.8064C17.0956 11.8253 17.1335 11.8353 17.1721 11.8353C17.2112 11.8367 17.2499 11.8263 17.283 11.8053C17.3319 11.7749 17.3674 11.727 17.3825 11.6714C17.3975 11.6157 17.3909 11.5565 17.364 11.5055C17.3504 11.4798 17.3317 11.4573 17.309 11.4392C17.2863 11.4211 17.2601 11.408 17.232 11.4006V11.3976ZM18.5753 10.8009C18.549 10.785 18.5197 10.7747 18.4893 10.7706C18.4589 10.7665 18.4279 10.7686 18.3984 10.7769C18.369 10.7839 18.3414 10.7972 18.3176 10.8158C18.2938 10.8344 18.2743 10.858 18.2605 10.8849C18.2456 10.9094 18.2365 10.937 18.2339 10.9656C18.2313 10.9942 18.2353 11.0229 18.2455 11.0498C18.26 11.0968 18.2889 11.138 18.3282 11.1676C18.3675 11.1972 18.4151 11.2137 18.4643 11.2147C18.4822 11.2175 18.5004 11.2175 18.5183 11.2147C18.5747 11.1992 18.6228 11.1623 18.6525 11.112C18.6821 11.0616 18.691 11.0016 18.6772 10.9448C18.6624 10.8882 18.6257 10.8397 18.5753 10.8099V10.8009ZM17.8437 11.0857C17.8167 11.0739 17.7877 11.0678 17.7582 11.0678C17.7288 11.0678 17.6997 11.0739 17.6728 11.0857C17.6181 11.1106 17.5755 11.1561 17.5541 11.2122C17.5328 11.2684 17.5345 11.3307 17.5588 11.3856C17.5849 11.4388 17.6298 11.4804 17.6848 11.5025C17.7086 11.5068 17.733 11.5068 17.7567 11.5025C17.7887 11.5041 17.8206 11.4979 17.8497 11.4845C17.8903 11.4672 17.9248 11.4384 17.9492 11.4016C17.9735 11.3648 17.9864 11.3217 17.9864 11.2776C17.9864 11.2335 17.9735 11.1904 17.9492 11.1536C17.9248 11.1169 17.8903 11.088 17.8497 11.0708L17.8437 11.0857ZM22.1493 8.97192H21.4057V4.96016H23.7714C23.9826 4.94735 24.1941 4.97826 24.3928 5.05094C24.5916 5.12363 24.7731 5.23653 24.9262 5.38258C25.0793 5.52863 25.2006 5.7047 25.2826 5.89977C25.3645 6.09484 25.4053 6.30473 25.4025 6.51629C25.4025 7.45477 24.6889 8.05144 23.7654 8.05144H22.1433L22.1493 8.97192ZM22.1493 7.36482H23.7414C23.8595 7.37713 23.9789 7.36425 24.0916 7.32704C24.2044 7.28982 24.3079 7.22912 24.3955 7.14893C24.483 7.06874 24.5526 6.97088 24.5996 6.86183C24.6465 6.75278 24.6698 6.63501 24.6679 6.51629C24.6728 6.39494 24.6516 6.27395 24.6057 6.1615C24.5598 6.04904 24.4903 5.94775 24.4019 5.86447C24.3135 5.78119 24.2083 5.71785 24.0933 5.67874C23.9783 5.63963 23.8563 5.62567 23.7354 5.63778H22.1433L22.1493 7.36482ZM16.0057 12.42C15.9636 12.4622 15.9399 12.5193 15.9399 12.5789C15.9399 12.6385 15.9636 12.6957 16.0057 12.7378C16.048 12.7748 16.1024 12.795 16.1586 12.7948C16.1889 12.7949 16.2189 12.7889 16.2467 12.777C16.2746 12.7652 16.2997 12.7478 16.3205 12.7258C16.3557 12.6838 16.3749 12.6307 16.3749 12.5759C16.3749 12.5211 16.3557 12.4681 16.3205 12.426C16.3001 12.4045 16.2754 12.3876 16.248 12.3762C16.2207 12.3649 16.1912 12.3594 16.1616 12.36C16.1313 12.3601 16.1013 12.3668 16.0738 12.3798C16.0464 12.3928 16.0221 12.4116 16.0027 12.435L16.0057 12.42ZM19.7746 10.7889C19.7751 10.8189 19.7817 10.8485 19.7941 10.8758C19.8065 10.9032 19.8243 10.9277 19.8466 10.9478C19.8851 10.9829 19.9354 11.0022 19.9875 11.0018C20.0315 11.0014 20.0743 10.988 20.1106 10.9632C20.1469 10.9384 20.1751 10.9034 20.1915 10.8626C20.2079 10.8218 20.2117 10.7771 20.2027 10.734C20.1936 10.691 20.1719 10.6517 20.1404 10.621C20.1204 10.5989 20.0958 10.5816 20.0684 10.5701C20.0409 10.5587 20.0112 10.5536 19.9815 10.555C19.9216 10.5574 19.865 10.5832 19.824 10.627C19.7831 10.6708 19.761 10.729 19.7626 10.7889H19.7746ZM21.4627 11.1967H21.5166C21.5658 11.1957 21.6135 11.1793 21.6528 11.1496C21.6921 11.12 21.721 11.0788 21.7355 11.0318C21.7442 11.0042 21.7474 10.9751 21.7448 10.9463C21.7423 10.9175 21.734 10.8895 21.7205 10.8639C21.7048 10.8376 21.684 10.8148 21.6592 10.7968C21.6345 10.7787 21.6064 10.7659 21.5766 10.7589C21.5177 10.744 21.4554 10.7526 21.4027 10.7829C21.3773 10.7974 21.3553 10.8173 21.3382 10.8411C21.3211 10.8649 21.3094 10.8921 21.3038 10.9208C21.2907 10.9776 21.3 11.0372 21.3295 11.0874C21.3591 11.1376 21.4067 11.1745 21.4627 11.1907V11.1967ZM21.2048 2.98726H18.7192V2.11475H20.878V1.56005H18.7192V0.750505H21.1179V0.189819H18.1045V3.55994H21.2138L21.2048 2.98726ZM19.8646 7.72762C19.7032 7.95408 19.4872 8.13605 19.2366 8.25662C18.986 8.37719 18.709 8.43244 18.4314 8.41723C18.2364 8.42907 18.0412 8.4 17.8582 8.33189C17.6751 8.26378 17.5084 8.15815 17.3686 8.02176C17.2288 7.88538 17.1191 7.72127 17.0466 7.53997C16.974 7.35867 16.9401 7.1642 16.9472 6.96904C16.9358 6.77278 16.9667 6.57635 17.0377 6.39305C17.1088 6.20974 17.2184 6.04384 17.3591 5.90654C17.4998 5.76924 17.6683 5.66376 17.8533 5.59722C18.0383 5.53068 18.2354 5.50463 18.4314 5.52085C18.7111 5.50475 18.9902 5.56016 19.2425 5.68187C19.4949 5.80357 19.712 5.98756 19.8736 6.21646L20.4492 5.88064C20.2358 5.55105 19.9389 5.28391 19.5886 5.10641C19.2384 4.92892 18.8473 4.84742 18.4553 4.87021C17.196 4.87021 16.2216 5.67076 16.2216 6.96904C16.2216 8.26731 17.1751 9.06787 18.4553 9.06787C18.8481 9.0905 19.24 9.00897 19.5912 8.83154C19.9423 8.65411 20.2404 8.38706 20.4552 8.05743L19.8646 7.72762ZM20.788 10.603C20.7589 10.5979 20.7291 10.5989 20.7004 10.606C20.6716 10.6131 20.6447 10.6261 20.6213 10.6441C20.5979 10.6622 20.5785 10.6849 20.5644 10.7109C20.5502 10.7368 20.5417 10.7654 20.5392 10.7949C20.5338 10.8525 20.5502 10.9101 20.5851 10.9561C20.6201 11.0022 20.6711 11.0335 20.7281 11.0438H20.7611C20.8141 11.0436 20.8653 11.0245 20.9055 10.9899C20.9457 10.9552 20.9721 10.9073 20.9799 10.8549C20.9847 10.8262 20.9837 10.7968 20.9771 10.7685C20.9704 10.7402 20.9581 10.7135 20.941 10.69C20.9227 10.6656 20.8997 10.6452 20.8735 10.6297C20.8472 10.6143 20.8182 10.6042 20.788 10.6V10.603ZM14.7164 2.7264L15.0882 0.750505H16.5874V3.55994H17.211V0.189819H14.5695L14.1078 2.64545C14.0943 2.74748 14.0411 2.84005 13.9596 2.90296C13.8782 2.96587 13.7751 2.99402 13.673 2.98126H13.3732V3.55994H13.715C13.9569 3.57992 14.1969 3.50355 14.3828 3.34744C14.5687 3.19133 14.6853 2.96813 14.7074 2.7264H14.7164ZM16.7073 11.8383C16.6788 11.8332 16.6494 11.8337 16.6211 11.84C16.5928 11.8463 16.5659 11.8582 16.5422 11.8749C16.5185 11.8916 16.4984 11.9129 16.4829 11.9375C16.4675 11.9621 16.4572 11.9896 16.4525 12.0182C16.448 12.049 16.45 12.0803 16.4582 12.1102C16.4665 12.1401 16.4809 12.168 16.5004 12.1921C16.5208 12.2161 16.5461 12.2354 16.5745 12.2488C16.6029 12.2623 16.6339 12.2695 16.6653 12.2701C16.7148 12.2726 16.7636 12.2577 16.8033 12.2281C16.8267 12.2121 16.8463 12.1912 16.8608 12.1669C16.8753 12.1426 16.8843 12.1154 16.8872 12.0872C16.8961 12.0302 16.8821 11.972 16.8482 11.9253C16.8313 11.9019 16.8098 11.8821 16.7851 11.8672C16.7604 11.8523 16.7329 11.8425 16.7043 11.8383H16.7073ZM24.518 12.387C24.4942 12.3691 24.4671 12.3562 24.4383 12.349C24.4094 12.3418 24.3794 12.3404 24.3501 12.345C24.2933 12.3541 24.242 12.3841 24.2061 12.429C24.1746 12.4752 24.1613 12.5316 24.1691 12.587C24.1769 12.6425 24.205 12.693 24.2481 12.7288C24.2863 12.7569 24.3326 12.7717 24.38 12.7708C24.4133 12.771 24.4463 12.7641 24.4768 12.7507C24.5073 12.7373 24.5346 12.7175 24.5569 12.6928C24.5746 12.6708 24.5876 12.6454 24.5952 12.6183C24.6028 12.5911 24.6049 12.5626 24.6012 12.5346C24.5976 12.5066 24.5883 12.4797 24.574 12.4553C24.5597 12.431 24.5407 12.4098 24.518 12.393V12.387ZM2.44428 4.96016H4.81595V8.98392H4.07237V8.03944H2.31835L1.80263 8.98392H0.987087L1.62273 7.86254C1.37065 7.74225 1.1595 7.55049 1.01556 7.31112C0.871622 7.07176 0.801247 6.79535 0.813188 6.51629C0.809878 6.3046 0.850387 6.09451 0.932177 5.89923C1.01397 5.70395 1.13527 5.5277 1.28846 5.38156C1.44164 5.23541 1.6234 5.12253 1.82231 5.05001C2.02121 4.97749 2.23298 4.9469 2.44428 4.96016ZM1.54478 6.51629C1.54478 7.06199 1.91357 7.36182 2.46826 7.36182H4.06037V5.63778H2.46826C2.34897 5.62834 2.22904 5.64432 2.11639 5.68468C2.00374 5.72504 1.90094 5.78884 1.81478 5.87188C1.72863 5.95492 1.66108 6.0553 1.6166 6.16639C1.57212 6.27747 1.55173 6.39674 1.55677 6.51629H1.54478ZM2.83706 1.87788C2.83051 1.52074 2.93043 1.16973 3.12408 0.869583C3.31774 0.569433 3.59635 0.333726 3.92445 0.192493C4.25254 0.0512602 4.61525 0.0108949 4.96637 0.07654C5.31748 0.142185 5.6411 0.310868 5.89601 0.561099C6.15091 0.81133 6.32555 1.13178 6.39768 1.48162C6.46981 1.83146 6.43617 2.19486 6.30103 2.52551C6.16589 2.85616 5.93539 3.13909 5.63887 3.33826C5.34235 3.53744 4.99326 3.64383 4.63606 3.64389C4.39907 3.65744 4.16186 3.6213 3.93966 3.53779C3.71747 3.45428 3.51518 3.32523 3.34579 3.15895C3.1764 2.99266 3.04364 2.79279 2.95603 2.57218C2.86842 2.35157 2.8279 2.11507 2.83706 1.87788ZM3.45171 1.87788C3.45171 2.19596 3.57807 2.50101 3.80299 2.72593C4.02791 2.95085 4.33296 3.07721 4.65104 3.07721C4.96913 3.07721 5.27418 2.95085 5.4991 2.72593C5.72402 2.50101 5.85038 2.19596 5.85038 1.87788C5.85038 1.55979 5.72402 1.25474 5.4991 1.02982C5.27418 0.804905 4.96913 0.678546 4.65104 0.678546C4.33296 0.678546 4.02791 0.804905 3.80299 1.02982C3.57807 1.25474 3.45171 1.55979 3.45171 1.87788ZM0.783203 24.2244H1.28692V26.4192H1.76665V23.7927H0.783203V24.2244ZM1.43084 3.55994H2.0455V0.189819H0.783203V0.744509H1.43084V3.55994ZM23.8703 11.8143C23.821 11.7786 23.7597 11.7636 23.6994 11.7724C23.6712 11.7764 23.6441 11.7862 23.6199 11.8011C23.5956 11.8161 23.5747 11.8359 23.5585 11.8593C23.5248 11.9048 23.5103 11.9617 23.5181 12.0178C23.526 12.0739 23.5556 12.1247 23.6005 12.1591C23.6391 12.1863 23.6852 12.201 23.7324 12.2011C23.7654 12.2005 23.798 12.193 23.8279 12.179C23.8579 12.1651 23.8846 12.145 23.9063 12.1202C23.9252 12.0979 23.9394 12.0722 23.9481 12.0444C23.9569 12.0165 23.96 11.9873 23.9573 11.9583C23.9486 11.899 23.9174 11.8453 23.8703 11.8083V11.8143ZM20.2723 14.135C20.2408 14.135 20.2096 14.142 20.1811 14.1555C20.1526 14.1689 20.1274 14.1886 20.1074 14.213C20.0879 14.2353 20.0735 14.2617 20.0652 14.2902C20.0569 14.3186 20.055 14.3486 20.0595 14.3779C20.0666 14.4336 20.0936 14.4848 20.1355 14.5222C20.1773 14.5597 20.2312 14.5808 20.2873 14.5818C20.3436 14.5768 20.3962 14.5515 20.4354 14.5108C20.4745 14.47 20.4975 14.4164 20.5002 14.3599C20.5019 14.3293 20.4969 14.2986 20.4855 14.2701C20.4741 14.2416 20.4566 14.216 20.4342 14.195C20.4125 14.1731 20.3861 14.1564 20.3571 14.146C20.328 14.1356 20.297 14.1319 20.2663 14.135H20.2723ZM22.3652 11.0138C22.3232 10.9937 22.2761 10.9872 22.2302 10.9951C22.1844 11.0029 22.1421 11.0248 22.1092 11.0577C22.0764 11.0906 22.0545 11.1328 22.0466 11.1787C22.0388 11.2245 22.0453 11.2717 22.0653 11.3136C22.0763 11.3396 22.0926 11.3629 22.1133 11.382C22.134 11.4012 22.1585 11.4157 22.1853 11.4246C22.2127 11.4365 22.2423 11.4426 22.2722 11.4425C22.3145 11.4424 22.3559 11.4302 22.3915 11.4074C22.4271 11.3846 22.4554 11.352 22.4731 11.3136C22.485 11.2862 22.4911 11.2566 22.4911 11.2267C22.4911 11.1968 22.485 11.1672 22.4731 11.1397C22.4628 11.1112 22.4465 11.0852 22.4253 11.0634C22.4041 11.0417 22.3785 11.0248 22.3502 11.0138H22.3652ZM7.14566 1.87788C7.13911 1.52074 7.23902 1.16973 7.43268 0.869583C7.62633 0.569433 7.90495 0.333726 8.23304 0.192493C8.56114 0.0512602 8.92384 0.0108949 9.27495 0.07654C9.62607 0.142185 9.94971 0.310868 10.2046 0.561099C10.4595 0.81133 10.6341 1.13178 10.7063 1.48162C10.7784 1.83146 10.7448 2.19486 10.6096 2.52551C10.4745 2.85616 10.244 3.13909 9.94746 3.33826C9.65094 3.53744 9.30185 3.64383 8.94465 3.64389C8.70778 3.65698 8.47078 3.62052 8.24879 3.53684C8.0268 3.45316 7.82471 3.3241 7.65541 3.15791C7.48612 2.99172 7.35334 2.79204 7.26557 2.57164C7.1778 2.35124 7.13696 2.11495 7.14566 1.87788ZM7.76331 1.87788C7.76331 2.19596 7.88967 2.50101 8.11459 2.72593C8.3395 2.95085 8.64456 3.07721 8.96264 3.07721C9.28072 3.07721 9.58578 2.95085 9.8107 2.72593C10.0356 2.50101 10.162 2.19596 10.162 1.87788C10.162 1.55979 10.0356 1.25474 9.8107 1.02982C9.58578 0.804905 9.28072 0.678546 8.96264 0.678546C8.64456 0.678546 8.3395 0.804905 8.11459 1.02982C7.88967 1.25474 7.76331 1.55979 7.76331 1.87788ZM23.0728 11.3856C23.0471 11.3696 23.0185 11.359 22.9886 11.3544C22.9587 11.3497 22.9282 11.3512 22.8989 11.3586C22.8706 11.3655 22.8441 11.3784 22.8214 11.3966C22.7986 11.4147 22.78 11.4375 22.7669 11.4635C22.7404 11.5143 22.7338 11.5731 22.7482 11.6285C22.7626 11.6839 22.797 11.7319 22.8449 11.7634C22.8786 11.7829 22.9169 11.7933 22.9558 11.7933C23.0051 11.7946 23.0534 11.7794 23.0931 11.7502C23.1328 11.7209 23.1616 11.6793 23.175 11.6319C23.1884 11.5844 23.1857 11.5339 23.1671 11.4882C23.1486 11.4425 23.1154 11.4043 23.0728 11.3796V11.3856ZM8.89667 4.96016L10.6057 8.98392H9.82616L9.55032 8.35127H6.80684L6.53099 8.98392H5.73944L7.49946 4.96016H8.89667ZM9.25347 7.69763L8.40795 5.61679H7.9492L7.08569 7.69163L9.25347 7.69763ZM15.6399 12.9597C15.6096 12.9632 15.5803 12.973 15.5539 12.9885C15.5276 13.004 15.5048 13.0248 15.487 13.0496C15.4682 13.0735 15.4545 13.101 15.4468 13.1304C15.439 13.1598 15.4374 13.1905 15.442 13.2206C15.4469 13.2492 15.4577 13.2765 15.4737 13.3008C15.4897 13.325 15.5106 13.3457 15.535 13.3615C15.5819 13.3924 15.6387 13.4046 15.6942 13.3957C15.7497 13.3869 15.7999 13.3575 15.8348 13.3135C15.8661 13.2669 15.8788 13.2103 15.8705 13.1549C15.8621 13.0994 15.8334 13.049 15.7898 13.0137C15.7673 12.9956 15.7413 12.9823 15.7135 12.9745C15.6857 12.9668 15.6565 12.9648 15.6279 12.9687L15.6399 12.9597ZM20.824 12.8338H20.857C20.9095 12.8329 20.9601 12.8135 20.9996 12.7789C21.0391 12.7443 21.0651 12.6968 21.0729 12.6449C21.0782 12.6169 21.0778 12.5881 21.0716 12.5602C21.0654 12.5324 21.0536 12.5061 21.0369 12.483C21.0193 12.4577 20.9966 12.4364 20.9702 12.4204C20.9439 12.4044 20.9145 12.394 20.884 12.39C20.8548 12.3844 20.8248 12.385 20.7959 12.3918C20.767 12.3985 20.7398 12.4111 20.7161 12.429C20.6917 12.4487 20.6716 12.4733 20.6572 12.5012C20.6428 12.529 20.6342 12.5596 20.6321 12.5909C20.6284 12.648 20.6459 12.7044 20.6814 12.7493C20.7168 12.7941 20.7676 12.8242 20.824 12.8338ZM16.3505 16.2339H16.3715C16.4281 16.2364 16.4836 16.2172 16.5265 16.1802C16.5694 16.1432 16.5965 16.0911 16.6022 16.0347C16.608 15.9784 16.592 15.9219 16.5574 15.877C16.5229 15.8321 16.4724 15.802 16.4165 15.7931C16.3887 15.7872 16.36 15.7871 16.3321 15.7927C16.3042 15.7984 16.2779 15.8098 16.2546 15.8261C16.2037 15.8624 16.1692 15.9174 16.1586 15.979C16.1536 16.0095 16.155 16.0408 16.1627 16.0707C16.1705 16.1007 16.1844 16.1287 16.2036 16.1529C16.221 16.1761 16.243 16.1952 16.2684 16.2092C16.2937 16.2232 16.3217 16.2316 16.3505 16.2339ZM18.4763 19.6879C18.4962 19.6909 18.5164 19.6909 18.5363 19.6879C18.5787 19.6891 18.6204 19.6777 18.6562 19.655C18.6801 19.64 18.7006 19.6203 18.7166 19.5971C18.7326 19.5739 18.7437 19.5477 18.7492 19.52C18.7605 19.4641 18.7505 19.406 18.7211 19.3572C18.6916 19.3083 18.645 19.2723 18.5903 19.2562C18.5351 19.2436 18.4772 19.252 18.4279 19.2797C18.3786 19.3074 18.3413 19.3524 18.3234 19.4061C18.3108 19.4328 18.3043 19.462 18.3043 19.4916C18.3043 19.5211 18.3108 19.5503 18.3234 19.577C18.3378 19.6032 18.3575 19.6261 18.3812 19.6441C18.405 19.6622 18.4323 19.6751 18.4613 19.6819L18.4763 19.6879ZM16.9862 18.1318C16.9548 18.0839 16.9065 18.0496 16.8509 18.0357C16.7953 18.0218 16.7366 18.0294 16.6863 18.0569C16.6609 18.0699 16.6384 18.0881 16.6203 18.1103C16.6023 18.1325 16.589 18.1582 16.5814 18.1858C16.5738 18.2161 16.5723 18.2476 16.5769 18.2784C16.5816 18.3093 16.5922 18.339 16.6084 18.3657C16.6235 18.3924 16.6442 18.4156 16.669 18.4337C16.6938 18.4518 16.7222 18.4644 16.7523 18.4706H16.7973C16.8423 18.4715 16.8865 18.4578 16.9232 18.4316C16.969 18.3984 17.0011 18.3496 17.0132 18.2943C17.0254 18.239 17.0168 18.1812 16.9892 18.1318H16.9862ZM16.4825 15.4633H16.5484C16.6008 15.465 16.6521 15.448 16.6932 15.4155C16.7343 15.383 16.7625 15.337 16.7729 15.2856C16.7833 15.2343 16.7752 15.1809 16.7501 15.1349C16.7249 15.089 16.6843 15.0534 16.6354 15.0345C16.6088 15.0235 16.5802 15.0178 16.5514 15.0178C16.5226 15.0178 16.4941 15.0235 16.4674 15.0345C16.4387 15.0464 16.4128 15.0643 16.3916 15.0871C16.3703 15.1098 16.3543 15.1369 16.3445 15.1665C16.3326 15.1944 16.3264 15.2245 16.3264 15.2549C16.3264 15.2853 16.3326 15.3154 16.3445 15.3434C16.3569 15.3696 16.3749 15.3928 16.3972 15.4115C16.4194 15.4301 16.4454 15.4437 16.4734 15.4513L16.4825 15.4633ZM16.9682 18.7165C16.9706 18.7759 16.9965 18.832 17.0401 18.8724C17.0831 18.9107 17.1385 18.932 17.1961 18.9324C17.2244 18.9306 17.252 18.9231 17.2773 18.9102C17.3026 18.8973 17.3249 18.8793 17.343 18.8574C17.3665 18.8302 17.383 18.7976 17.3912 18.7626C17.3993 18.7276 17.3988 18.6911 17.3897 18.6563C17.3806 18.6215 17.3631 18.5894 17.3389 18.5628C17.3146 18.5363 17.2843 18.516 17.2505 18.5038C17.2166 18.4915 17.1803 18.4877 17.1447 18.4926C17.1091 18.4975 17.0752 18.511 17.0459 18.532C17.0166 18.5529 16.9929 18.5806 16.9768 18.6128C16.9606 18.6449 16.9525 18.6805 16.9532 18.7165H16.9682ZM16.6534 17.4632C16.6348 17.4095 16.5968 17.3646 16.5469 17.3374C16.497 17.3102 16.4387 17.3027 16.3835 17.3163C16.3256 17.332 16.2762 17.3696 16.2456 17.4212C16.2159 17.4775 16.2094 17.5431 16.2276 17.6041C16.2497 17.6632 16.2938 17.7115 16.3505 17.739C16.3791 17.7508 16.4096 17.7569 16.4405 17.757C16.4661 17.7629 16.4928 17.7629 16.5184 17.757C16.5724 17.7367 16.6164 17.6964 16.6416 17.6445C16.6667 17.5926 16.6709 17.5331 16.6534 17.4782V17.4632ZM16.7433 14.7467C16.7765 14.7644 16.8136 14.7736 16.8512 14.7737C16.8998 14.7745 16.9474 14.7593 16.9865 14.7304C17.0256 14.7016 17.0542 14.6607 17.0678 14.614C17.0814 14.5674 17.0794 14.5175 17.0619 14.4721C17.0444 14.4268 17.0126 14.3884 16.9712 14.3629C16.9476 14.3462 16.9205 14.3348 16.8921 14.3296C16.8636 14.3244 16.8343 14.3256 16.8063 14.3329C16.7763 14.3395 16.7481 14.3523 16.7233 14.3703C16.6986 14.3884 16.6778 14.4114 16.6623 14.4379C16.6463 14.4641 16.6356 14.4932 16.631 14.5236C16.6264 14.554 16.6279 14.585 16.6354 14.6148C16.6433 14.643 16.657 14.6693 16.6756 14.692C16.6941 14.7147 16.7172 14.7333 16.7433 14.7467ZM17.6758 19.3731C17.7078 19.3944 17.7453 19.4058 17.7837 19.4061C17.8046 19.409 17.8258 19.409 17.8467 19.4061C17.8883 19.3938 17.9253 19.3695 17.9533 19.3364C17.9812 19.3032 17.9988 19.2626 18.0039 19.2195C18.009 19.1764 18.0014 19.1328 17.982 19.0941C17.9625 19.0553 17.9322 19.023 17.8947 19.0013C17.8449 18.9716 17.7855 18.9628 17.7293 18.9768C17.6731 18.9909 17.6247 19.0267 17.5948 19.0763C17.579 19.0998 17.5682 19.1263 17.563 19.1541C17.5579 19.182 17.5585 19.2106 17.5648 19.2382C17.5805 19.2985 17.6193 19.3502 17.6728 19.3821L17.6758 19.3731ZM21.4926 12.9957C21.5164 13 21.5408 13 21.5646 12.9957C21.6102 12.9946 21.6545 12.9801 21.6918 12.954C21.7292 12.9279 21.7579 12.8912 21.7745 12.8488C21.7855 12.8222 21.7912 12.7936 21.7912 12.7648C21.7912 12.736 21.7855 12.7075 21.7745 12.6809C21.7619 12.6526 21.7437 12.6271 21.721 12.606C21.6984 12.5849 21.6717 12.5685 21.6426 12.5579C21.6156 12.5461 21.5865 12.54 21.5571 12.54C21.5277 12.54 21.4986 12.5461 21.4717 12.5579C21.4438 12.5725 21.4191 12.5924 21.399 12.6166C21.3789 12.6408 21.3639 12.6688 21.3547 12.6988C21.34 12.7537 21.3463 12.8121 21.3723 12.8626C21.3984 12.913 21.4424 12.952 21.4956 12.9717L21.4926 12.9957ZM22.1703 13.2715C22.2027 13.2914 22.2401 13.3018 22.2782 13.3015C22.3171 13.3011 22.3553 13.2911 22.3893 13.2722C22.4234 13.2534 22.4522 13.2263 22.4731 13.1936C22.5029 13.1441 22.5126 13.0851 22.5001 13.0287C22.4844 12.9684 22.4457 12.9166 22.3921 12.8847C22.3672 12.8683 22.339 12.8576 22.3094 12.8535C22.2798 12.8493 22.2497 12.8518 22.2212 12.8608C22.1918 12.8695 22.1643 12.884 22.1406 12.9036C22.1169 12.9232 22.0974 12.9474 22.0833 12.9747C22.0562 13.0262 22.0501 13.0862 22.0663 13.1422C22.0825 13.1981 22.1198 13.2455 22.1703 13.2745V13.2715ZM17.1661 14.0841C17.2102 14.1168 17.2644 14.1329 17.3193 14.1296C17.3741 14.1263 17.426 14.1038 17.4659 14.0661C17.5022 14.0246 17.5222 13.9713 17.5222 13.9162C17.5222 13.861 17.5022 13.8078 17.4659 13.7662C17.4457 13.7465 17.4218 13.731 17.3955 13.7207C17.3693 13.7104 17.3412 13.7055 17.313 13.7063C17.2821 13.707 17.2518 13.714 17.2236 13.7267C17.1955 13.7394 17.1702 13.7576 17.1493 13.7802C17.1283 13.8029 17.1121 13.8295 17.1016 13.8585C17.0911 13.8875 17.0865 13.9183 17.0881 13.9491C17.0904 13.9784 17.0988 14.0069 17.1127 14.0327C17.1266 14.0585 17.1458 14.0811 17.1691 14.0991L17.1661 14.0841ZM20.0445 12.8158C20.1023 12.8119 20.1563 12.7856 20.1949 12.7425C20.2336 12.6993 20.2538 12.6428 20.2514 12.5849C20.2516 12.5562 20.2458 12.5278 20.2344 12.5015C20.2231 12.4752 20.2064 12.4515 20.1854 12.432C20.1623 12.4111 20.1353 12.3951 20.106 12.3848C20.0766 12.3745 20.0455 12.3702 20.0145 12.372C19.9841 12.3723 19.9542 12.3791 19.9268 12.3921C19.8994 12.405 19.8751 12.4237 19.8556 12.447C19.8361 12.4693 19.8217 12.4957 19.8134 12.5241C19.8051 12.5526 19.8031 12.5826 19.8076 12.6119C19.8142 12.6678 19.841 12.7194 19.8829 12.757C19.9249 12.7945 19.9792 12.8154 20.0355 12.8158H20.0445ZM17.8797 13.6253C17.9274 13.6256 17.9739 13.6097 18.0116 13.5804C18.0546 13.5446 18.0829 13.4943 18.0912 13.439C18.0995 13.3837 18.0872 13.3273 18.0566 13.2805C18.0404 13.2568 18.0195 13.2366 17.9953 13.2211C17.9711 13.2057 17.944 13.1953 17.9156 13.1906C17.8851 13.1861 17.854 13.1877 17.8241 13.1955C17.7943 13.2032 17.7662 13.2168 17.7417 13.2355C17.717 13.2535 17.6963 13.2763 17.6808 13.3026C17.6653 13.3289 17.6555 13.3582 17.6518 13.3885C17.6473 13.4173 17.6494 13.4468 17.6576 13.4748C17.6659 13.5028 17.6803 13.5286 17.6998 13.5504C17.7219 13.5765 17.7494 13.5976 17.7805 13.6121C17.8116 13.6266 17.8454 13.6342 17.8797 13.6343V13.6253ZM21.0489 14.27C21.0179 14.2611 20.9854 14.2587 20.9535 14.2628C20.9215 14.2669 20.8907 14.2775 20.863 14.294C20.8383 14.3083 20.817 14.3278 20.8005 14.3511C20.7839 14.3743 20.7725 14.4009 20.7671 14.4289C20.7529 14.4837 20.7602 14.5419 20.7875 14.5915C20.8148 14.6411 20.8601 14.6784 20.914 14.6957C20.9367 14.7003 20.9602 14.7003 20.9829 14.6957C21.0284 14.6943 21.0725 14.6797 21.1098 14.6536C21.1471 14.6275 21.1759 14.5911 21.1928 14.5488C21.2039 14.5233 21.2096 14.4957 21.2096 14.4679C21.2096 14.44 21.2039 14.4125 21.1928 14.3869C21.18 14.357 21.1612 14.3301 21.1375 14.3079C21.1137 14.2857 21.0856 14.2687 21.0549 14.258L21.0489 14.27ZM18.5483 13.2146C18.5805 13.2148 18.6123 13.2076 18.6412 13.1936C18.6938 13.1665 18.7339 13.1203 18.7535 13.0646C18.773 13.0088 18.7704 12.9476 18.7462 12.8937C18.7351 12.867 18.7184 12.843 18.6972 12.8233C18.676 12.8037 18.6507 12.7888 18.6232 12.7798C18.5949 12.7672 18.5643 12.7607 18.5333 12.7607C18.5023 12.7607 18.4717 12.7672 18.4434 12.7798C18.4155 12.7928 18.3906 12.8115 18.3705 12.8348C18.3504 12.858 18.3353 12.8853 18.3264 12.9147C18.3173 12.9419 18.3142 12.9707 18.3173 12.9992C18.3204 13.0276 18.3296 13.0551 18.3444 13.0796C18.3643 13.1165 18.3937 13.1474 18.4295 13.169C18.4654 13.1906 18.5064 13.2022 18.5483 13.2026V13.2146ZM26.167 16.4827C26.1628 16.453 26.1527 16.4244 26.1372 16.3987C26.1218 16.3729 26.1013 16.3505 26.0771 16.3328C26.0542 16.3156 26.028 16.3033 26.0002 16.2966C25.9723 16.2899 25.9434 16.2889 25.9152 16.2938C25.858 16.302 25.8064 16.3324 25.7716 16.3785C25.7368 16.4245 25.7216 16.4825 25.7293 16.5397C25.7383 16.5864 25.7613 16.6293 25.7953 16.6626C25.8183 16.6865 25.8464 16.7049 25.8776 16.7163C25.9088 16.7278 25.9421 16.732 25.9752 16.7286C26.0042 16.7269 26.0326 16.7191 26.0584 16.7056C26.0843 16.6922 26.107 16.6735 26.1251 16.6506C26.143 16.6269 26.1559 16.5998 26.1631 16.5709C26.1703 16.5421 26.1717 16.5121 26.167 16.4827ZM25.5314 18.9653C25.4773 18.9426 25.4167 18.9407 25.3613 18.9601C25.3059 18.9795 25.2597 19.0188 25.2316 19.0703C25.2157 19.1061 25.2085 19.1451 25.2106 19.1842C25.2137 19.2227 25.2266 19.2597 25.2481 19.2918C25.2696 19.3238 25.299 19.3498 25.3335 19.3671C25.3601 19.3782 25.3887 19.3839 25.4175 19.3839C25.4463 19.3839 25.4748 19.3782 25.5014 19.3671C25.5594 19.3464 25.6076 19.3047 25.6363 19.2502C25.6481 19.2222 25.6542 19.1921 25.6542 19.1617C25.6542 19.1314 25.6481 19.1013 25.6363 19.0733C25.6273 19.0458 25.6125 19.0206 25.5928 18.9994C25.5731 18.9782 25.5491 18.9614 25.5224 18.9504L25.5314 18.9653ZM25.1656 19.7599C25.1162 19.7311 25.0577 19.7223 25.002 19.7351C24.9464 19.7479 24.8976 19.7814 24.8658 19.8289C24.8415 19.8694 24.8309 19.9168 24.8358 19.9638C24.8385 19.9968 24.8482 20.0288 24.8642 20.0577C24.8803 20.0867 24.9023 20.1119 24.9287 20.1317C24.9523 20.1482 24.9789 20.1597 25.007 20.1654C25.0352 20.1712 25.0642 20.1711 25.0923 20.1652C25.1204 20.1593 25.147 20.1477 25.1704 20.1311C25.1939 20.1145 25.2137 20.0933 25.2286 20.0687C25.245 20.0433 25.2562 20.0147 25.2613 19.9848C25.2665 19.955 25.2655 19.9243 25.2585 19.8948C25.2524 19.8667 25.2404 19.8402 25.2233 19.8169C25.2063 19.7937 25.1846 19.7743 25.1596 19.7599H25.1656ZM25.1596 24.6112C25.1596 23.9935 24.6649 23.7117 23.9783 23.7117C23.756 23.7058 23.5348 23.7456 23.3285 23.8287C23.1222 23.9117 22.9352 24.0362 22.7789 24.1944L23.0788 24.4943C23.1969 24.3772 23.3374 24.2852 23.492 24.2239C23.6466 24.1626 23.812 24.1332 23.9783 24.1375C24.467 24.1375 24.7069 24.3054 24.7069 24.5902C24.7049 24.6752 24.6788 24.7578 24.6315 24.8285C24.5843 24.8991 24.5178 24.9548 24.44 24.989L22.8539 25.8885V26.3772H25.1716V25.9455H23.6125L24.7428 25.3128C24.8838 25.2497 25.0042 25.1482 25.0901 25.0199C25.176 24.8915 25.224 24.7416 25.2286 24.5872L25.1596 24.6112ZM26.0261 17.3103C26.0033 17.2929 25.9771 17.2805 25.9493 17.2738C25.9214 17.2671 25.8924 17.2662 25.8642 17.2713C25.836 17.2753 25.8089 17.2849 25.7844 17.2995C25.7599 17.314 25.7386 17.3333 25.7216 17.3561C25.7046 17.379 25.6923 17.405 25.6854 17.4326C25.6785 17.4603 25.6771 17.489 25.6813 17.5172C25.6881 17.564 25.7102 17.6072 25.7443 17.6401C25.768 17.6639 25.7967 17.6821 25.8283 17.6936C25.86 17.705 25.8937 17.7092 25.9272 17.7061C25.9566 17.7012 25.9847 17.6901 26.0095 17.6736C26.0343 17.657 26.0553 17.6354 26.0711 17.6101C26.089 17.5864 26.1019 17.5593 26.1091 17.5304C26.1163 17.5016 26.1177 17.4716 26.1131 17.4422C26.1096 17.4123 26.0997 17.3834 26.0842 17.3576C26.0687 17.3317 26.0479 17.3095 26.0231 17.2923L26.0261 17.3103ZM16.2036 16.9475C16.2431 16.9805 16.293 16.9986 16.3445 16.9984H16.3715C16.4283 16.9911 16.4805 16.9634 16.5184 16.9205C16.5573 16.8769 16.5778 16.8199 16.5754 16.7616C16.5695 16.7043 16.5427 16.6512 16.5001 16.6125C16.4575 16.5738 16.4021 16.5521 16.3445 16.5517C16.3163 16.5517 16.2885 16.5576 16.2626 16.569C16.2368 16.5803 16.2137 16.5969 16.1946 16.6177C16.1734 16.6406 16.1568 16.6675 16.146 16.6968C16.1352 16.7261 16.1303 16.7573 16.1316 16.7886C16.1342 16.8503 16.1612 16.9085 16.2066 16.9505L16.2036 16.9475ZM22.9708 13.7483C23.0018 13.7483 23.0324 13.7419 23.0608 13.7295C23.0892 13.7171 23.1147 13.699 23.1357 13.6763C23.1562 13.656 23.1721 13.6316 23.1824 13.6048C23.1928 13.5779 23.1973 13.5491 23.1957 13.5204C23.1923 13.458 23.1656 13.3991 23.1207 13.3555C23.0989 13.3358 23.0733 13.3208 23.0454 13.3116C23.0176 13.3023 22.9881 13.2988 22.9588 13.3015C22.9274 13.3032 22.8968 13.3116 22.8689 13.3261C22.8409 13.3406 22.8164 13.3608 22.7969 13.3855C22.7646 13.4305 22.7498 13.4858 22.7553 13.541C22.7608 13.5962 22.7863 13.6475 22.8269 13.6853C22.8663 13.7208 22.9177 13.7401 22.9708 13.7393V13.7483ZM22.2692 24.6172C22.2692 23.9995 21.7775 23.7177 21.0879 23.7177C20.8656 23.7122 20.6446 23.7521 20.4383 23.8352C20.2321 23.9182 20.045 24.0425 19.8885 24.2004L20.1884 24.5003C20.3069 24.3837 20.4475 24.2921 20.602 24.2308C20.7565 24.1696 20.9217 24.1398 21.0879 24.1435C21.5766 24.1435 21.8135 24.3114 21.8135 24.5962C21.8123 24.6814 21.7864 24.7643 21.7391 24.8351C21.6917 24.9059 21.6249 24.9614 21.5466 24.995L19.9605 25.8945V26.3832H22.2212V25.9515H20.6741L21.8045 25.3188C21.9447 25.255 22.0642 25.1532 22.1495 25.025C22.2349 24.8968 22.2826 24.7472 22.2872 24.5932L22.2692 24.6172ZM25.8552 18.2008C25.8271 18.1917 25.7973 18.1887 25.7679 18.1918C25.7384 18.1949 25.71 18.2041 25.6843 18.2188C25.6364 18.2479 25.6011 18.2939 25.5854 18.3477C25.5811 18.3765 25.5811 18.4058 25.5854 18.4346C25.5896 18.4768 25.6056 18.5168 25.6316 18.5503C25.6576 18.5837 25.6925 18.6091 25.7323 18.6235C25.7597 18.6354 25.7893 18.6416 25.8192 18.6416C25.8491 18.6416 25.8787 18.6354 25.9062 18.6235C25.9468 18.6038 25.9805 18.5721 26.0027 18.5327C26.0248 18.4933 26.0344 18.4481 26.0302 18.4031C26.0259 18.3581 26.0081 18.3155 25.9789 18.281C25.9498 18.2464 25.9108 18.2216 25.8672 18.2098L25.8552 18.2008ZM15.1692 16.4108C15.1733 17.6475 14.7719 18.8514 14.0265 19.8382C13.2811 20.825 12.2327 21.5402 11.042 21.8743C9.85124 22.2084 8.58383 22.1429 7.43387 21.6879C6.28391 21.2329 5.31482 20.4135 4.67504 19.3551C4.62406 19.2742 4.57609 19.1872 4.52811 19.1003C4.10345 18.3183 3.86985 17.4469 3.8464 16.5574C3.82295 15.6679 4.01032 14.7854 4.39319 13.9821C4.43517 13.8952 4.47714 13.8112 4.52212 13.7303C4.62546 13.5384 4.74061 13.3532 4.86692 13.1756C4.93289 13.0796 5.00185 12.9867 5.07681 12.8937C5.8066 11.9747 6.80425 11.3054 7.93146 10.9788C9.05867 10.6521 10.2596 10.6843 11.3677 11.0708C12.4758 11.4573 13.4362 12.179 14.1157 13.1358C14.7953 14.0926 15.1603 15.2372 15.1602 16.4108H15.1692ZM14.8603 16.4108C14.8608 15.2105 14.4568 14.0451 13.7137 13.1026C12.9705 12.16 11.9315 11.4953 10.7643 11.2157C9.59703 10.9361 8.36962 11.0579 7.28008 11.5615C6.19054 12.065 5.30242 12.9209 4.75899 13.9911C4.71401 14.0811 4.67203 14.171 4.63305 14.255C4.49107 14.574 4.38157 14.9065 4.30624 15.2474C4.27925 15.3764 4.25527 15.4843 4.24027 15.5892C4.19822 15.8611 4.17717 16.1357 4.17731 16.4108C4.17849 16.7897 4.21868 17.1675 4.29724 17.5381C4.32123 17.6431 4.34822 17.751 4.3812 17.868C4.47359 18.1901 4.59502 18.5032 4.74399 18.8034C4.78897 18.8904 4.83994 18.9803 4.89091 19.0703C5.47715 20.0899 6.38363 20.8875 7.46961 21.3392C8.55559 21.7909 9.76031 21.8714 10.8967 21.5682C12.0332 21.2651 13.0377 20.5952 13.7544 19.6626C14.4711 18.7301 14.8599 17.5869 14.8603 16.4108ZM24.0922 21.1121C24.0681 21.0968 24.0411 21.0863 24.0129 21.0815C23.9846 21.0766 23.9558 21.0774 23.9279 21.0839C23.9 21.0903 23.8736 21.1022 23.8503 21.1189C23.8271 21.1356 23.8074 21.1567 23.7924 21.1811C23.7666 21.2211 23.755 21.2686 23.7594 21.316C23.7625 21.3492 23.7726 21.3814 23.7892 21.4104C23.8057 21.4393 23.8283 21.4644 23.8553 21.4839C23.879 21.5007 23.9058 21.5125 23.9341 21.5187C23.9625 21.5249 23.9917 21.5253 24.0202 21.5199C24.0496 21.5138 24.0773 21.5016 24.1016 21.484C24.1259 21.4664 24.1462 21.4439 24.1612 21.418C24.193 21.3671 24.2038 21.3058 24.1911 21.2471C24.1765 21.1912 24.1411 21.143 24.0922 21.1121ZM13.1153 18.7315C13.1225 18.7723 13.1212 18.8141 13.1113 18.8544C13.1015 18.8946 13.0835 18.9324 13.0583 18.9653C13.0476 18.9828 13.0318 18.9964 13.013 19.0045C12.9942 19.0126 12.9734 19.0146 12.9534 19.0103C12.9114 19.0103 12.8995 18.9653 12.8875 18.9264C12.8785 18.8788 12.8785 18.83 12.8875 18.7825C12.9111 18.5875 12.8723 18.3902 12.7765 18.2188C12.7052 18.0621 12.6833 17.8875 12.7136 17.718C12.725 17.6209 12.7118 17.5225 12.6751 17.4318C12.6384 17.3411 12.5794 17.2612 12.5037 17.1993C12.4168 17.12 12.3366 17.0338 12.2638 16.9415C12.2356 16.9076 12.2146 16.8683 12.2022 16.826C12.1898 16.7837 12.1863 16.7393 12.1918 16.6956C12.198 16.6067 12.1748 16.5182 12.1259 16.4438C12.1144 16.4248 12.0991 16.4085 12.0809 16.3958C12.0627 16.3832 12.0421 16.3744 12.0204 16.3702C11.9987 16.366 11.9763 16.3663 11.9547 16.3712C11.9331 16.3762 11.9128 16.3855 11.895 16.3988C11.8817 16.4067 11.871 16.4183 11.8641 16.4321C11.8572 16.4459 11.8544 16.4614 11.856 16.4767C11.865 16.5444 11.8571 16.6131 11.833 16.6769C11.8089 16.7408 11.7695 16.7977 11.7181 16.8425C11.6102 16.9445 11.6252 17.0464 11.7361 17.1424L11.7661 17.1693C11.8443 17.2199 11.9034 17.2952 11.9338 17.3833C11.9642 17.4713 11.9643 17.567 11.934 17.6551C11.9162 17.7298 11.9062 17.8062 11.904 17.883C11.894 17.9796 11.8542 18.0708 11.7901 18.1438C11.6867 18.2959 11.6219 18.4708 11.6012 18.6535C11.5778 18.785 11.5437 18.9144 11.4992 19.0403C11.4928 19.0577 11.4827 19.0735 11.4697 19.0868C11.4567 19.1 11.4411 19.1104 11.4239 19.1171C11.4066 19.1239 11.3881 19.127 11.3696 19.1262C11.351 19.1253 11.3329 19.1206 11.3163 19.1123C11.2474 19.0853 11.2294 19.0283 11.2684 18.9474C11.3114 18.8529 11.3647 18.7634 11.4273 18.6805C11.4749 18.603 11.4999 18.5136 11.4992 18.4227C11.5046 18.3826 11.5147 18.3434 11.5292 18.3057C11.6042 18.0926 11.6585 17.8727 11.6911 17.6491C11.6974 17.6092 11.6957 17.5685 11.6859 17.5293C11.6761 17.4902 11.6585 17.4534 11.6341 17.4212C11.6094 17.3936 11.5891 17.3622 11.5742 17.3283C11.4835 17.1435 11.3652 16.9736 11.2234 16.8245C11.2075 16.7976 11.1846 16.7756 11.1571 16.7608C11.1297 16.746 11.0987 16.739 11.0675 16.7406C11.0075 16.7406 10.9325 16.8665 10.9235 16.9505C10.9198 17.0033 10.9269 17.0564 10.9445 17.1064C10.966 17.1757 10.9801 17.247 10.9865 17.3193C10.9953 17.3711 10.9886 17.4243 10.9673 17.4723C10.9459 17.5203 10.9109 17.5609 10.8666 17.5891C10.6071 17.7891 10.3926 18.0414 10.2369 18.3297C10.1788 18.4381 10.1072 18.5389 10.024 18.6295C9.99057 18.6711 9.97257 18.7231 9.97308 18.7765C9.97308 18.8784 9.94009 18.9054 9.85914 18.9054C9.77818 18.9054 9.7452 18.8694 9.77818 18.7854C9.85452 18.6183 9.94479 18.4578 10.048 18.3057C10.2154 18.0661 10.4009 17.8395 10.6027 17.6281C10.6729 17.5656 10.7198 17.4811 10.7356 17.3885C10.7514 17.2958 10.7352 17.2006 10.6897 17.1184C10.6378 17.0426 10.5663 16.9825 10.4828 16.9445C10.3868 16.8875 10.2849 16.8365 10.183 16.7856C10.1583 16.7749 10.1359 16.7596 10.117 16.7406C10.0923 16.7033 10.056 16.6752 10.0138 16.6606C9.9715 16.6459 9.9256 16.6456 9.88313 16.6596C9.88313 16.6596 9.85015 16.6596 9.84415 16.6416C9.83928 16.6307 9.83841 16.6184 9.8417 16.6069C9.84499 16.5954 9.85222 16.5854 9.86214 16.5787C9.89812 16.5517 9.9371 16.5307 9.97608 16.5037C10.0151 16.4767 10.024 16.4737 10.0121 16.4408C10.0069 16.4268 9.99745 16.4149 9.98503 16.4068C9.9726 16.3987 9.9579 16.3949 9.9431 16.3958C9.88529 16.3931 9.8277 16.4044 9.7752 16.4288C9.62639 16.5085 9.46341 16.5584 9.29545 16.5757C9.27444 16.5796 9.2548 16.5889 9.23848 16.6027C9.15473 16.6599 9.06406 16.7062 8.96864 16.7406C8.9181 16.756 8.87336 16.7863 8.84021 16.8275C8.80707 16.8686 8.78705 16.9188 8.78275 16.9715C8.71279 17.3422 8.66374 17.7166 8.63582 18.0928C8.62523 18.2709 8.59812 18.4475 8.55486 18.6205C8.54708 18.6493 8.53706 18.6773 8.52489 18.7045C8.5099 18.7375 8.4949 18.7705 8.44993 18.7615C8.40495 18.7525 8.42295 18.7075 8.42295 18.6775C8.43747 18.4298 8.46852 18.1834 8.51589 17.9399C8.56087 17.6641 8.64482 17.3972 8.6808 17.1184C8.71078 16.9115 8.6658 16.8695 8.46192 16.9175C8.44736 16.9207 8.43453 16.9293 8.42594 16.9415C8.39633 16.9788 8.35757 17.0077 8.31344 17.0256C8.2693 17.0435 8.22129 17.0496 8.17408 17.0434C8.09961 17.0343 8.02405 17.0441 7.95436 17.0718C7.88466 17.0996 7.82309 17.1445 7.77531 17.2023C7.69993 17.2776 7.61155 17.3385 7.51444 17.3822C7.44902 17.4171 7.39369 17.4683 7.35378 17.5308C7.31386 17.5933 7.29072 17.665 7.28658 17.739C7.27111 17.9764 7.2903 18.2148 7.34355 18.4466C7.38421 18.6448 7.41423 18.845 7.43349 19.0463C7.43349 19.1452 7.37053 19.1782 7.28658 19.1333C7.25493 19.1133 7.22912 19.0853 7.21175 19.0521C7.19438 19.0189 7.18605 18.9818 7.18763 18.9444C7.18763 18.8214 7.17264 18.7015 7.18763 18.5816C7.19107 18.3462 7.15458 18.1121 7.07969 17.8889C7.05011 17.7919 7.04193 17.6896 7.0557 17.5891C7.07112 17.4984 7.12043 17.417 7.19363 17.3612C7.2435 17.3199 7.28695 17.2714 7.32256 17.2173C7.32256 17.1933 7.34355 17.1753 7.30757 17.1544C7.27159 17.1334 7.2416 17.0704 7.20262 17.0614C7.16365 17.0524 7.13666 17.1214 7.09468 17.1394C6.96971 17.1861 6.8517 17.2497 6.74388 17.3283C6.66855 17.39 6.60618 17.466 6.56038 17.5519C6.51458 17.6379 6.48625 17.732 6.47703 17.829C6.46203 18.0586 6.46203 18.289 6.47703 18.5186C6.46407 18.6588 6.44204 18.798 6.41106 18.9354C6.40964 18.949 6.40541 18.9622 6.39864 18.9741C6.39186 18.986 6.38268 18.9963 6.37169 19.0045C6.3607 19.0127 6.34813 19.0185 6.33478 19.0216C6.32142 19.0246 6.30759 19.0249 6.29413 19.0223C6.23117 19.0223 6.21617 18.9653 6.21617 18.9114C6.21207 18.8629 6.21715 18.8141 6.23116 18.7675C6.2924 18.5594 6.30775 18.3404 6.27614 18.1258C6.2555 17.9602 6.27167 17.7922 6.3235 17.6336C6.37533 17.475 6.46154 17.3298 6.57597 17.2083C6.66694 17.1142 6.76742 17.0298 6.87581 16.9565C6.94777 16.9085 6.93877 16.8695 6.8938 16.8155C6.83765 16.7614 6.79724 16.693 6.77686 16.6177C6.74905 16.4975 6.75236 16.3722 6.78647 16.2536C6.82057 16.135 6.88433 16.0271 6.97175 15.94C7.03471 15.8771 7.10368 15.8231 7.16665 15.7601C7.20919 15.707 7.23844 15.6444 7.252 15.5777C7.26555 15.5109 7.26302 15.4419 7.2446 15.3764C7.24178 15.3732 7.23833 15.3706 7.23445 15.3689C7.23057 15.3671 7.22637 15.3662 7.22211 15.3662C7.21786 15.3662 7.21365 15.3671 7.20977 15.3689C7.20589 15.3706 7.20244 15.3732 7.19962 15.3764C7.16301 15.3837 7.1253 15.3837 7.08869 15.3764C7.05795 15.373 7.02686 15.3767 6.99771 15.3869C6.96855 15.3972 6.94207 15.4139 6.92021 15.4358C6.89835 15.4576 6.88168 15.4841 6.8714 15.5132C6.86112 15.5424 6.8575 15.5735 6.86081 15.6042C6.86518 15.6411 6.86518 15.6783 6.86081 15.7152C6.85844 15.7263 6.85375 15.7369 6.84702 15.7461C6.84029 15.7553 6.8317 15.763 6.82178 15.7687C6.81188 15.7743 6.80088 15.7778 6.78952 15.7789C6.77816 15.7801 6.76669 15.7788 6.75587 15.7751C6.7049 15.7751 6.69291 15.7332 6.69591 15.6852C6.70143 15.6246 6.72318 15.5666 6.75887 15.5173C6.77986 15.4843 6.80085 15.4543 6.81884 15.4213C6.82839 15.4096 6.83504 15.3959 6.83826 15.3811C6.84149 15.3664 6.84119 15.3511 6.8374 15.3365C6.8336 15.3219 6.82641 15.3084 6.81641 15.2971C6.80642 15.2858 6.79389 15.277 6.77986 15.2714C6.71741 15.237 6.66682 15.1845 6.63472 15.1208C6.60262 15.0572 6.5905 14.9853 6.59996 14.9146C6.60592 14.891 6.60592 14.8663 6.59996 14.8426C6.56698 14.7617 6.59996 14.7317 6.67792 14.7107L6.77686 14.6777C6.90579 14.6328 6.91778 14.6148 6.8818 14.4828C6.8818 14.4439 6.86381 14.4049 6.91778 14.3959C6.97175 14.3869 7.00474 14.3959 7.01673 14.4499C7.0181 14.4628 7.0181 14.4759 7.01673 14.4888C7.01673 14.5248 7.03471 14.5368 7.0677 14.5368C7.13967 14.5391 7.2104 14.5563 7.27541 14.5872C7.34043 14.6182 7.39834 14.6623 7.44549 14.7167L7.49946 14.7677C7.52044 14.7677 7.54143 14.7917 7.54743 14.7497C7.55343 14.7077 7.54743 14.6927 7.56242 14.6657C7.57741 14.6388 7.58341 14.6238 7.61039 14.6208C7.63738 14.6178 7.64937 14.6208 7.66436 14.6538C7.67407 14.6717 7.67916 14.6918 7.67916 14.7122C7.67916 14.7326 7.67407 14.7527 7.66436 14.7707C7.64337 14.8247 7.66437 14.8546 7.70934 14.8726C7.76774 14.8943 7.81588 14.9371 7.84426 14.9926C7.86579 14.9499 7.87611 14.9024 7.87425 14.8546C7.87425 14.8337 7.87425 14.7887 7.91023 14.7977C7.94621 14.8067 7.99119 14.7977 7.99119 14.8546C7.99735 14.8893 7.99735 14.9249 7.99119 14.9596C7.98385 14.9772 7.98006 14.996 7.98006 15.0151C7.98006 15.0341 7.98385 15.0529 7.99119 15.0705C8.02117 15.1275 8.06015 15.1065 8.09313 15.0705C8.12273 15.0353 8.13869 14.9906 8.1381 14.9446C8.1381 14.8816 8.16509 14.8426 8.24304 14.8486C8.34519 14.8383 8.4458 14.8161 8.54288 14.7827C8.58785 14.7827 8.56686 14.7287 8.56386 14.6987C8.55323 14.6575 8.5566 14.614 8.57342 14.5749C8.59025 14.5358 8.61958 14.5034 8.65682 14.4828C8.68302 14.4693 8.71264 14.4638 8.74198 14.467C8.77131 14.4702 8.79904 14.4819 8.82171 14.5008C8.89067 14.5548 8.88169 14.6268 8.87269 14.6987C8.86683 14.7219 8.85774 14.7441 8.8457 14.7647C8.80672 14.8516 8.81873 14.8756 8.91167 14.8996C8.94581 14.9094 8.98161 14.9118 9.01676 14.9068C9.0519 14.9018 9.08558 14.8894 9.1156 14.8704C9.14561 14.8514 9.17127 14.8263 9.1909 14.7967C9.21053 14.7672 9.22368 14.7338 9.2295 14.6987C9.34044 14.138 9.48134 13.5863 9.61027 13.0317C9.65225 12.8428 9.69724 12.6539 9.73621 12.465C9.75121 12.396 9.78717 12.378 9.85314 12.399C9.81549 12.5154 9.79431 12.6365 9.79018 12.7588C9.78802 12.7935 9.79628 12.828 9.81392 12.8579C9.83155 12.8879 9.85776 12.9118 9.88913 12.9267C10.0478 13.0011 10.2135 13.0594 10.3838 13.1006C10.658 13.1624 10.917 13.2786 11.1454 13.4424C11.1634 13.4424 11.2084 13.4694 11.1814 13.4964C11.1544 13.5234 11.1304 13.5684 11.0765 13.5294C11.0225 13.4904 10.8906 13.4124 10.7946 13.3585C10.7313 13.3247 10.6637 13.2995 10.5937 13.2835C10.582 13.2783 10.5693 13.2759 10.5565 13.2763C10.5436 13.2768 10.5311 13.2802 10.5198 13.2863C10.5085 13.2924 10.4988 13.301 10.4913 13.3114C10.4839 13.3218 10.4789 13.3338 10.4768 13.3465C10.4445 13.4533 10.4313 13.5649 10.4378 13.6763C10.4378 13.7243 10.4738 13.7393 10.5068 13.7543C10.6225 13.7952 10.742 13.8243 10.8636 13.8412C10.8936 13.8412 10.9325 13.8412 10.9355 13.9012C10.9385 13.9611 10.9355 14.0031 10.8486 13.9851C10.7278 13.9525 10.6111 13.9062 10.5008 13.8472C10.4826 13.8397 10.463 13.836 10.4432 13.8366C10.4235 13.8371 10.4042 13.8417 10.3864 13.8502C10.3685 13.8587 10.3527 13.8708 10.3399 13.8858C10.3271 13.9008 10.3175 13.9183 10.3119 13.9372C10.2965 14.0215 10.2855 14.1065 10.2789 14.192C10.2789 14.225 10.2999 14.237 10.3239 14.252C10.4328 14.3249 10.5568 14.3721 10.6867 14.3899C10.7137 14.3899 10.7616 14.3899 10.7556 14.4439C10.7496 14.4978 10.7377 14.5128 10.6867 14.5008C10.5318 14.4733 10.3827 14.4196 10.2459 14.3419C10.0872 14.2446 9.90917 14.1832 9.72421 14.162C9.66093 14.1504 9.60011 14.1281 9.54432 14.0961C9.46636 14.0511 9.45737 14.0511 9.43938 14.138C9.39741 14.3509 9.35541 14.5638 9.31044 14.7797C9.26546 14.9956 9.2175 15.2324 9.17253 15.4603C9.17253 15.5083 9.14554 15.5682 9.17253 15.6042C9.19951 15.6402 9.27746 15.6042 9.33143 15.6042C9.64787 15.475 9.98289 15.397 10.3239 15.3734C10.687 15.3553 11.044 15.4729 11.3253 15.7032C11.4994 15.8368 11.6538 15.9942 11.7841 16.1709C11.814 16.2129 11.847 16.2399 11.898 16.2159C11.949 16.1919 11.922 16.2159 11.931 16.2159C12.1319 16.1709 12.1948 16.2159 12.2698 16.4198C12.2869 16.4759 12.301 16.533 12.3118 16.5907C12.3599 16.7733 12.4729 16.9321 12.6296 17.0374C12.6984 17.0932 12.7616 17.1554 12.8185 17.2233C12.8604 17.2635 12.8906 17.3142 12.9059 17.3702C12.9212 17.4262 12.9211 17.4853 12.9054 17.5411C12.8638 17.7425 12.8847 17.9517 12.9654 18.1408C13.0447 18.3339 13.1031 18.5349 13.1393 18.7405L13.1153 18.7315ZM7.16364 15.2114C7.10951 15.0824 7.01192 14.9763 6.88779 14.9116C6.81583 14.8936 6.74088 14.8846 6.66892 14.8696C6.59696 14.8546 6.61495 14.8696 6.60296 14.9056C6.58836 14.9715 6.59867 15.0404 6.63189 15.0991C6.66511 15.1578 6.7189 15.2021 6.78286 15.2234C6.80685 15.2234 6.82183 15.2234 6.83383 15.1994C6.83878 15.1898 6.84668 15.182 6.85639 15.1771C6.8661 15.1723 6.8771 15.1706 6.88779 15.1725C6.91478 15.1725 6.88779 15.2084 6.88779 15.2324C6.86381 15.3104 6.92078 15.3284 6.97775 15.3374C7.03472 15.3464 7.15765 15.2744 7.15465 15.2174L7.16364 15.2114ZM8.37497 15.0016C8.35303 14.9824 8.32632 14.9695 8.29765 14.9642C8.26899 14.9589 8.23943 14.9615 8.21211 14.9716C8.18478 14.9818 8.16069 14.9991 8.14239 15.0218C8.12409 15.0445 8.11225 15.0717 8.10812 15.1005C8.09398 15.1756 8.08795 15.252 8.09013 15.3284C8.09013 15.3913 8.09013 15.4333 8.09013 15.4783C8.08745 15.5088 8.09478 15.5393 8.11101 15.5653C8.12724 15.5913 8.15148 15.6113 8.18007 15.6222C8.24903 15.6582 8.26403 15.6492 8.26703 15.5682C8.27003 15.4873 8.26703 15.4423 8.29102 15.3973C8.35189 15.3169 8.39019 15.2217 8.40196 15.1215C8.4087 15.1009 8.40974 15.0789 8.40499 15.0578C8.40024 15.0367 8.38987 15.0173 8.37497 15.0016ZM9.0406 15.1964C9.0406 15.1485 9.06458 15.0735 8.98063 15.0405C8.92445 15.0183 8.86186 15.0187 8.80597 15.0417C8.75008 15.0646 8.70523 15.1082 8.6808 15.1635C8.6374 15.2732 8.61601 15.3903 8.61784 15.5083C8.61784 15.5922 8.6838 15.6372 8.75876 15.6642C8.83372 15.6912 8.8517 15.6372 8.88168 15.5922C8.88702 15.5829 8.89415 15.5748 8.90267 15.5682C8.95657 15.5237 8.99833 15.4663 9.02402 15.4013C9.04971 15.3363 9.0585 15.2658 9.04959 15.1964H9.0406ZM24.7608 20.4975C24.7114 20.4687 24.653 20.4599 24.5973 20.4727C24.5416 20.4855 24.4929 20.519 24.461 20.5665C24.438 20.6075 24.4276 20.6544 24.431 20.7014C24.4337 20.7347 24.4437 20.767 24.4603 20.796C24.4769 20.825 24.4996 20.85 24.527 20.8693C24.5503 20.8867 24.5771 20.8989 24.6055 20.9051C24.634 20.9114 24.6634 20.9114 24.6919 20.9053C24.7211 20.899 24.7488 20.8868 24.7732 20.8695C24.7977 20.8522 24.8183 20.8302 24.834 20.8047C24.8497 20.7792 24.8601 20.7508 24.8645 20.7212C24.8689 20.6916 24.8673 20.6614 24.8598 20.6324C24.8536 20.6047 24.8419 20.5784 24.8255 20.5552C24.809 20.5321 24.788 20.5124 24.7638 20.4975H24.7608ZM24.437 19.9338L24.41 19.9758C23.898 20.7255 23.221 21.3479 22.4311 21.7954C21.6411 22.2429 20.7592 22.5036 19.8529 22.5574C18.9467 22.6113 18.0401 22.4569 17.2027 22.106C16.3654 21.7552 15.6195 21.2173 15.0223 20.5335C14.8541 20.3442 14.6989 20.1439 14.5575 19.9338C13.9946 20.7606 13.2381 21.4374 12.3539 21.9051C11.4697 22.3728 10.4846 22.6173 9.48435 22.6173C9.18844 22.6161 8.89295 22.595 8.59985 22.5543H8.57886H8.4979H8.44393H8.37796C7.03739 22.3138 5.81663 21.6295 4.9119 20.6114L4.82495 20.5095C4.78298 20.4615 4.74399 20.4165 4.70501 20.3656L4.64205 20.2876C4.62344 20.2659 4.6064 20.2428 4.59107 20.2186C4.46662 20.0557 4.35054 19.8866 4.24328 19.7119C4.18631 19.619 4.13534 19.529 4.08437 19.4331C3.85609 19.0151 3.67891 18.5711 3.55666 18.1108V22.6413H0.885145V15.8501L0.945115 15.8021C1.20665 15.4811 1.34945 15.0798 1.34945 14.6657C1.34945 14.2517 1.20665 13.8504 0.945115 13.5294L0.885145 13.4814V10.2492H3.55066V13.4814L3.49069 13.5294C3.34964 13.6813 3.24121 13.8605 3.17211 14.056C3.10301 14.2514 3.0747 14.4589 3.08892 14.6657C3.07671 15.0308 3.18179 15.3902 3.38875 15.6912C3.38875 15.6132 3.40973 15.5353 3.42173 15.4573C3.46031 15.214 3.51541 14.9736 3.58664 14.7377L3.61363 14.6418C3.63461 14.5758 3.6556 14.5098 3.67959 14.4469C3.70358 14.3839 3.71557 14.3389 3.73656 14.288C3.75755 14.237 3.76654 14.207 3.78453 14.168C3.80252 14.129 3.78453 14.168 3.78453 14.168L3.82951 14.0631C3.86249 13.9851 3.89847 13.9072 3.93445 13.8292C3.97043 13.7513 4.0244 13.6463 4.07237 13.5564C4.16532 13.3885 4.26726 13.2206 4.3722 13.0556L4.44116 12.9537L4.59107 12.7468L4.66903 12.6479L4.72001 12.5849C5.71358 11.3615 7.14106 10.5688 8.70479 10.3721H8.77975C9.01066 10.3455 9.24293 10.3325 9.47536 10.3332C10.6361 10.3342 11.7729 10.6636 12.7545 11.2833C13.736 11.903 14.5222 12.7877 15.0223 13.8352C15.0246 13.8082 15.0317 13.7818 15.0432 13.7573C15.0739 13.7032 15.1245 13.6634 15.1842 13.6463C15.2421 13.6316 15.3035 13.6402 15.3551 13.6703C15.3804 13.6844 15.4027 13.7033 15.4206 13.726C15.4386 13.7487 15.4519 13.7748 15.4597 13.8027C15.4675 13.8306 15.4697 13.8597 15.4661 13.8885C15.4626 13.9172 15.4534 13.945 15.439 13.9701C15.4274 13.9953 15.4108 14.0179 15.3902 14.0365C15.3696 14.055 15.3454 14.0692 15.3191 14.0781C15.2942 14.0809 15.269 14.0809 15.2441 14.0781C15.2098 14.0776 15.1759 14.0694 15.1452 14.0541H15.1182C15.2782 14.4227 15.4008 14.8064 15.484 15.1994C15.5546 14.9551 15.6438 14.7165 15.7509 14.4858C16.0557 13.8252 16.4996 13.2382 17.0521 12.7648C17.6027 12.2885 18.2504 11.9376 18.9501 11.7364C19.6505 11.5373 20.3851 11.4882 21.1059 11.5925C21.8268 11.6967 22.5164 11.9565 23.1267 12.354C23.5161 12.6032 23.8683 12.906 24.1732 13.2535L24.2091 13.3015L24.2271 13.3195C25.0157 14.291 25.3695 15.3853 25.3695 16.8605C25.3451 17.9573 25.0183 19.026 24.425 19.9488L24.437 19.9338ZM1.19697 12.7888H3.22684V10.567H1.19697V12.7888ZM3.22684 13.0317H1.19697V13.3105H3.22684V13.0317ZM2.76509 14.6897C2.75421 14.2891 2.85825 13.8937 3.06493 13.5504H1.36488C1.56142 13.8979 1.66471 14.2904 1.66471 14.6897C1.66471 15.089 1.56142 15.4815 1.36488 15.8291H3.07692C2.87025 15.4857 2.7662 15.0904 2.77709 14.6897H2.76509ZM3.23883 21.6908H1.20896V22.2905H3.23883V21.6908ZM3.23883 21.0282H1.20896V21.448H3.23883V21.0282ZM3.23883 16.072H1.20896V20.7853H3.23883V16.072ZM15.3131 16.4767C15.3138 15.1897 14.8883 13.9387 14.103 12.919C13.3177 11.8993 12.2169 11.1684 10.9724 10.8403C9.72791 10.5122 8.4098 10.6055 7.2239 11.1055C6.03799 11.6056 5.05105 12.4842 4.41718 13.6043C4.3752 13.6823 4.33322 13.7573 4.29424 13.8382C4.16798 14.0828 4.05976 14.3364 3.97043 14.5968C3.93445 14.7017 3.90146 14.8127 3.87148 14.9206C3.55793 16.0456 3.59137 17.239 3.96743 18.3447C4.0064 18.4586 4.04838 18.5696 4.09036 18.6715C4.19065 18.9216 4.30889 19.1641 4.44416 19.3971C4.49213 19.4751 4.5401 19.553 4.59107 19.631C5.27263 20.6881 6.27801 21.4962 7.4569 21.9346C8.63579 22.3729 9.9249 22.418 11.1315 22.063C12.3382 21.708 13.3975 20.9721 14.1512 19.9652C14.9049 18.9583 15.3125 17.7345 15.3131 16.4767ZM25.0517 16.8605C25.0517 15.5143 24.7518 14.5038 24.0532 13.6163C23.3026 12.6928 22.2325 12.085 21.0549 11.9133C20.8255 11.8808 20.594 11.8648 20.3623 11.8653C19.9151 11.864 19.47 11.9256 19.04 12.0482C18.386 12.2361 17.7805 12.5635 17.265 13.0077C16.7477 13.4509 16.3316 14 16.0447 14.6178C15.798 15.1533 15.6517 15.7295 15.6129 16.3178C15.6129 16.3688 15.6129 16.4198 15.6129 16.4737C15.6129 16.5277 15.6129 16.6506 15.6129 16.7376C15.6213 17.0232 15.6625 17.3069 15.7359 17.5831C15.7663 17.7129 15.8064 17.8401 15.8558 17.9639L15.8918 18.0658C15.8918 18.1078 15.9248 18.1438 15.9398 18.1798L15.9967 18.2937L16.0297 18.3627C16.0531 18.4155 16.0801 18.4666 16.1107 18.5156L16.2456 18.7345C16.2735 18.7805 16.3046 18.8246 16.3385 18.8664L16.3925 18.9384C16.4621 19.0372 16.5393 19.1304 16.6234 19.2172L16.7223 19.3251L16.8393 19.4331L16.9052 19.496L17.0012 19.58C17.0198 19.5976 17.0399 19.6137 17.0611 19.628L17.304 19.8109L17.6248 20.0088L17.9666 20.1707L18.3234 20.3026L18.6892 20.3986L19.064 20.4555H19.142L19.4418 20.4735C19.7776 20.4733 20.112 20.431 20.4372 20.3476C20.5676 20.3158 20.6958 20.2757 20.821 20.2276L20.923 20.1887C20.9613 20.176 20.9984 20.1599 21.0339 20.1407L21.1509 20.0867L21.2198 20.0537C21.2727 20.0294 21.3238 20.0013 21.3727 19.9698L21.5916 19.8379C21.6366 19.8109 21.6785 19.7779 21.7235 19.7449C21.7473 19.7252 21.7723 19.7072 21.7985 19.6909C21.895 19.6197 21.9871 19.5426 22.0743 19.4601C22.1103 19.4271 22.1463 19.3911 22.1853 19.3611C22.2225 19.3243 22.2576 19.2852 22.2902 19.2442C22.3142 19.2232 22.3322 19.1992 22.3562 19.1752L22.4401 19.0823L22.4881 19.0193L22.5181 18.9833L22.671 18.7795L22.7519 18.6445L22.8689 18.4556L23.0338 18.1108L23.1657 17.754L23.2587 17.3882L23.3186 17.0104C23.3186 16.9865 23.3186 16.9595 23.3186 16.9325L23.3366 16.6326C23.3368 16.2984 23.2831 15.9664 23.1777 15.6492C23.1777 15.6222 23.1567 15.5922 23.1447 15.5622C23.1294 15.5129 23.1103 15.4648 23.0878 15.4183L22.9798 15.1875L22.8479 14.9716C22.8209 14.9296 22.7879 14.8876 22.758 14.8456L22.701 14.7707C22.494 14.5067 22.2448 14.2787 21.9634 14.0961L21.8854 14.0481C21.8405 14.0211 21.7955 13.9941 21.7475 13.9701L21.5196 13.8592L21.2828 13.7722C21.2348 13.7543 21.1838 13.7423 21.1329 13.7273L21.0399 13.7063C20.7139 13.6306 20.3778 13.6073 20.0445 13.6373C19.7097 13.6737 19.3833 13.766 19.079 13.9102C18.7735 14.0513 18.4945 14.244 18.2545 14.4798C18.011 14.7157 17.8084 14.9902 17.6548 15.2924C17.4988 15.593 17.3973 15.9189 17.355 16.2549C17.3519 16.2948 17.3519 16.3349 17.355 16.3748V16.5067C17.3564 16.5217 17.3564 16.5367 17.355 16.5517C17.355 16.5787 17.355 16.6057 17.355 16.6297V16.7556C17.3563 16.811 17.3624 16.8661 17.3729 16.9205C17.3729 16.9475 17.3729 16.9775 17.3879 17.0044C17.4029 17.0314 17.4119 17.1124 17.4239 17.1693C17.4323 17.1939 17.4393 17.219 17.4449 17.2443C17.5473 17.5602 17.7206 17.8484 17.9516 18.0868C18.1849 18.3234 18.4704 18.5021 18.7852 18.6085C19.2611 18.77 19.7792 18.7553 20.2453 18.5671C20.7113 18.379 21.0943 18.0298 21.3247 17.5831C21.4784 17.2864 21.5605 16.9578 21.5646 16.6237C21.567 16.4638 21.5379 16.305 21.4789 16.1564C21.4199 16.0078 21.3322 15.8723 21.2208 15.7576C21.1095 15.6429 20.9766 15.5512 20.8298 15.4879C20.683 15.4245 20.5251 15.3907 20.3653 15.3883H20.3443C20.0247 15.3897 19.7182 15.5156 19.4898 15.7391C19.2508 15.9694 19.1101 16.2831 19.097 16.6147V16.6596H18.9531V16.6147C18.947 16.4264 18.9786 16.2388 19.046 16.063C19.1121 15.8869 19.2142 15.7265 19.3459 15.5922C19.4793 15.4563 19.6384 15.3482 19.8139 15.2741C19.9894 15.2 20.1778 15.1613 20.3683 15.1605C20.5592 15.1616 20.748 15.2006 20.9239 15.275C21.0997 15.3494 21.2591 15.4579 21.3929 15.5942C21.5267 15.7304 21.6322 15.8918 21.7033 16.069C21.7745 16.2462 21.8099 16.4357 21.8075 16.6267C21.8038 16.9968 21.7145 17.3611 21.5466 17.6911C21.3772 18.0209 21.1315 18.3056 20.83 18.5216C20.5275 18.7382 20.1782 18.8805 19.8104 18.9367C19.4425 18.993 19.0667 18.9617 18.7132 18.8454C18.3608 18.726 18.0407 18.527 17.7777 18.2637C17.5189 17.996 17.3241 17.6731 17.208 17.3193L17.1901 17.2413C17.1721 17.1783 17.1541 17.1154 17.1421 17.0494C17.1301 16.9835 17.1421 16.9924 17.1421 16.9625C17.1288 16.8993 17.1218 16.8351 17.1211 16.7706V16.6356C17.1211 16.6057 17.1211 16.5727 17.1211 16.5427C17.1196 16.5277 17.1196 16.5127 17.1211 16.4977V16.3628C17.1165 16.3159 17.1165 16.2687 17.1211 16.2219C17.1596 15.8593 17.261 15.5062 17.4209 15.1785C17.5804 14.8449 17.7954 14.5407 18.0566 14.279C18.3174 14.019 18.6219 13.8069 18.9561 13.6523C19.2868 13.4948 19.6415 13.3935 20.0055 13.3525C20.3708 13.3191 20.7391 13.3434 21.0969 13.4244L21.1898 13.4484C21.2489 13.4602 21.307 13.4762 21.3637 13.4964L21.6186 13.5893L21.8674 13.7093C21.9214 13.7363 21.9754 13.7692 22.0264 13.7992C22.0512 13.817 22.0773 13.833 22.1043 13.8472C22.4138 14.0456 22.6884 14.2938 22.9169 14.5818C23.1319 14.8516 23.3002 15.1557 23.4146 15.4813C23.5429 15.8556 23.6068 16.249 23.6035 16.6446C23.6122 17.0113 23.5657 17.3772 23.4656 17.73L23.4356 17.844L23.2946 18.2278L23.1178 18.5966L22.9978 18.7974L22.9049 18.9474L22.716 19.2052L22.659 19.2772L22.5661 19.3791L22.5031 19.4481C22.4641 19.4901 22.4251 19.535 22.3832 19.577L22.2722 19.6789C22.1784 19.7708 22.0782 19.856 21.9724 19.9338L21.9004 19.9908C21.8525 20.0238 21.8045 20.0627 21.7535 20.0927L21.5226 20.2336C21.466 20.2697 21.4069 20.3017 21.3457 20.3296L21.2798 20.3626L21.1568 20.4195C21.1155 20.442 21.0724 20.461 21.0279 20.4765L20.932 20.5125C20.7944 20.5673 20.6531 20.6124 20.5092 20.6474C20.1576 20.7384 19.796 20.7848 19.4328 20.7853L19.109 20.7703H19.022L18.6173 20.7104L18.2215 20.6084L17.8347 20.4705L17.4629 20.2906L17.265 20.1707L17.1121 20.0777L16.8932 19.9128L16.8542 19.8858L16.7823 19.8289L16.6803 19.7389L16.6114 19.676L16.4825 19.553L16.3805 19.4421C16.2877 19.3483 16.2015 19.2481 16.1227 19.1423C16.1227 19.1183 16.0867 19.0913 16.0687 19.0673C16.0507 19.0433 15.9967 18.9713 15.9637 18.9204L15.8228 18.6895C15.7877 18.6328 15.7567 18.5737 15.7299 18.5126C15.7299 18.4916 15.7089 18.4676 15.6969 18.4466L15.6369 18.3237C15.6189 18.2817 15.5979 18.2398 15.583 18.1948L15.544 18.0958C15.514 18.0119 15.484 17.9309 15.457 17.844C15.389 18.1506 15.2968 18.4514 15.1812 18.7435C15.2134 18.7481 15.2443 18.7596 15.2717 18.7772C15.2991 18.7948 15.3224 18.8181 15.3401 18.8454C15.369 18.8953 15.3774 18.9546 15.3634 19.0105C15.3494 19.0665 15.3142 19.1148 15.2651 19.1452C15.2318 19.1687 15.192 19.1813 15.1512 19.1812H15.1032C15.0703 19.173 15.0396 19.1577 15.0133 19.1363V19.1183C14.9096 19.3322 14.7945 19.5404 14.6684 19.7419L14.6865 19.7179C14.8423 19.9535 15.0157 20.177 15.2052 20.3866C15.4355 20.6388 15.6873 20.8705 15.9577 21.0792C16.2276 21.2892 16.5155 21.4748 16.8183 21.6339C17.4231 21.9526 18.0819 22.1559 18.7612 22.2335C19.4385 22.3152 20.1251 22.2746 20.788 22.1136C22.195 21.7701 23.4157 20.8983 24.1971 19.6789V19.661C24.7116 18.8236 24.9931 17.8641 25.0127 16.8815L25.0517 16.8605ZM19.2919 12.9837H19.3459C19.4014 12.9669 19.4486 12.9298 19.4781 12.8798C19.5075 12.8298 19.517 12.7706 19.5048 12.7138C19.4918 12.6572 19.4574 12.6078 19.4088 12.5759C19.3822 12.5595 19.3524 12.5488 19.3214 12.5447C19.2904 12.5405 19.2589 12.543 19.2289 12.5519C19.1991 12.5589 19.1712 12.5721 19.1469 12.5907C19.1226 12.6094 19.1025 12.6329 19.088 12.6599C19.0737 12.6852 19.0649 12.7132 19.0623 12.7422C19.0597 12.7712 19.0634 12.8003 19.073 12.8278C19.088 12.8742 19.1172 12.9148 19.1564 12.9439C19.1957 12.9729 19.2431 12.9889 19.2919 12.9897V12.9837ZM19.2619 19.8529C19.318 19.8513 19.3714 19.8288 19.4118 19.7899C19.4327 19.768 19.4491 19.7421 19.4599 19.7138C19.4707 19.6855 19.4758 19.6553 19.4748 19.625C19.4726 19.5692 19.4494 19.5164 19.41 19.4769C19.3705 19.4375 19.3176 19.4143 19.2619 19.4121C19.205 19.4112 19.15 19.4322 19.1082 19.4707C19.0663 19.5092 19.0408 19.5623 19.037 19.619C19.0337 19.6761 19.0531 19.7321 19.091 19.7749C19.1114 19.7981 19.1362 19.8169 19.1641 19.8303C19.1919 19.8437 19.2221 19.8513 19.2529 19.8529H19.2619ZM23.4865 14.4199C23.5238 14.4176 23.56 14.4066 23.5923 14.3879C23.6245 14.3692 23.652 14.3432 23.6724 14.3119C23.6963 14.2952 23.7165 14.2738 23.7319 14.2491C23.7474 14.2243 23.7577 14.1968 23.7624 14.168C23.7705 14.1064 23.7544 14.0441 23.7174 13.9941C23.7003 13.9703 23.6783 13.9502 23.6531 13.9353C23.6278 13.9203 23.5996 13.9107 23.5705 13.9072C23.5393 13.9035 23.5078 13.9065 23.4778 13.9158C23.4479 13.9251 23.4202 13.9405 23.3966 13.9611C23.3561 13.9989 23.3304 14.0499 23.3244 14.1049C23.3183 14.16 23.3322 14.2153 23.3636 14.261C23.3844 14.2872 23.4108 14.3083 23.441 14.3229C23.4711 14.3374 23.5041 14.3449 23.5375 14.3449L23.4865 14.4199ZM19.9395 19.664C19.9727 19.6851 20.0111 19.6966 20.0505 19.6969C20.0693 19.7001 20.0886 19.7001 20.1074 19.6969C20.1374 19.6895 20.1656 19.6761 20.1903 19.6576C20.2151 19.639 20.2358 19.6157 20.2514 19.589C20.2661 19.5645 20.2754 19.537 20.2785 19.5085C20.2816 19.4801 20.2785 19.4512 20.2693 19.4241C20.2532 19.3696 20.217 19.3232 20.1681 19.2942C20.1191 19.2653 20.061 19.256 20.0055 19.2682C19.9518 19.2842 19.9058 19.3192 19.876 19.3666C19.8462 19.4141 19.8347 19.4707 19.8436 19.526C19.8484 19.5563 19.8597 19.5851 19.8768 19.6104C19.8939 19.6358 19.9163 19.6572 19.9425 19.673L19.9395 19.664ZM16.8512 20.3746C16.8024 20.3459 16.7446 20.3365 16.6892 20.3481C16.6337 20.3598 16.5846 20.3916 16.5514 20.4375C16.5338 20.4625 16.5217 20.4909 16.516 20.5209C16.5103 20.5509 16.5111 20.5818 16.5184 20.6114C16.5246 20.6396 16.5366 20.6661 16.5537 20.6893C16.5707 20.7126 16.5924 20.732 16.6174 20.7464C16.6532 20.769 16.6949 20.7805 16.7373 20.7793C16.7552 20.7823 16.7734 20.7823 16.7913 20.7793C16.8189 20.7729 16.845 20.7608 16.8677 20.7438C16.8904 20.7268 16.9093 20.7052 16.9232 20.6804C16.9532 20.631 16.9625 20.5718 16.949 20.5157C16.9355 20.4595 16.9004 20.4109 16.8512 20.3806V20.3746ZM15.9517 19.9518C15.9125 19.9941 15.891 20.05 15.8918 20.1077C15.8952 20.1684 15.922 20.2254 15.9667 20.2666C16.0077 20.3042 16.061 20.3256 16.1166 20.3266H16.1346C16.1626 20.3252 16.1899 20.3177 16.2148 20.3048C16.2396 20.2919 16.2614 20.2737 16.2786 20.2516C16.3161 20.2079 16.3352 20.1514 16.3318 20.0939C16.3284 20.0364 16.3027 19.9825 16.2603 19.9435C16.2178 19.9046 16.1619 19.8837 16.1043 19.8852C16.0468 19.8868 15.992 19.9106 15.9517 19.9518ZM17.4869 20.7284C17.4605 20.7148 17.4315 20.7067 17.4019 20.7046C17.3722 20.7026 17.3425 20.7066 17.3144 20.7164C17.2864 20.7262 17.2606 20.7416 17.2387 20.7617C17.2168 20.7818 17.1992 20.8062 17.1871 20.8333C17.1751 20.8597 17.169 20.8883 17.169 20.9173C17.169 20.9462 17.1751 20.9748 17.1871 21.0012C17.1965 21.0296 17.2118 21.0558 17.2319 21.078C17.2521 21.1002 17.2766 21.1179 17.304 21.1301C17.3316 21.1454 17.3624 21.1536 17.3939 21.1541C17.4196 21.1538 17.445 21.1487 17.4689 21.1391C17.498 21.1283 17.5245 21.1115 17.5467 21.0898C17.5689 21.0682 17.5863 21.042 17.5978 21.0132C17.6222 20.9583 17.6239 20.896 17.6025 20.8398C17.5812 20.7837 17.5386 20.7382 17.4839 20.7134L17.4869 20.7284ZM20.6831 19.4121C20.707 19.4216 20.7324 19.4267 20.7581 19.4271C20.7944 19.4267 20.8301 19.4185 20.863 19.4031C20.8888 19.3896 20.9117 19.371 20.9303 19.3485C20.9488 19.326 20.9627 19.3001 20.9711 19.2721C20.9794 19.2442 20.9822 19.2149 20.979 19.1859C20.9759 19.1569 20.9671 19.1288 20.953 19.1033C20.924 19.0528 20.8765 19.0155 20.8206 18.9993C20.7647 18.9831 20.7046 18.9892 20.6531 19.0163C20.6271 19.0296 20.6039 19.048 20.585 19.0703C20.566 19.0926 20.5517 19.1184 20.5428 19.1463C20.5338 19.1741 20.5305 19.2035 20.533 19.2327C20.5355 19.2618 20.5437 19.2902 20.5572 19.3162C20.5683 19.342 20.5847 19.3653 20.6054 19.3844C20.626 19.4035 20.6505 19.418 20.6771 19.4271L20.6831 19.4121ZM21.3667 19.0103C21.4228 19.0088 21.4763 18.9863 21.5166 18.9474C21.5398 18.927 21.5586 18.9021 21.572 18.8743C21.5854 18.8465 21.5931 18.8163 21.5946 18.7854C21.5951 18.7575 21.5898 18.7297 21.579 18.7038C21.5681 18.678 21.552 18.6548 21.5316 18.6355C21.4916 18.5977 21.4395 18.5754 21.3845 18.5726C21.3295 18.5699 21.2754 18.5869 21.2318 18.6205C21.2109 18.6397 21.194 18.6628 21.1822 18.6885C21.1704 18.7143 21.1638 18.7421 21.1628 18.7705C21.1586 18.8287 21.1772 18.8863 21.2147 18.9311C21.2522 18.9758 21.3056 19.0042 21.3637 19.0103H21.3667ZM17.9306 21.1092C17.8735 21.096 17.8135 21.1052 17.7628 21.1347C17.7121 21.1642 17.6746 21.2119 17.6578 21.2681C17.6496 21.2954 17.647 21.324 17.6501 21.3523C17.6532 21.3807 17.6619 21.4081 17.6758 21.433C17.6909 21.46 17.7115 21.4836 17.7363 21.5022C17.7611 21.5208 17.7895 21.534 17.8197 21.5409C17.8386 21.5438 17.8578 21.5438 17.8767 21.5409C17.9181 21.5425 17.959 21.5309 17.9936 21.5079C18.0183 21.4935 18.0396 21.4741 18.0561 21.4508C18.0727 21.4275 18.0841 21.401 18.0896 21.373C18.1033 21.3162 18.0945 21.2562 18.0648 21.2059C18.0351 21.1555 17.987 21.1187 17.9306 21.1032V21.1092ZM22.5691 16.6446C22.5112 16.6413 22.4543 16.6608 22.4106 16.6989C22.3668 16.737 22.3398 16.7907 22.3352 16.8485C22.33 16.9059 22.347 16.963 22.3827 17.0082C22.4184 17.0534 22.4701 17.0832 22.5271 17.0914H22.5601C22.6033 17.0903 22.6453 17.0767 22.681 17.0523C22.7168 17.0279 22.7447 16.9937 22.7614 16.9538C22.7782 16.9139 22.7831 16.87 22.7756 16.8274C22.7681 16.7848 22.7484 16.7453 22.719 16.7136C22.7002 16.692 22.6772 16.6745 22.6514 16.6621C22.6257 16.6498 22.5976 16.6428 22.5691 16.6416V16.6446ZM22.4581 17.4122C22.4321 17.4011 22.404 17.3953 22.3757 17.3953C22.3473 17.3953 22.3193 17.4011 22.2932 17.4122C22.2399 17.4351 22.1978 17.4782 22.1763 17.5321C22.1546 17.5894 22.1563 17.653 22.181 17.709C22.2056 17.7651 22.2513 17.8092 22.3082 17.832C22.3346 17.8439 22.3632 17.8501 22.3921 17.8501C22.4211 17.8501 22.4497 17.8439 22.4761 17.832C22.5325 17.8054 22.5765 17.7582 22.599 17.7001C22.6215 17.6422 22.6215 17.578 22.599 17.5202C22.5697 17.4681 22.5214 17.4294 22.4641 17.4122H22.4581ZM22.3052 16.1409C22.3169 16.1914 22.3457 16.2362 22.3867 16.2679C22.4276 16.2996 22.4783 16.3162 22.5301 16.3148H22.5601C22.5894 16.3118 22.6177 16.3025 22.6431 16.2875C22.6684 16.2725 22.6902 16.2521 22.707 16.2279C22.7254 16.2016 22.738 16.1717 22.7442 16.1402C22.7504 16.1087 22.75 16.0763 22.743 16.045C22.7351 16.0136 22.7209 15.9841 22.7013 15.9584C22.6817 15.9326 22.6571 15.9111 22.629 15.8951C22.6035 15.884 22.5759 15.8783 22.5481 15.8783C22.5202 15.8783 22.4927 15.884 22.4671 15.8951C22.4118 15.9106 22.3645 15.9464 22.3345 15.9953C22.3045 16.0442 22.294 16.1026 22.3052 16.1589V16.1409ZM22.2272 15.6162C22.2659 15.6165 22.304 15.6073 22.3382 15.5892C22.3641 15.5763 22.3871 15.5582 22.4056 15.536C22.4242 15.5139 22.438 15.4881 22.4461 15.4603C22.4538 15.4294 22.4552 15.3972 22.45 15.3658C22.4449 15.3343 22.4333 15.3042 22.4161 15.2774C22.4008 15.2502 22.3797 15.2267 22.3544 15.2086C22.329 15.1905 22.2999 15.1781 22.2692 15.1725C22.2394 15.1673 22.2088 15.1683 22.1794 15.1755C22.15 15.1827 22.1223 15.196 22.0983 15.2144C22.0529 15.2481 22.0217 15.2974 22.0106 15.3528C21.9995 15.4082 22.0094 15.4658 22.0383 15.5143C22.0584 15.5461 22.0863 15.5721 22.1194 15.59C22.1525 15.6078 22.1897 15.6169 22.2272 15.6162ZM21.9274 14.8007C21.9245 14.7702 21.9149 14.7407 21.8994 14.7142C21.8839 14.6878 21.8627 14.6651 21.8375 14.6478C21.8128 14.6283 21.7842 14.6143 21.7538 14.6065C21.7233 14.5988 21.6915 14.5975 21.6606 14.6028C21.6314 14.6073 21.6036 14.6182 21.5792 14.6348C21.5549 14.6514 21.5345 14.6732 21.5196 14.6987C21.4894 14.7459 21.4776 14.8025 21.4864 14.8578C21.4953 14.9131 21.5242 14.9632 21.5676 14.9986C21.6067 15.0249 21.6524 15.0395 21.6995 15.0405C21.7316 15.0403 21.7633 15.0335 21.7927 15.0206C21.8221 15.0077 21.8485 14.989 21.8704 14.9656C21.8914 14.9427 21.9072 14.9156 21.917 14.8862C21.9269 14.8567 21.9304 14.8256 21.9274 14.7947V14.8007ZM21.8734 18.2098C21.8425 18.2567 21.8303 18.3135 21.8392 18.369C21.8481 18.4245 21.8774 18.4747 21.9214 18.5096C21.9591 18.539 22.0056 18.5548 22.0533 18.5546H22.0863C22.1178 18.5499 22.1479 18.5386 22.1748 18.5216C22.2016 18.5046 22.2246 18.4821 22.2422 18.4556C22.2755 18.402 22.2863 18.3373 22.2722 18.2757C22.2575 18.2198 22.2222 18.1716 22.1733 18.1408C22.1244 18.111 22.066 18.1013 22.0101 18.1136C21.9542 18.1259 21.9053 18.1592 21.8734 18.2068V18.2098ZM15.6189 19.3341C15.5898 19.3304 15.5603 19.3324 15.532 19.3401C15.5037 19.3478 15.4772 19.3611 15.454 19.3791C15.4086 19.4132 15.3784 19.4638 15.3701 19.52C15.3654 19.5506 15.367 19.5817 15.3747 19.6116C15.3824 19.6415 15.3962 19.6695 15.415 19.6939C15.4538 19.7395 15.5085 19.7685 15.5679 19.7749H15.586C15.6396 19.7738 15.6913 19.7548 15.7329 19.7209C15.7751 19.6839 15.8012 19.6319 15.8057 19.5759C15.8101 19.5199 15.7926 19.4644 15.7568 19.4211C15.7405 19.3987 15.72 19.3797 15.6963 19.3653C15.6726 19.3509 15.6463 19.3413 15.6189 19.3371V19.3341ZM23.8853 18.1378C23.8537 18.1345 23.8218 18.1375 23.7914 18.1468C23.761 18.1561 23.7328 18.1714 23.7084 18.1918C23.6683 18.2299 23.6433 18.2811 23.6378 18.3361C23.6323 18.3912 23.6467 18.4463 23.6784 18.4916C23.6992 18.5178 23.7257 18.539 23.7558 18.5535C23.7859 18.568 23.8189 18.5756 23.8523 18.5756C23.9004 18.5751 23.9474 18.5605 23.9873 18.5336C24.034 18.4989 24.0652 18.4472 24.0742 18.3897C24.0835 18.3284 24.0684 18.266 24.0322 18.2158C24.0152 18.1918 23.9933 18.1717 23.968 18.1567C23.9427 18.1417 23.9145 18.1322 23.8853 18.1288V18.1378ZM23.1327 19.505C23.0885 19.4722 23.0339 19.4562 22.9789 19.4601C22.924 19.4639 22.8722 19.4873 22.8329 19.526C22.7984 19.5694 22.7812 19.6241 22.7845 19.6794C22.7878 19.7347 22.8115 19.7869 22.8509 19.8259C22.8911 19.8624 22.9435 19.8827 22.9978 19.8828C23.0281 19.8826 23.0581 19.8757 23.0855 19.8628C23.1129 19.8498 23.1372 19.8311 23.1567 19.8079C23.1774 19.7872 23.1931 19.7623 23.203 19.7348C23.2128 19.7073 23.2165 19.678 23.2137 19.649C23.2122 19.6191 23.2042 19.5899 23.1902 19.5635C23.1763 19.5371 23.1566 19.514 23.1327 19.496V19.505ZM18.6742 21.2351C18.6302 21.2302 18.5857 21.2385 18.5465 21.2591C18.5072 21.2797 18.4751 21.3116 18.4541 21.3506C18.4331 21.3896 18.4243 21.434 18.4288 21.4781C18.4333 21.5222 18.4509 21.5639 18.4793 21.5979C18.4976 21.6215 18.5207 21.6409 18.5471 21.6549C18.5734 21.6688 18.6025 21.677 18.6322 21.6788C18.6886 21.68 18.7433 21.6596 18.7852 21.6219C18.8074 21.6028 18.8255 21.5794 18.8384 21.5531C18.8513 21.5268 18.8587 21.4982 18.8601 21.469C18.8624 21.439 18.8586 21.4089 18.8488 21.3806C18.839 21.3522 18.8235 21.3262 18.8032 21.304C18.7659 21.2633 18.7143 21.2385 18.6592 21.2351H18.6742ZM23.5435 18.8604C23.494 18.8312 23.435 18.8224 23.379 18.8358C23.3231 18.8492 23.2746 18.8838 23.2437 18.9324C23.2166 18.9824 23.209 19.0407 23.2223 19.0961C23.2355 19.1514 23.2688 19.1999 23.3156 19.2322C23.3499 19.2561 23.3908 19.2686 23.4326 19.2682H23.4775C23.5069 19.2612 23.5346 19.2483 23.5588 19.2303C23.5831 19.2122 23.6034 19.1894 23.6185 19.1632C23.6346 19.1376 23.6453 19.109 23.6499 19.0791C23.6546 19.0492 23.653 19.0186 23.6454 18.9893C23.638 18.9621 23.6251 18.9366 23.6076 18.9145C23.5901 18.8923 23.5683 18.8739 23.5435 18.8604ZM23.7414 14.9626C23.7622 14.9888 23.7886 15.0099 23.8187 15.0245C23.8488 15.039 23.8819 15.0465 23.9153 15.0465C23.9634 15.046 24.0103 15.0314 24.0502 15.0046C24.097 14.9698 24.1282 14.9182 24.1372 14.8606C24.1465 14.7994 24.1314 14.737 24.0952 14.6867C24.0643 14.648 24.0208 14.6215 23.9723 14.6118C23.9407 14.6084 23.9087 14.6115 23.8783 14.6208C23.8479 14.6301 23.8197 14.6453 23.7954 14.6657C23.7553 14.7038 23.7302 14.7551 23.7247 14.8101C23.7192 14.8651 23.7336 14.9203 23.7654 14.9656L23.7414 14.9626ZM24.3021 16.5007C24.2578 16.4952 24.2129 16.5031 24.1731 16.5232C24.1332 16.5433 24.1003 16.5748 24.0784 16.6137C24.0566 16.6526 24.0468 16.6971 24.0503 16.7416C24.0538 16.7861 24.0705 16.8285 24.0982 16.8635C24.1185 16.8902 24.1449 16.9118 24.1751 16.9263C24.2053 16.9409 24.2386 16.9482 24.2721 16.9475C24.3204 16.9479 24.3675 16.9332 24.407 16.9055C24.4304 16.8885 24.4502 16.8671 24.4651 16.8424C24.48 16.8176 24.4898 16.7902 24.494 16.7616C24.4985 16.7311 24.4968 16.6999 24.4891 16.6701C24.4814 16.6402 24.4677 16.6122 24.449 16.5877C24.4321 16.5636 24.4103 16.5433 24.3849 16.5283C24.3596 16.5133 24.3313 16.5039 24.3021 16.5007ZM24.0562 15.8591C24.0764 15.886 24.1027 15.9076 24.1329 15.9222C24.1632 15.9369 24.1965 15.944 24.2301 15.943C24.2784 15.9435 24.3256 15.9288 24.365 15.9011C24.3888 15.8845 24.4088 15.8631 24.4238 15.8383C24.4388 15.8135 24.4484 15.7859 24.452 15.7571C24.4565 15.7266 24.4549 15.6955 24.4471 15.6656C24.4394 15.6358 24.4258 15.6077 24.407 15.5832C24.3729 15.5429 24.3246 15.5171 24.2721 15.5113C24.2405 15.5079 24.2086 15.511 24.1782 15.5203C24.1478 15.5296 24.1196 15.5448 24.0952 15.5652C24.0551 15.6033 24.0301 15.6546 24.0246 15.7096C24.0191 15.7646 24.0335 15.8198 24.0652 15.8651L24.0562 15.8591ZM24.2031 17.3642C24.172 17.3606 24.1404 17.3635 24.1105 17.3728C24.0805 17.3821 24.0529 17.3976 24.0292 17.4182C23.9887 17.4559 23.9631 17.507 23.957 17.562C23.951 17.617 23.9649 17.6724 23.9963 17.718C24.017 17.7442 24.0435 17.7654 24.0736 17.7799C24.1037 17.7945 24.1367 17.802 24.1702 17.802C24.2183 17.8019 24.2653 17.7872 24.3051 17.76C24.3527 17.7256 24.385 17.674 24.395 17.6161C24.4031 17.5545 24.387 17.4922 24.3501 17.4422C24.3333 17.4179 24.3115 17.3976 24.2861 17.3826C24.2608 17.3676 24.2325 17.3583 24.2031 17.3552V17.3642ZM20.1644 21.1241C20.109 21.139 20.0611 21.174 20.0301 21.2222C19.9991 21.2704 19.9871 21.3284 19.9965 21.385C20.002 21.4158 20.0139 21.445 20.0315 21.4708C20.049 21.4967 20.0718 21.5185 20.0984 21.5349C20.1317 21.5558 20.1701 21.5672 20.2094 21.5679C20.2283 21.5708 20.2475 21.5708 20.2663 21.5679C20.3266 21.5522 20.3783 21.5135 20.4103 21.46C20.4246 21.4353 20.4339 21.408 20.4375 21.3796C20.4411 21.3513 20.439 21.3225 20.4312 21.295C20.4246 21.2668 20.4123 21.2401 20.3953 21.2166C20.3782 21.1931 20.3566 21.1732 20.3317 21.1582C20.3069 21.1431 20.2793 21.1331 20.2506 21.1288C20.2219 21.1245 20.1926 21.126 20.1644 21.1331V21.1241ZM19.4328 21.2321C19.3748 21.2374 19.3209 21.2644 19.2819 21.3078C19.243 21.3512 19.2219 21.4077 19.2229 21.466C19.225 21.524 19.2498 21.5789 19.2919 21.6189C19.3345 21.6576 19.3902 21.679 19.4478 21.6788C19.4787 21.6777 19.509 21.6701 19.5369 21.6567C19.5647 21.6433 19.5895 21.6243 19.6097 21.6009C19.6281 21.579 19.6418 21.5537 19.6501 21.5264C19.6583 21.499 19.6609 21.4703 19.6577 21.442C19.651 21.3839 19.6232 21.3304 19.5794 21.2917C19.5357 21.2529 19.4792 21.2317 19.4208 21.2321H19.4328ZM21.0609 20.7673C21.0069 20.7882 20.9632 20.8294 20.9391 20.882C20.915 20.9347 20.9124 20.9947 20.932 21.0492C20.9527 21.1023 20.9922 21.146 21.0429 21.1721C21.0733 21.1851 21.1058 21.1922 21.1388 21.1931C21.1665 21.1925 21.1938 21.1874 21.2198 21.1781C21.2473 21.1691 21.2725 21.1542 21.2937 21.1346C21.3149 21.1149 21.3317 21.0909 21.3427 21.0642C21.3545 21.0362 21.3606 21.0061 21.3606 20.9757C21.3606 20.9453 21.3545 20.9153 21.3427 20.8873C21.3185 20.8363 21.2765 20.7959 21.2246 20.7738C21.1726 20.7517 21.1144 20.7494 21.0609 20.7673ZM21.7115 20.4435C21.6637 20.4749 21.6294 20.5232 21.6155 20.5788C21.6016 20.6343 21.6091 20.6931 21.6366 20.7434C21.6496 20.7688 21.6678 20.7913 21.69 20.8093C21.7122 20.8274 21.7379 20.8407 21.7655 20.8483H21.8225C21.8637 20.8477 21.9039 20.8363 21.9394 20.8153C21.9904 20.7834 22.027 20.7329 22.0413 20.6744C22.0478 20.6463 22.0484 20.6172 22.0433 20.5889C22.0381 20.5605 22.0273 20.5335 22.0114 20.5095C21.98 20.4615 21.9315 20.4274 21.8757 20.414C21.82 20.4007 21.7613 20.4091 21.7115 20.4375V20.4435ZM22.4611 19.9638C22.4061 19.9623 22.3526 19.9816 22.3112 20.0178C22.2677 20.0535 22.2398 20.1049 22.2336 20.161C22.2275 20.217 22.2435 20.2732 22.2782 20.3176C22.296 20.3412 22.3185 20.3609 22.3443 20.3754C22.3701 20.3898 22.3987 20.3987 22.4281 20.4015H22.4731C22.5247 20.4022 22.5748 20.3841 22.614 20.3506C22.6371 20.3307 22.6559 20.3064 22.6693 20.2791C22.6827 20.2518 22.6904 20.222 22.692 20.1917C22.6936 20.1632 22.6894 20.1346 22.6796 20.1078C22.6698 20.081 22.6546 20.0565 22.635 20.0357C22.6157 20.0138 22.5923 19.9959 22.566 19.983C22.5398 19.9702 22.5113 19.9626 22.4821 19.9608" fill="white"/>
</svg>
