<svg width="47" height="49" viewBox="0 0 47 49" fill="none" xmlns="http://www.w3.org/2000/svg">
<path d="M41.8079 2.18054H39.206V1.16265H45.5365V2.18054H42.9401V7.28089H41.8133L41.8079 2.18054ZM45.1936 24.928C45.1865 24.8738 45.1684 24.8217 45.1403 24.7749C45.1122 24.7281 45.0748 24.6875 45.0303 24.6558C44.9878 24.6222 44.9387 24.598 44.8861 24.5848C44.8335 24.5717 44.7788 24.5699 44.7255 24.5796C44.6217 24.594 44.5278 24.6488 44.4642 24.732C44.4068 24.816 44.3829 24.9183 44.397 25.0189C44.4111 25.1196 44.4622 25.2114 44.5404 25.2764C44.6076 25.3273 44.6901 25.3542 44.7745 25.3526C44.8355 25.3533 44.896 25.3405 44.9515 25.3151C45.007 25.2897 45.0563 25.2523 45.0956 25.2056C45.13 25.1664 45.1559 25.1206 45.1718 25.0709C45.1877 25.0213 45.1933 24.969 45.1882 24.9171L45.1936 24.928ZM13.8948 45.5199C13.8948 44.3986 12.9966 43.8869 11.7501 43.8869C11.3466 43.8762 10.9451 43.9485 10.5706 44.0993C10.1961 44.25 9.85646 44.476 9.57281 44.7633L10.1171 45.3076C10.3323 45.096 10.5876 44.9297 10.8681 44.8185C11.1486 44.7072 11.4485 44.6533 11.7501 44.6599C12.6374 44.6599 13.0728 44.9647 13.0728 45.4818C13.0693 45.636 13.0219 45.7861 12.9361 45.9143C12.8502 46.0426 12.7296 46.1436 12.5884 46.2057L9.7089 47.8387V48.726H13.8131V47.9421H10.9989L13.0511 46.7936C13.307 46.6791 13.5255 46.4948 13.6814 46.2618C13.8374 46.0288 13.9246 45.7566 13.9329 45.4763L13.8948 45.5199ZM45.6563 27.7694C45.6717 27.8399 45.7076 27.9044 45.7597 27.9544C45.8104 28.0027 45.8721 28.0378 45.9395 28.0567C46.0068 28.0757 46.0778 28.078 46.1462 28.0633C46.1969 28.0512 46.2447 28.029 46.2867 27.9982C46.3288 27.9673 46.3643 27.9284 46.3911 27.8837C46.4204 27.8372 46.4398 27.7852 46.4482 27.7309C46.4567 27.6766 46.4539 27.6212 46.4401 27.568C46.4181 27.517 46.386 27.4709 46.3458 27.4326C46.3056 27.3942 46.258 27.3644 46.206 27.3448C46.1357 27.3082 46.0564 27.2926 45.9774 27.2999C45.8985 27.3071 45.8233 27.3369 45.7608 27.3856C45.6983 27.4344 45.6511 27.5 45.6249 27.5748C45.5986 27.6496 45.5944 27.7304 45.6127 27.8075L45.6563 27.7694ZM45.1718 26.2344C45.1363 26.3291 45.1363 26.4335 45.1718 26.5283C45.1931 26.5779 45.2246 26.6224 45.2644 26.6589C45.3106 26.7062 45.368 26.7413 45.4312 26.7608C45.4944 26.7803 45.5615 26.7837 45.6264 26.7708C45.6912 26.7578 45.7519 26.7288 45.8027 26.6865C45.8536 26.6441 45.893 26.5898 45.9175 26.5283C45.9391 26.4785 45.9503 26.4247 45.9503 26.3704C45.9503 26.3161 45.9391 26.2624 45.9175 26.2126C45.8723 26.1133 45.7901 26.0356 45.6885 25.996C45.5868 25.9563 45.4737 25.9579 45.3732 26.0003C45.275 26.0481 45.199 26.1319 45.1609 26.2344H45.1718ZM19.2455 45.5144C19.2455 44.3931 18.3528 43.8815 17.1009 43.8815C16.6974 43.8714 16.2961 43.944 15.9216 44.0947C15.5472 44.2454 15.2076 44.4711 14.9235 44.7578L15.4679 45.3022C15.6828 45.0904 15.9381 44.9239 16.2186 44.8126C16.4991 44.7013 16.7992 44.6475 17.1009 44.6544C17.9881 44.6544 18.4181 44.9592 18.4181 45.4763C18.4159 45.6309 18.369 45.7815 18.283 45.91C18.1971 46.0385 18.0757 46.1393 17.9337 46.2003L15.0542 47.8333V48.7205H19.1584V47.9367H16.3497L18.4018 46.7882C18.6563 46.6724 18.8734 46.4876 19.0282 46.2548C19.1831 46.022 19.2697 45.7504 19.2782 45.4709L19.2455 45.5144ZM20.3069 46.6684H23.0286V45.9608H20.3069V46.6684ZM28.4011 45.4709C28.4011 44.3496 27.503 43.8379 26.251 43.8379C25.8474 43.8266 25.4457 43.8986 25.0711 44.0494C24.6965 44.2001 24.357 44.4265 24.0737 44.7143L24.618 45.2586C24.8332 45.0471 25.0885 44.8807 25.369 44.7695C25.6494 44.6582 25.9494 44.6043 26.251 44.6109C27.1383 44.6109 27.5683 44.9157 27.5683 45.4328C27.5661 45.5874 27.5192 45.738 27.4332 45.8665C27.3472 45.9949 27.2259 46.0958 27.0838 46.1567L24.2098 47.7897V48.677H28.2432V47.8932H25.4345L27.4866 46.7446C27.7426 46.6301 27.9611 46.4458 28.117 46.2128C28.273 45.9798 28.3601 45.7076 28.3684 45.4274L28.4011 45.4709ZM34.4758 46.2983C34.4877 46.8069 34.3477 47.3075 34.0737 47.7361C33.7996 48.1648 33.4041 48.502 32.9374 48.7047C32.4708 48.9074 31.9544 48.9663 31.4541 48.874C30.9538 48.7818 30.4923 48.5424 30.1287 48.1866C29.7651 47.8307 29.5159 47.3746 29.4129 46.8764C29.3098 46.3782 29.3576 45.8605 29.5502 45.3897C29.7428 44.9188 30.0714 44.516 30.494 44.2328C30.9167 43.9496 31.4142 43.7989 31.9229 43.7998C32.2589 43.779 32.5956 43.8289 32.9111 43.9463C33.2266 44.0638 33.514 44.2462 33.7547 44.4816C33.9953 44.7171 34.1838 45.0005 34.308 45.3134C34.4322 45.6264 34.4894 45.9619 34.4758 46.2983ZM33.6157 46.2983C33.6061 45.9657 33.4987 45.6434 33.3069 45.3715C33.1152 45.0996 32.8475 44.8903 32.5375 44.7696C32.2274 44.649 31.8887 44.6224 31.5636 44.6931C31.2385 44.7639 30.9415 44.9288 30.7096 45.1674C30.4777 45.406 30.3213 45.7076 30.2599 46.0346C30.1984 46.3616 30.2347 46.6994 30.3641 47.0059C30.4936 47.3124 30.7104 47.5739 30.9877 47.7579C31.2649 47.9418 31.5902 48.04 31.9229 48.0401C32.1538 48.0573 32.3857 48.0235 32.6022 47.9414C32.8187 47.8592 33.0146 47.7305 33.176 47.5644C33.3374 47.3984 33.4604 47.1989 33.5364 46.9802C33.6124 46.7614 33.6395 46.5286 33.6157 46.2983ZM34.6227 33.659C34.6777 33.6596 34.7323 33.6488 34.7829 33.6272C34.8335 33.6057 34.879 33.5739 34.9167 33.5338C34.9543 33.4953 34.983 33.449 35.0009 33.3982C35.0187 33.3475 35.0253 33.2934 35.0201 33.2399C35.0115 33.1388 34.9674 33.0441 34.8957 32.9723C34.824 32.9006 34.7292 32.8566 34.6282 32.8479C34.5287 32.8491 34.4328 32.8852 34.3572 32.9498C34.2816 33.0145 34.2311 33.1037 34.2145 33.2018C34.2028 33.2559 34.2036 33.3119 34.2168 33.3657C34.23 33.4194 34.2553 33.4695 34.2907 33.512C34.327 33.558 34.3734 33.5952 34.4262 33.6206C34.479 33.6461 34.5369 33.6592 34.5955 33.659H34.6227ZM32.342 31.3021C32.2884 31.3123 32.2379 31.3349 32.1945 31.3679C32.1511 31.401 32.1159 31.4437 32.0916 31.4926C32.0676 31.5456 32.0551 31.6031 32.0551 31.6613C32.0551 31.7195 32.0676 31.7771 32.0916 31.8301C32.1117 31.8872 32.144 31.9392 32.1863 31.9825C32.2286 32.0257 32.2799 32.0592 32.3366 32.0804C32.3797 32.0887 32.4241 32.0887 32.4672 32.0804C32.5279 32.0796 32.5875 32.0647 32.6414 32.0369C32.7417 31.9994 32.8231 31.9235 32.8675 31.826C32.9119 31.7285 32.9157 31.6174 32.8782 31.5171C32.8407 31.4167 32.7648 31.3354 32.6673 31.291C32.5698 31.2466 32.4587 31.2428 32.3584 31.2803L32.342 31.3021ZM32.6033 29.3044C32.657 29.3257 32.7143 29.3368 32.772 29.337C32.8464 29.3382 32.9197 29.3191 32.9839 29.2817C33.0482 29.2443 33.101 29.19 33.1367 29.1247C33.1826 29.0311 33.1924 28.9239 33.1643 28.8235C33.1362 28.7231 33.0721 28.6366 32.9843 28.5804C32.9384 28.5522 32.8874 28.5333 32.8341 28.5249C32.7809 28.5165 32.7265 28.5187 32.6741 28.5314C32.5623 28.5648 32.4684 28.6412 32.4128 28.7437C32.3886 28.7976 32.3761 28.8561 32.3761 28.9152C32.3761 28.9743 32.3886 29.0327 32.4128 29.0866C32.4302 29.1347 32.4576 29.1785 32.4933 29.2151C32.529 29.2517 32.572 29.2803 32.6196 29.2989L32.6033 29.3044ZM33.5722 32.4397C33.4887 32.3834 33.3878 32.359 33.2879 32.371C33.1879 32.383 33.0956 32.4306 33.0279 32.505C32.9893 32.5431 32.9596 32.5891 32.9408 32.6399C32.922 32.6907 32.9146 32.745 32.919 32.799C32.925 32.8584 32.9437 32.9158 32.9737 32.9675C33.0038 33.0191 33.0445 33.0637 33.0932 33.0983C33.166 33.1511 33.2536 33.1796 33.3436 33.18H33.4361C33.4877 33.1682 33.5361 33.1449 33.5775 33.112C33.619 33.079 33.6525 33.0371 33.6756 32.9895C33.7253 32.9011 33.7422 32.798 33.7233 32.6984C33.7043 32.5988 33.6508 32.5091 33.5722 32.4451V32.4397ZM46.0264 29.1792C46.0386 29.2642 46.0789 29.3427 46.1407 29.4024C46.1838 29.4456 46.2359 29.4787 46.2933 29.4994C46.3507 29.5201 46.412 29.5279 46.4728 29.5221C46.5617 29.5587 46.6615 29.5587 46.7504 29.5221C46.7828 29.479 46.8063 29.4298 46.8194 29.3774C46.8325 29.3251 46.835 29.2706 46.8266 29.2173C46.8202 29.1629 46.8023 29.1106 46.7742 29.0637C46.746 29.0167 46.7082 28.9763 46.6633 28.9451C46.6219 28.9136 46.5744 28.891 46.5238 28.8789C46.4732 28.8667 46.4206 28.8651 46.3693 28.8744C46.3181 28.8817 46.2689 28.8991 46.2245 28.9255C46.18 28.9519 46.1413 28.9869 46.1104 29.0284C46.0795 29.0699 46.0572 29.1171 46.0446 29.1672C46.0321 29.2174 46.0296 29.2696 46.0373 29.3207L46.0264 29.1792ZM33.6865 27.5408C33.6306 27.5371 33.5745 27.5447 33.5215 27.563C33.4686 27.5814 33.4198 27.6103 33.3782 27.6478C33.3366 27.6854 33.3029 27.7309 33.2792 27.7817C33.2555 27.8325 33.2422 27.8875 33.2402 27.9436C33.2381 27.9987 33.2483 28.0537 33.27 28.1045C33.2916 28.1553 33.3242 28.2007 33.3653 28.2375C33.4425 28.3083 33.5437 28.3472 33.6484 28.3464C33.7494 28.3465 33.8474 28.3119 33.926 28.2484C33.9944 28.1761 34.0355 28.0823 34.0425 27.983C34.0494 27.8838 34.0217 27.7852 33.9641 27.7041C33.931 27.6612 33.889 27.626 33.8412 27.6006C33.7933 27.5753 33.7406 27.5604 33.6865 27.5571V27.5408ZM35.0201 26.844C34.9669 26.8209 34.9094 26.809 34.8514 26.809C34.7933 26.809 34.7359 26.8209 34.6826 26.844C34.6297 26.8669 34.5821 26.9005 34.5428 26.9426C34.5034 26.9848 34.4732 27.0346 34.454 27.089C34.4313 27.1366 34.4195 27.1886 34.4195 27.2414C34.4195 27.2941 34.4313 27.3462 34.454 27.3938C34.4886 27.4627 34.5414 27.521 34.6066 27.5622C34.6718 27.6035 34.747 27.6261 34.8242 27.6278C34.8749 27.6275 34.925 27.6163 34.9711 27.5952C35.0665 27.5541 35.1429 27.4787 35.1853 27.384C35.2276 27.2892 35.2328 27.1819 35.1998 27.0835C35.1849 27.0338 35.1598 26.9878 35.1261 26.9484C35.0923 26.909 35.0506 26.8771 35.0038 26.8549L35.0201 26.844ZM32.3366 30.8339C32.4359 30.8352 32.5323 30.8007 32.6082 30.7367C32.6842 30.6728 32.7346 30.5836 32.7503 30.4856C32.7595 30.3821 32.7309 30.2788 32.6699 30.1948C32.6089 30.1107 32.5195 30.0516 32.4182 30.0283C32.3672 30.0167 32.3144 30.0155 32.263 30.0248C32.2115 30.0342 32.1625 30.0539 32.1188 30.0828C32.0717 30.1164 32.0319 30.1594 32.0019 30.209C31.9719 30.2586 31.9525 30.3138 31.9447 30.3713C31.9333 30.4258 31.9348 30.4822 31.9489 30.536C31.9631 30.5899 31.9896 30.6397 32.0263 30.6815C32.0606 30.7262 32.1041 30.7629 32.1539 30.7892C32.2037 30.8155 32.2586 30.8307 32.3148 30.8339H32.3366ZM35.8475 33.4358C35.8888 33.444 35.9314 33.444 35.9727 33.4358C36.0499 33.4345 36.1252 33.4119 36.1904 33.3705C36.2416 33.3416 36.2857 33.3017 36.3196 33.2537C36.3535 33.2057 36.3763 33.1508 36.3864 33.0929C36.3976 33.0396 36.3966 32.9845 36.3834 32.9317C36.3702 32.8789 36.3451 32.8298 36.3102 32.7881C36.2553 32.6964 36.1663 32.6303 36.0627 32.6042C35.959 32.5782 35.8493 32.5944 35.7577 32.6493C35.666 32.7041 35.5999 32.7931 35.5739 32.8968C35.5478 33.0004 35.564 33.1101 35.6189 33.2018C35.6382 33.2523 35.6689 33.2977 35.7085 33.3345C35.7482 33.3713 35.7957 33.3985 35.8475 33.414V33.4358ZM8.46783 46.3963C8.48432 46.7289 8.43075 47.0614 8.3106 47.372C8.19045 47.6827 8.0064 47.9647 7.77036 48.1997C7.53432 48.4347 7.25155 48.6175 6.94036 48.7363C6.62918 48.8551 6.29652 48.9072 5.96392 48.8893C5.27257 48.9136 4.58658 48.7599 3.97168 48.4429L4.30916 47.7625C4.81499 48.0161 5.3767 48.1378 5.94214 48.1163C6.13853 48.1405 6.33779 48.1244 6.52777 48.0691C6.71775 48.0138 6.89449 47.9204 7.04724 47.7946C7.2 47.6688 7.32557 47.5133 7.41632 47.3375C7.50707 47.1617 7.5611 46.9692 7.57512 46.7718C7.04555 47.0263 6.46431 47.1548 5.87683 47.1474C4.72829 47.1474 3.78116 46.7065 3.78116 45.5525C3.78116 44.5455 4.66841 43.8923 6.05645 43.8923C7.68943 43.8923 8.43515 44.8667 8.43515 46.3963H8.46783ZM7.58601 46.0533C7.50436 45.0953 7.07434 44.6653 5.95302 44.6653C5.07121 44.6653 4.63576 45.0082 4.63576 45.5634C4.63576 46.1186 5.03855 46.3745 5.98568 46.3745C6.53231 46.3817 7.07419 46.2722 7.57512 46.0533H7.58601ZM36.7021 32.3308C36.7646 32.3735 36.8386 32.3963 36.9144 32.3962C36.9468 32.4013 36.9799 32.4013 37.0123 32.3962C37.0691 32.3811 37.122 32.3538 37.1671 32.3162C37.2122 32.2786 37.2486 32.2316 37.2736 32.1784C37.2979 32.1236 37.3105 32.0642 37.3105 32.0042C37.3105 31.9442 37.2979 31.8849 37.2736 31.8301C37.2524 31.7798 37.2204 31.7348 37.18 31.6981C37.1396 31.6614 37.0916 31.634 37.0396 31.6178C36.9452 31.5852 36.8421 31.5883 36.7499 31.6266C36.6577 31.6649 36.5827 31.7357 36.5391 31.8255C36.4955 31.9153 36.4864 32.0181 36.5134 32.1142C36.5404 32.2103 36.6017 32.2932 36.6858 32.3472L36.7021 32.3308ZM23.8233 17.3128C24.5365 17.3545 25.248 17.2067 25.8857 16.8846C26.5233 16.5624 27.0644 16.0773 27.454 15.4785L26.398 14.8579C26.1061 15.2702 25.7141 15.6014 25.2589 15.8204C24.8038 16.0394 24.3004 16.139 23.7961 16.1099C23.44 16.1353 23.0825 16.0855 22.747 15.9637C22.4115 15.8418 22.1054 15.6507 21.8486 15.4026C21.5919 15.1546 21.3902 14.8553 21.2568 14.5242C21.1235 14.193 21.0613 13.8375 21.0745 13.4808C21.0533 13.122 21.1099 12.7628 21.2405 12.428C21.3711 12.0931 21.5725 11.7905 21.831 11.5407C22.0896 11.291 22.399 11.1001 22.7382 10.9812C23.0773 10.8623 23.4382 10.8181 23.7961 10.8517C24.3002 10.8241 24.803 10.9244 25.2579 11.1432C25.7128 11.3621 26.105 11.6925 26.398 12.1036L27.4431 11.494C27.0561 10.8952 26.517 10.4099 25.8811 10.0876C25.2451 9.76537 24.535 9.61766 23.8233 9.6596C21.5371 9.6596 19.7681 11.113 19.7681 13.4699C19.7681 15.8268 21.499 17.2802 23.8233 17.2802V17.3128ZM34.5683 20.1433C34.5243 20.1096 34.474 20.0851 34.4203 20.0711C34.3667 20.0572 34.3108 20.0543 34.256 20.0624C34.2011 20.0705 34.1485 20.0896 34.1011 20.1184C34.0538 20.1473 34.0128 20.1854 33.9804 20.2304C33.9491 20.273 33.9266 20.3214 33.9145 20.3729C33.9023 20.4243 33.9007 20.4777 33.9097 20.5298C33.9272 20.6246 33.9768 20.7104 34.0501 20.7729C34.1235 20.8353 34.2162 20.8706 34.3125 20.8727H34.3669C34.4728 20.854 34.5676 20.7959 34.6322 20.71C34.6969 20.6242 34.7266 20.517 34.7153 20.4101C34.7094 20.3589 34.6934 20.3095 34.6682 20.2646C34.6429 20.2197 34.609 20.1804 34.5683 20.1488V20.1433ZM30.7036 21.5096C30.651 21.4936 30.5955 21.4893 30.541 21.4968C30.4865 21.5043 30.4342 21.5235 30.3879 21.5532C30.34 21.5808 30.298 21.6176 30.2643 21.6615C30.2307 21.7054 30.2061 21.7555 30.1919 21.809C30.1803 21.86 30.1791 21.9128 30.1885 21.9643C30.1978 22.0157 30.2175 22.0647 30.2464 22.1084C30.2828 22.1682 30.3339 22.2176 30.3949 22.2519C30.4559 22.2862 30.5247 22.3043 30.5947 22.3043C30.6658 22.3068 30.736 22.2879 30.7961 22.2499C30.8849 22.1946 30.9494 22.1076 30.9767 22.0066C31.004 21.9056 30.992 21.7981 30.9431 21.7056C30.9185 21.659 30.8845 21.618 30.8433 21.5852C30.8021 21.5524 30.7545 21.5285 30.7036 21.515V21.5096ZM33.1422 20.4264C33.0945 20.3976 33.0413 20.3789 32.9861 20.3714C32.9309 20.3639 32.8747 20.3678 32.821 20.3828C32.7676 20.3956 32.7176 20.4196 32.6744 20.4535C32.6312 20.4873 32.5958 20.53 32.5706 20.5788C32.5437 20.6234 32.5272 20.6735 32.5225 20.7254C32.5178 20.7772 32.5249 20.8295 32.5434 20.8782C32.5698 20.9635 32.6223 21.0384 32.6937 21.0922C32.765 21.1459 32.8515 21.1758 32.9408 21.1776C32.9732 21.1828 33.0063 21.1828 33.0388 21.1776C33.1411 21.1494 33.2284 21.0825 33.2823 20.9911C33.3361 20.8996 33.3523 20.7908 33.3273 20.6877C33.3003 20.5848 33.2338 20.4967 33.1422 20.4427V20.4264ZM31.814 20.9435C31.7651 20.9221 31.7123 20.911 31.6589 20.911C31.6055 20.911 31.5527 20.9221 31.5038 20.9435C31.4045 20.9887 31.3271 21.0712 31.2883 21.1731C31.2496 21.275 31.2527 21.3882 31.2969 21.4878C31.3443 21.5844 31.4257 21.66 31.5255 21.7001C31.5687 21.708 31.613 21.708 31.6562 21.7001C31.7142 21.703 31.7721 21.6918 31.8249 21.6675C31.8986 21.6361 31.9614 21.5838 32.0055 21.517C32.0496 21.4502 32.0732 21.3719 32.0732 21.2919C32.0732 21.2118 32.0496 21.1335 32.0055 21.0668C31.9614 21 31.8986 20.9477 31.8249 20.9163L31.814 20.9435ZM39.6306 17.106H38.2806V9.82289H42.5754C42.9588 9.79965 43.3429 9.85576 43.7036 9.98771C44.0644 10.1197 44.394 10.3246 44.6719 10.5898C44.9499 10.8549 45.1701 11.1746 45.3189 11.5287C45.4676 11.8828 45.5417 12.2639 45.5365 12.648C45.5365 14.3517 44.241 15.4349 42.5645 15.4349H39.6197L39.6306 17.106ZM39.6306 14.1884H42.5209C42.7353 14.2108 42.952 14.1874 43.1567 14.1198C43.3614 14.0523 43.5494 13.942 43.7084 13.7965C43.8674 13.6509 43.9936 13.4732 44.0789 13.2753C44.1641 13.0773 44.2064 12.8635 44.2029 12.648C44.2118 12.4276 44.1733 12.208 44.09 12.0038C44.0067 11.7997 43.8805 11.6158 43.7201 11.4646C43.5596 11.3134 43.3685 11.1984 43.1598 11.1274C42.951 11.0564 42.7295 11.0311 42.5101 11.0531H39.6197L39.6306 14.1884ZM28.4773 23.3658C28.4008 23.4423 28.3579 23.5461 28.3579 23.6543C28.3579 23.7624 28.4008 23.8662 28.4773 23.9427C28.5542 24.0099 28.6529 24.0466 28.7549 24.0462C28.8099 24.0465 28.8643 24.0355 28.9148 24.014C28.9654 23.9924 29.011 23.9608 29.0488 23.921C29.1126 23.8446 29.1475 23.7483 29.1475 23.6488C29.1475 23.5493 29.1126 23.453 29.0488 23.3766C29.0117 23.3377 28.9669 23.3069 28.9172 23.2863C28.8676 23.2657 28.8141 23.2557 28.7604 23.2569C28.7052 23.257 28.6508 23.2693 28.601 23.2928C28.5511 23.3163 28.507 23.3505 28.4718 23.393L28.4773 23.3658ZM35.3195 20.4046C35.3203 20.4591 35.3324 20.5128 35.3548 20.5624C35.3773 20.6121 35.4097 20.6566 35.4501 20.6931C35.52 20.7568 35.6114 20.7918 35.706 20.7911C35.7858 20.7904 35.8636 20.766 35.9295 20.721C35.9954 20.676 36.0465 20.6125 36.0763 20.5384C36.106 20.4643 36.1131 20.3831 36.0966 20.305C36.0801 20.2269 36.0407 20.1555 35.9836 20.0998C35.9473 20.0597 35.9027 20.0282 35.8528 20.0075C35.8029 19.9868 35.749 19.9774 35.6951 19.98C35.5863 19.9843 35.4836 20.0313 35.4092 20.1107C35.3348 20.1902 35.2948 20.2958 35.2977 20.4046H35.3195ZM38.3841 21.1449H38.482C38.5713 21.1431 38.6578 21.1133 38.7291 21.0595C38.8005 21.0058 38.8531 20.9309 38.8794 20.8455C38.8952 20.7954 38.901 20.7427 38.8963 20.6904C38.8916 20.6381 38.8766 20.5872 38.8522 20.5407C38.8236 20.493 38.7858 20.4516 38.7409 20.4189C38.696 20.3861 38.645 20.3628 38.5909 20.3502C38.484 20.3232 38.3708 20.3388 38.2752 20.3937C38.229 20.4201 38.1891 20.4561 38.1581 20.4993C38.1271 20.5426 38.1057 20.5919 38.0956 20.6441C38.0719 20.7472 38.0887 20.8554 38.1423 20.9465C38.196 21.0376 38.2825 21.1047 38.3841 21.134V21.1449ZM37.9159 6.24122H33.4035V4.65723H37.3226V3.65022H33.4035V2.18054H37.7581V1.16265H32.2876V7.28089H37.9323L37.9159 6.24122ZM35.4828 14.847C35.1898 15.2582 34.7977 15.5885 34.3428 15.8074C33.8879 16.0263 33.385 16.1266 32.8809 16.099C32.527 16.1205 32.1726 16.0677 31.8403 15.9441C31.508 15.8204 31.2053 15.6286 30.9516 15.381C30.6978 15.1335 30.4987 14.8355 30.3669 14.5064C30.2351 14.1772 30.1737 13.8242 30.1865 13.4699C30.1658 13.1136 30.2218 12.757 30.3508 12.4242C30.4798 12.0914 30.6788 11.7902 30.9342 11.541C31.1897 11.2917 31.4957 11.1002 31.8315 10.9794C32.1673 10.8586 32.5252 10.8114 32.8809 10.8408C33.3887 10.8116 33.8955 10.9122 34.3536 11.1331C34.8117 11.3541 35.2059 11.6881 35.4991 12.1036L36.5442 11.494C36.1568 10.8956 35.6177 10.4106 34.9818 10.0884C34.346 9.76618 33.6361 9.61822 32.9244 9.6596C30.6383 9.6596 28.8692 11.113 28.8692 13.4699C28.8692 15.8268 30.6002 17.2802 32.9244 17.2802C33.6376 17.3213 34.3489 17.1733 34.9864 16.8511C35.624 16.529 36.1651 16.0442 36.5551 15.4458L35.4828 14.847ZM37.1593 20.0671C37.1065 20.0579 37.0522 20.0597 37.0001 20.0726C36.948 20.0854 36.8992 20.109 36.8567 20.1418C36.8142 20.1745 36.7789 20.2158 36.7533 20.2629C36.7276 20.3101 36.712 20.362 36.7075 20.4155C36.6977 20.5201 36.7274 20.6246 36.7909 20.7082C36.8545 20.7919 36.9471 20.8487 37.0505 20.8673H37.1103C37.2066 20.8671 37.2997 20.8324 37.3726 20.7694C37.4454 20.7065 37.4934 20.6196 37.5077 20.5244C37.5164 20.4723 37.5146 20.419 37.5025 20.3676C37.4903 20.3162 37.468 20.2677 37.4369 20.225C37.4037 20.1808 37.3621 20.1436 37.3144 20.1156C37.2668 20.0876 37.2141 20.0693 37.1593 20.0617V20.0671ZM26.1367 5.76766L26.8117 2.18054H29.5333V7.28089H30.6655V1.16265H25.87L25.0317 5.62069C25.0073 5.80592 24.9106 5.97397 24.7627 6.08818C24.6149 6.2024 24.4278 6.2535 24.2424 6.23033H23.6981V7.28089H24.3186C24.7578 7.31717 25.1935 7.17851 25.531 6.89511C25.8684 6.6117 26.0802 6.20649 26.1203 5.76766H26.1367ZM29.751 22.3098C29.6992 22.3004 29.6459 22.3015 29.5945 22.3129C29.543 22.3243 29.4944 22.3458 29.4513 22.3762C29.4082 22.4066 29.3717 22.4452 29.3437 22.4899C29.3157 22.5346 29.2969 22.5844 29.2883 22.6364C29.2803 22.6921 29.2838 22.749 29.2988 22.8033C29.3138 22.8577 29.3399 22.9083 29.3754 22.9521C29.4125 22.9955 29.4583 23.0306 29.5099 23.055C29.5615 23.0794 29.6177 23.0926 29.6748 23.0936C29.7646 23.0981 29.8532 23.0711 29.9252 23.0174C29.9677 22.9884 30.0033 22.9505 30.0296 22.9063C30.056 22.8621 30.0723 22.8127 30.0776 22.7616C30.0937 22.6581 30.0683 22.5525 30.0069 22.4676C29.9761 22.4252 29.9371 22.3893 29.8922 22.3622C29.8474 22.3351 29.7975 22.3173 29.7456 22.3098H29.751ZM43.9308 23.3059C43.8876 23.2734 43.8384 23.2499 43.7861 23.2368C43.7337 23.2237 43.6793 23.2213 43.6259 23.2297C43.5229 23.2462 43.4298 23.3005 43.3647 23.3821C43.3073 23.466 43.2833 23.5683 43.2974 23.669C43.3115 23.7697 43.3627 23.8615 43.4408 23.9264C43.5102 23.9774 43.5943 24.0042 43.6804 24.0026C43.7408 24.0029 43.8007 23.9905 43.856 23.9661C43.9114 23.9417 43.961 23.9059 44.0015 23.8611C44.0335 23.8211 44.0572 23.775 44.071 23.7257C44.0848 23.6763 44.0885 23.6247 44.0819 23.5739C44.0753 23.5231 44.0585 23.4741 44.0325 23.4299C44.0066 23.3857 43.9719 23.3473 43.9308 23.3168V23.3059ZM3.85738 9.82289H8.16299V17.1278H6.81307V15.4131H3.62875L2.69251 17.1278H1.21194L2.36591 15.092C1.90827 14.8736 1.52495 14.5255 1.26363 14.0909C1.00232 13.6564 0.874555 13.1546 0.896233 12.648C0.890224 12.2636 0.963764 11.8822 1.11225 11.5277C1.26073 11.1732 1.48096 10.8532 1.75905 10.5879C2.03715 10.3226 2.36711 10.1177 2.72822 9.98602C3.08933 9.85436 3.47377 9.79882 3.85738 9.82289ZM2.22439 12.648C2.22439 13.6386 2.89391 14.183 3.90091 14.183H6.79129V11.0531H3.90091C3.68436 11.0359 3.46663 11.065 3.26212 11.1382C3.05761 11.2115 2.87098 11.3273 2.71457 11.4781C2.55815 11.6288 2.43552 11.8111 2.35478 12.0127C2.27403 12.2144 2.237 12.4309 2.24615 12.648H2.22439ZM4.57044 4.22721C4.55855 3.57884 4.73995 2.94162 5.09151 2.39671C5.44308 1.85181 5.9489 1.4239 6.54453 1.1675C7.14016 0.911101 7.79864 0.83782 8.43607 0.956995C9.0735 1.07617 9.66101 1.3824 10.1238 1.83668C10.5865 2.29096 10.9036 2.87272 11.0345 3.50783C11.1655 4.14295 11.1044 4.80267 10.8591 5.40294C10.6137 6.00321 10.1953 6.51686 9.65695 6.87845C9.11865 7.24004 8.48488 7.43319 7.83641 7.4333C7.40617 7.4579 6.97554 7.39229 6.57215 7.24067C6.16877 7.08906 5.80154 6.85479 5.49401 6.55291C5.18649 6.25102 4.94548 5.88818 4.78643 5.48767C4.62738 5.08716 4.55381 4.65782 4.57044 4.22721ZM5.68631 4.22721C5.68631 4.80467 5.9157 5.35848 6.32403 5.7668C6.73235 6.17513 7.28616 6.40452 7.86362 6.40452C8.44108 6.40452 8.99488 6.17513 9.40321 5.7668C9.81153 5.35848 10.0409 4.80467 10.0409 4.22721C10.0409 3.64975 9.81153 3.09594 9.40321 2.68762C8.99488 2.2793 8.44108 2.0499 7.86362 2.0499C7.28616 2.0499 6.73235 2.2793 6.32403 2.68762C5.9157 3.09594 5.68631 3.64975 5.68631 4.22721ZM0.841797 44.7959H1.75626V48.7804H2.62719V44.0121H0.841797V44.7959ZM2.01755 7.28089H3.13341V1.16265H0.841797V2.16965H2.01755V7.28089ZM42.755 22.2662C42.6654 22.2014 42.5542 22.1741 42.4448 22.19C42.3935 22.1973 42.3444 22.2151 42.3003 22.2422C42.2563 22.2694 42.2184 22.3054 42.1889 22.3479C42.1277 22.4305 42.1013 22.5338 42.1156 22.6356C42.1298 22.7375 42.1836 22.8296 42.2651 22.8922C42.3353 22.9415 42.4189 22.9681 42.5046 22.9684C42.5646 22.9673 42.6236 22.9536 42.678 22.9283C42.7324 22.903 42.7809 22.8666 42.8203 22.8214C42.8546 22.7811 42.8804 22.7343 42.8963 22.6838C42.9121 22.6333 42.9178 22.5802 42.9129 22.5275C42.897 22.4199 42.8405 22.3225 42.755 22.2553V22.2662ZM36.2231 26.4793C36.1658 26.4792 36.1092 26.4919 36.0574 26.5164C36.0057 26.5409 35.96 26.5765 35.9237 26.6208C35.8883 26.6614 35.8621 26.7092 35.8471 26.7609C35.832 26.8126 35.8285 26.867 35.8366 26.9202C35.8497 27.0213 35.8986 27.1143 35.9746 27.1823C36.0505 27.2502 36.1484 27.2886 36.2503 27.2904C36.3525 27.2813 36.448 27.2355 36.519 27.1614C36.5901 27.0874 36.6319 26.9901 36.6368 26.8876C36.6399 26.8319 36.6308 26.7763 36.6101 26.7246C36.5894 26.6729 36.5577 26.6263 36.517 26.5882C36.4775 26.5485 36.4297 26.5181 36.3769 26.4992C36.3242 26.4804 36.2679 26.4736 36.2122 26.4793H36.2231ZM40.0225 20.8129C39.9463 20.7765 39.8607 20.7646 39.7775 20.7789C39.6943 20.7932 39.6176 20.8329 39.5579 20.8926C39.4982 20.9523 39.4585 21.029 39.4442 21.1122C39.4299 21.1954 39.4418 21.281 39.4782 21.3572C39.498 21.4043 39.5277 21.4467 39.5653 21.4814C39.6028 21.5161 39.6473 21.5425 39.6959 21.5586C39.7457 21.5803 39.7994 21.5914 39.8538 21.5913C39.9305 21.5911 40.0056 21.5689 40.0702 21.5274C40.1348 21.486 40.1863 21.4269 40.2184 21.3572C40.24 21.3074 40.2511 21.2536 40.2511 21.1993C40.2511 21.145 40.24 21.0913 40.2184 21.0415C40.1997 20.9897 40.1701 20.9425 40.1316 20.903C40.0931 20.8636 40.0466 20.8329 39.9953 20.8129H40.0225ZM12.3924 4.22721C12.3805 3.57884 12.5619 2.94162 12.9135 2.39671C13.2651 1.85181 13.7709 1.4239 14.3665 1.1675C14.9621 0.911101 15.6206 0.83782 16.258 0.956995C16.8955 1.07617 17.483 1.3824 17.9458 1.83668C18.4085 2.29096 18.7256 2.87272 18.8565 3.50783C18.9875 4.14295 18.9264 4.80267 18.6811 5.40294C18.4357 6.00321 18.0172 6.51686 17.4789 6.87845C16.9406 7.24004 16.3069 7.43319 15.6584 7.4333C15.2284 7.45705 14.7981 7.39086 14.3951 7.23895C13.9921 7.08703 13.6252 6.85273 13.3179 6.55102C13.0105 6.24931 12.7695 5.88682 12.6101 5.48669C12.4508 5.08657 12.3766 4.65761 12.3924 4.22721ZM13.5137 4.22721C13.5137 4.80467 13.7431 5.35848 14.1515 5.7668C14.5598 6.17513 15.1136 6.40452 15.691 6.40452C16.2685 6.40452 16.8223 6.17513 17.2306 5.7668C17.639 5.35848 17.8684 4.80467 17.8684 4.22721C17.8684 3.64975 17.639 3.09594 17.2306 2.68762C16.8223 2.2793 16.2685 2.0499 15.691 2.0499C15.1136 2.0499 14.5598 2.2793 14.1515 2.68762C13.7431 3.09594 13.5137 3.64975 13.5137 4.22721ZM41.3071 21.4878C41.2605 21.4589 41.2085 21.4396 41.1542 21.4312C41.1 21.4228 41.0446 21.4254 40.9914 21.4388C40.94 21.4514 40.892 21.4749 40.8507 21.5078C40.8093 21.5407 40.7756 21.5821 40.7519 21.6294C40.7038 21.7215 40.6916 21.8282 40.7178 21.9288C40.7439 22.0294 40.8065 22.1166 40.8934 22.1737C40.9546 22.2092 41.0241 22.228 41.0948 22.2281C41.1843 22.2304 41.2719 22.2028 41.344 22.1498C41.4161 22.0967 41.4684 22.0211 41.4927 21.935C41.5171 21.8489 41.512 21.7571 41.4784 21.6742C41.4448 21.5912 41.3845 21.5218 41.3071 21.4769V21.4878ZM15.5713 9.82289L18.674 17.1278H17.2587L16.7579 15.9792H11.7773L11.2765 17.1278H9.83953L13.0347 9.82289H15.5713ZM16.219 14.7926L14.684 11.015H13.8512L12.2836 14.7817L16.219 14.7926ZM27.8132 24.3456C27.7581 24.3519 27.7049 24.3697 27.6571 24.3978C27.6093 24.4259 27.5679 24.4638 27.5356 24.5089C27.5015 24.5522 27.4766 24.6021 27.4626 24.6555C27.4485 24.7089 27.4456 24.7646 27.454 24.8191C27.4628 24.8711 27.4824 24.9207 27.5115 24.9647C27.5405 25.0088 27.5784 25.0463 27.6227 25.075C27.7079 25.1311 27.811 25.1533 27.9118 25.1371C28.0125 25.121 28.1036 25.0678 28.167 24.9879C28.2238 24.9033 28.2468 24.8006 28.2317 24.6999C28.2166 24.5992 28.1644 24.5077 28.0854 24.4435C28.0445 24.4107 27.9974 24.3865 27.9468 24.3725C27.8963 24.3584 27.8434 24.3548 27.7914 24.3619L27.8132 24.3456ZM37.2246 24.1169H37.2845C37.3799 24.1154 37.4716 24.0801 37.5434 24.0173C37.6151 23.9545 37.6623 23.8683 37.6764 23.774C37.6861 23.7231 37.6853 23.6709 37.674 23.6203C37.6628 23.5698 37.6414 23.5221 37.6111 23.4801C37.5791 23.4342 37.5379 23.3955 37.4901 23.3665C37.4423 23.3374 37.389 23.3186 37.3335 23.3113C37.2806 23.3012 37.2261 23.3023 37.1736 23.3145C37.1211 23.3267 37.0718 23.3497 37.0287 23.3821C36.9844 23.4179 36.948 23.4626 36.9218 23.5131C36.8956 23.5637 36.8801 23.6192 36.8763 23.676C36.8694 23.7796 36.9013 23.8821 36.9656 23.9635C37.03 24.045 37.1223 24.0996 37.2246 24.1169ZM29.1033 30.2896H29.1414C29.2442 30.2943 29.3448 30.2594 29.4227 30.1922C29.5006 30.1249 29.5498 30.0305 29.5603 29.9281C29.5707 29.8257 29.5416 29.7233 29.4789 29.6417C29.4162 29.5601 29.3246 29.5057 29.223 29.4894C29.1725 29.4787 29.1204 29.4785 29.0698 29.4888C29.0193 29.4991 28.9713 29.5197 28.9291 29.5493C28.8367 29.6152 28.774 29.715 28.7549 29.8269C28.7458 29.8823 28.7483 29.939 28.7624 29.9934C28.7764 30.0478 28.8017 30.0986 28.8366 30.1426C28.8681 30.1847 28.9081 30.2195 28.9541 30.2448C29.0001 30.2702 29.0509 30.2854 29.1033 30.2896ZM32.9625 36.5603C32.9986 36.5656 33.0353 36.5656 33.0714 36.5603C33.1483 36.5624 33.2242 36.5416 33.2892 36.5004C33.3325 36.4732 33.3698 36.4374 33.3988 36.3953C33.4278 36.3532 33.4479 36.3056 33.4579 36.2554C33.4785 36.154 33.4603 36.0485 33.4068 35.9598C33.3534 35.8711 33.2687 35.8057 33.1694 35.7764C33.0693 35.7536 32.9642 35.7688 32.8747 35.8191C32.7851 35.8694 32.7175 35.9512 32.6849 36.0486C32.6621 36.0971 32.6503 36.1501 32.6503 36.2037C32.6503 36.2574 32.6621 36.3103 32.6849 36.3589C32.711 36.4064 32.7467 36.4479 32.7899 36.4808C32.833 36.5136 32.8826 36.537 32.9353 36.5494L32.9625 36.5603ZM30.2573 33.7352C30.2002 33.6483 30.1125 33.586 30.0117 33.5608C29.9108 33.5356 29.8042 33.5492 29.7129 33.5991C29.6667 33.6228 29.6259 33.6559 29.5931 33.6962C29.5603 33.7365 29.5362 33.7831 29.5224 33.8332C29.5086 33.8882 29.5059 33.9453 29.5143 34.0014C29.5227 34.0574 29.5421 34.1112 29.5714 34.1598C29.5989 34.2083 29.6364 34.2504 29.6815 34.2832C29.7265 34.3161 29.7781 34.339 29.8327 34.3503H29.9143C29.9962 34.3519 30.0763 34.3271 30.1429 34.2795C30.2261 34.2192 30.2843 34.1305 30.3064 34.0302C30.3285 33.9298 30.3129 33.8248 30.2627 33.7352H30.2573ZM29.3428 28.8907H29.4625C29.5576 28.8937 29.6507 28.863 29.7253 28.804C29.7999 28.7449 29.8512 28.6614 29.8701 28.5681C29.889 28.4749 29.8743 28.378 29.8286 28.2945C29.7829 28.2111 29.7092 28.1466 29.6204 28.1123C29.5721 28.0922 29.5203 28.0819 29.468 28.0819C29.4157 28.0819 29.3639 28.0922 29.3155 28.1123C29.2633 28.1338 29.2163 28.1663 29.1778 28.2076C29.1392 28.249 29.1101 28.2982 29.0924 28.3518C29.0707 28.4025 29.0595 28.4572 29.0595 28.5124C29.0595 28.5676 29.0707 28.6222 29.0924 28.673C29.1149 28.7206 29.1475 28.7628 29.1879 28.7966C29.2283 28.8304 29.2756 28.8551 29.3264 28.8689L29.3428 28.8907ZM30.2246 34.7966C30.229 34.9046 30.276 35.0063 30.3552 35.0797C30.4332 35.1491 30.5339 35.1878 30.6383 35.1886C30.6897 35.1854 30.7399 35.1717 30.7858 35.1482C30.8317 35.1248 30.8723 35.0922 30.905 35.0525C30.9477 35.003 30.9777 34.944 30.9925 34.8804C31.0073 34.8167 31.0063 34.7505 30.9898 34.6873C30.9733 34.6241 30.9416 34.5659 30.8976 34.5177C30.8536 34.4694 30.7985 34.4326 30.7371 34.4104C30.6756 34.3882 30.6098 34.3813 30.5451 34.3902C30.4804 34.3991 30.4188 34.4237 30.3657 34.4617C30.3126 34.4997 30.2695 34.55 30.2402 34.6084C30.2109 34.6667 30.1962 34.7313 30.1974 34.7966H30.2246ZM29.6531 32.5214C29.6194 32.4238 29.5504 32.3424 29.4598 32.293C29.3692 32.2437 29.2634 32.23 29.1632 32.2546C29.0581 32.2832 28.9683 32.3515 28.9128 32.4451C28.8588 32.5473 28.8471 32.6665 28.8801 32.7772C28.9203 32.8844 29.0002 32.9721 29.1033 33.0221C29.1551 33.0434 29.2106 33.0545 29.2666 33.0548C29.3131 33.0655 29.3615 33.0655 29.4081 33.0548C29.506 33.0179 29.586 32.9448 29.6316 32.8506C29.6772 32.7564 29.6849 32.6483 29.6531 32.5486V32.5214ZM29.8164 27.5897C29.8767 27.6218 29.944 27.6386 30.0123 27.6387C30.1005 27.6402 30.1868 27.6126 30.2578 27.5602C30.3289 27.5078 30.3807 27.4336 30.4055 27.3489C30.4302 27.2642 30.4264 27.1737 30.3947 27.0913C30.363 27.009 30.3052 26.9393 30.23 26.893C30.1872 26.8626 30.1381 26.8419 30.0864 26.8325C30.0347 26.8231 29.9815 26.8252 29.9306 26.8386C29.8763 26.8506 29.825 26.8737 29.7801 26.9065C29.7351 26.9392 29.6974 26.981 29.6694 27.0291C29.6402 27.0767 29.6209 27.1296 29.6125 27.1847C29.6041 27.2399 29.6068 27.2961 29.6204 27.3502C29.6348 27.4015 29.6596 27.4492 29.6934 27.4905C29.7271 27.5317 29.769 27.5655 29.8164 27.5897ZM31.5092 35.9887C31.5673 36.0273 31.6354 36.0481 31.7052 36.0486C31.7431 36.0539 31.7816 36.0539 31.8195 36.0486C31.8949 36.0262 31.9622 35.9822 32.0129 35.922C32.0637 35.8618 32.0956 35.788 32.1049 35.7098C32.1142 35.6317 32.1003 35.5525 32.0651 35.4821C32.0298 35.4117 31.9747 35.3532 31.9066 35.3137C31.8163 35.2598 31.7083 35.2438 31.6063 35.2693C31.5042 35.2948 31.4165 35.3597 31.3622 35.4498C31.3335 35.4925 31.3139 35.5406 31.3045 35.5912C31.2952 35.6417 31.2963 35.6937 31.3078 35.7438C31.3362 35.8532 31.4066 35.9471 31.5038 36.005L31.5092 35.9887ZM38.4385 24.4109C38.4817 24.4187 38.5259 24.4187 38.5691 24.4109C38.6519 24.409 38.7322 24.3827 38.8 24.3352C38.8679 24.2877 38.9201 24.2213 38.9501 24.1442C38.9702 24.0958 38.9805 24.044 38.9805 23.9917C38.9805 23.9394 38.9702 23.8876 38.9501 23.8393C38.9272 23.788 38.8943 23.7417 38.8531 23.7034C38.812 23.665 38.7635 23.6354 38.7106 23.6162C38.6617 23.5947 38.6089 23.5836 38.5555 23.5836C38.5021 23.5836 38.4493 23.5947 38.4004 23.6162C38.3498 23.6426 38.305 23.6788 38.2685 23.7227C38.2321 23.7666 38.2047 23.8174 38.1881 23.872C38.1613 23.9716 38.1727 24.0776 38.22 24.1692C38.2674 24.2609 38.3472 24.3315 38.4439 24.3673L38.4385 24.4109ZM39.6687 24.9117C39.7276 24.9477 39.7955 24.9666 39.8646 24.9661C39.9352 24.9654 40.0046 24.9472 40.0664 24.9129C40.1282 24.8787 40.1804 24.8296 40.2184 24.7701C40.2726 24.6803 40.2902 24.5731 40.2674 24.4707C40.239 24.3613 40.1686 24.2674 40.0715 24.2095C40.0262 24.1796 39.9749 24.1602 39.9213 24.1527C39.8676 24.1451 39.8129 24.1497 39.7612 24.1659C39.7077 24.1817 39.6579 24.2082 39.6149 24.2437C39.5718 24.2793 39.5364 24.3232 39.5108 24.3728C39.4615 24.4663 39.4505 24.5753 39.4799 24.6768C39.5093 24.7783 39.577 24.8645 39.6687 24.9171V24.9117ZM30.5838 26.3868C30.664 26.4461 30.7624 26.4754 30.8619 26.4694C30.9615 26.4634 31.0557 26.4226 31.1282 26.3541C31.194 26.2787 31.2303 26.182 31.2303 26.082C31.2303 25.9819 31.194 25.8852 31.1282 25.8098C31.0916 25.7739 31.0482 25.7458 31.0005 25.7271C30.9528 25.7084 30.9018 25.6995 30.8506 25.7009C30.7946 25.7023 30.7394 25.7149 30.6884 25.738C30.6373 25.761 30.5914 25.7941 30.5533 25.8352C30.5153 25.8763 30.4859 25.9246 30.4668 25.9773C30.4477 26.0299 30.4394 26.0859 30.4423 26.1418C30.4464 26.195 30.4616 26.2466 30.487 26.2935C30.5123 26.3404 30.5471 26.3814 30.5893 26.414L30.5838 26.3868ZM35.8094 24.0843C35.9143 24.0773 36.0123 24.0295 36.0825 23.9512C36.1527 23.8729 36.1895 23.7702 36.185 23.6651C36.1854 23.6131 36.1749 23.5615 36.1543 23.5138C36.1336 23.466 36.1033 23.423 36.0652 23.3875C36.0233 23.3497 35.9743 23.3205 35.9211 23.3018C35.8678 23.2832 35.8113 23.2753 35.755 23.2787C35.6999 23.2792 35.6456 23.2916 35.5958 23.3151C35.546 23.3386 35.5019 23.3726 35.4665 23.4148C35.4311 23.4553 35.4049 23.5031 35.3899 23.5548C35.3748 23.6065 35.3712 23.6609 35.3794 23.7141C35.3913 23.8157 35.44 23.9093 35.5161 23.9775C35.5923 24.0457 35.6908 24.0836 35.7931 24.0843H35.8094ZM31.8793 25.554C31.9661 25.5544 32.0504 25.5256 32.1188 25.4723C32.1969 25.4074 32.2483 25.3161 32.2633 25.2157C32.2784 25.1153 32.256 25.0129 32.2005 24.928C32.1711 24.8849 32.1332 24.8482 32.0893 24.8202C32.0453 24.7921 31.9961 24.7732 31.9447 24.7647C31.8892 24.7565 31.8328 24.7595 31.7785 24.7735C31.7243 24.7876 31.6734 24.8123 31.6289 24.8463C31.5841 24.8789 31.5464 24.9203 31.5183 24.9681C31.4902 25.0159 31.4723 25.0689 31.4656 25.1239C31.4576 25.1763 31.4612 25.2298 31.4763 25.2807C31.4913 25.3315 31.5175 25.3783 31.5528 25.4179C31.5929 25.4654 31.6429 25.5036 31.6993 25.5299C31.7557 25.5563 31.8171 25.57 31.8793 25.5703V25.554ZM37.6329 26.7243C37.5766 26.7082 37.5177 26.7037 37.4597 26.7112C37.4016 26.7187 37.3457 26.738 37.2954 26.7678C37.2506 26.7939 37.212 26.8293 37.1819 26.8715C37.1519 26.9137 37.1312 26.9619 37.1212 27.0128C37.0954 27.1123 37.1087 27.2179 37.1583 27.308C37.2079 27.3981 37.29 27.4658 37.3879 27.4972C37.4293 27.5054 37.4718 27.5054 37.5131 27.4972C37.5957 27.4946 37.6757 27.468 37.7434 27.4207C37.8111 27.3733 37.8635 27.3072 37.8942 27.2305C37.9142 27.1841 37.9246 27.1341 37.9246 27.0835C37.9246 27.033 37.9142 26.9829 37.8942 26.9366C37.871 26.8823 37.8368 26.8334 37.7937 26.7931C37.7505 26.7528 37.6995 26.722 37.6438 26.7025L37.6329 26.7243ZM33.0932 24.8082C33.1516 24.8086 33.2093 24.7956 33.2619 24.7701C33.3573 24.721 33.4302 24.6372 33.4657 24.5359C33.5011 24.4347 33.4964 24.3237 33.4525 24.2258C33.4323 24.1773 33.402 24.1337 33.3635 24.098C33.325 24.0623 33.2792 24.0353 33.2293 24.019C33.1778 23.9961 33.1222 23.9844 33.066 23.9844C33.0097 23.9844 32.9541 23.9961 32.9027 24.019C32.8521 24.0426 32.807 24.0766 32.7704 24.1188C32.7338 24.161 32.7066 24.2104 32.6904 24.2639C32.6738 24.3132 32.6682 24.3655 32.6738 24.4172C32.6795 24.4689 32.6963 24.5187 32.723 24.5633C32.7591 24.6302 32.8125 24.6862 32.8776 24.7255C32.9427 24.7648 33.0172 24.7858 33.0932 24.7865V24.8082ZM46.9246 30.7414C46.9169 30.6874 46.8985 30.6355 46.8704 30.5888C46.8424 30.5421 46.8053 30.5014 46.7613 30.4692C46.7197 30.438 46.6721 30.4156 46.6216 30.4035C46.571 30.3913 46.5185 30.3896 46.4673 30.3985C46.3636 30.4133 46.2699 30.4686 46.2067 30.5522C46.1435 30.6358 46.1158 30.741 46.1298 30.8448C46.1461 30.9297 46.1879 31.0075 46.2496 31.068C46.2914 31.1114 46.3425 31.1448 46.3991 31.1655C46.4557 31.1863 46.5162 31.1939 46.5762 31.1877C46.629 31.1846 46.6805 31.1704 46.7274 31.146C46.7743 31.1217 46.8155 31.0876 46.8483 31.0462C46.8808 31.0031 46.9043 30.9539 46.9174 30.9015C46.9305 30.8492 46.9329 30.7947 46.9246 30.7414ZM45.7706 35.2484C45.6724 35.2071 45.5623 35.2037 45.4617 35.2389C45.3612 35.2741 45.2773 35.3454 45.2263 35.4389C45.1975 35.5039 45.1844 35.5748 45.1882 35.6458C45.1937 35.7156 45.2172 35.7829 45.2563 35.841C45.2953 35.8992 45.3487 35.9463 45.4113 35.9778C45.4596 35.9979 45.5114 36.0082 45.5637 36.0082C45.6161 36.0082 45.6678 35.9979 45.7161 35.9778C45.8215 35.9403 45.9089 35.8645 45.9611 35.7655C45.9825 35.7147 45.9935 35.6601 45.9935 35.605C45.9935 35.5498 45.9825 35.4952 45.9611 35.4444C45.9447 35.3945 45.9178 35.3487 45.8821 35.3102C45.8464 35.2717 45.8028 35.2413 45.7542 35.2212L45.7706 35.2484ZM45.1065 36.6909C45.0168 36.6387 44.9107 36.6226 44.8096 36.6458C44.7085 36.6691 44.62 36.73 44.5622 36.8161C44.518 36.8897 44.499 36.9757 44.5077 37.061C44.5127 37.1209 44.5303 37.179 44.5594 37.2316C44.5885 37.2841 44.6284 37.3299 44.6765 37.3659C44.7192 37.3958 44.7676 37.4166 44.8186 37.4271C44.8697 37.4375 44.9224 37.4374 44.9734 37.4267C45.0245 37.416 45.0727 37.3949 45.1153 37.3648C45.1578 37.3347 45.1938 37.2961 45.2208 37.2516C45.2507 37.2053 45.2709 37.1535 45.2803 37.0993C45.2896 37.045 45.2879 36.9894 45.2752 36.9358C45.264 36.8848 45.2422 36.8366 45.2113 36.7944C45.1804 36.7522 45.141 36.717 45.0956 36.6909H45.1065ZM45.0956 45.4981C45.0956 44.3768 44.1975 43.8651 42.951 43.8651C42.5474 43.8545 42.1459 43.9267 41.7714 44.0775C41.3969 44.2282 41.0573 44.4542 40.7737 44.7415L41.318 45.2858C41.5324 45.0733 41.7876 44.9063 42.0682 44.795C42.3489 44.6836 42.6492 44.6303 42.951 44.6381C43.8382 44.6381 44.2737 44.9429 44.2737 45.46C44.2702 45.6143 44.2227 45.7643 44.1369 45.8926C44.0511 46.0208 43.9305 46.1219 43.7892 46.184L40.9097 47.817V48.7042H45.1174V47.9204H42.2869L44.339 46.7718C44.5949 46.6574 44.8134 46.473 44.9694 46.2401C45.1254 46.0071 45.2125 45.7348 45.2208 45.4546L45.0956 45.4981ZM46.6687 32.2437C46.6273 32.2122 46.5798 32.1897 46.5292 32.1775C46.4786 32.1653 46.426 32.1638 46.3748 32.173C46.3236 32.1803 46.2744 32.1977 46.2299 32.2241C46.1855 32.2506 46.1467 32.2855 46.1158 32.327C46.085 32.3685 46.0626 32.4157 46.0501 32.4659C46.0375 32.516 46.035 32.5682 46.0428 32.6193C46.055 32.7044 46.0952 32.7829 46.157 32.8425C46.2001 32.8857 46.2523 32.9189 46.3097 32.9396C46.3671 32.9603 46.4284 32.968 46.4891 32.9623C46.5425 32.9535 46.5935 32.9334 46.6385 32.9033C46.6836 32.8733 46.7217 32.834 46.7504 32.7881C46.7828 32.745 46.8063 32.6958 46.8194 32.6434C46.8325 32.591 46.835 32.5366 46.8266 32.4832C46.8202 32.4289 46.8023 32.3765 46.7742 32.3296C46.746 32.2827 46.7082 32.2423 46.6633 32.2111L46.6687 32.2437ZM28.8366 31.5851C28.9083 31.6451 28.9989 31.6779 29.0924 31.6776H29.1414C29.2445 31.6643 29.3392 31.614 29.4081 31.5361C29.4787 31.457 29.5158 31.3536 29.5115 31.2476C29.5008 31.1437 29.4521 31.0473 29.3748 30.977C29.2974 30.9067 29.1969 30.8674 29.0924 30.8666C29.0412 30.8667 28.9906 30.8773 28.9437 30.8979C28.8969 30.9186 28.8548 30.9487 28.8202 30.9863C28.7816 31.028 28.7517 31.0768 28.732 31.1301C28.7124 31.1833 28.7035 31.2399 28.7059 31.2966C28.7106 31.4087 28.7596 31.5144 28.842 31.5906L28.8366 31.5851ZM41.122 25.7771C41.1782 25.7771 41.2338 25.7655 41.2853 25.7431C41.3369 25.7206 41.3832 25.6877 41.4214 25.6465C41.4585 25.6097 41.4874 25.5654 41.5062 25.5166C41.5249 25.4678 41.5331 25.4156 41.5303 25.3634C41.5241 25.2501 41.4755 25.1432 41.3942 25.0641C41.3546 25.0283 41.308 25.0012 41.2575 24.9843C41.2069 24.9675 41.1534 24.9613 41.1003 24.9661C41.0433 24.9692 40.9876 24.9844 40.9369 25.0107C40.8862 25.037 40.8417 25.0737 40.8063 25.1185C40.7476 25.2003 40.7207 25.3007 40.7307 25.4009C40.7407 25.5012 40.787 25.5943 40.8607 25.6628C40.9323 25.7273 41.0257 25.7624 41.122 25.7608V25.7771ZM39.8483 45.509C39.8483 44.3877 38.9556 43.876 37.7037 43.876C37.3002 43.866 36.8989 43.9386 36.5245 44.0893C36.15 44.24 35.8104 44.4656 35.5263 44.7524L36.0707 45.2967C36.2858 45.0852 36.5411 44.9188 36.8216 44.8076C37.1021 44.6963 37.402 44.6424 37.7037 44.649C38.5909 44.649 39.0209 44.9538 39.0209 45.4709C39.0187 45.6255 38.9718 45.7761 38.8858 45.9046C38.7999 46.0331 38.6785 46.1339 38.5365 46.1949L35.657 47.8278V48.7151H39.7612V47.9313H36.9525L39.0046 46.7827C39.2591 46.6669 39.4761 46.4822 39.631 46.2493C39.7859 46.0165 39.8725 45.745 39.881 45.4655L39.8483 45.509ZM46.3585 33.8604C46.3073 33.844 46.2533 33.8384 46.1999 33.844C46.1464 33.8496 46.0948 33.8663 46.0482 33.8931C45.9612 33.946 45.8972 34.0294 45.8686 34.1271C45.8609 34.1795 45.8609 34.2326 45.8686 34.285C45.8762 34.3614 45.9053 34.4342 45.9525 34.4949C45.9997 34.5555 46.063 34.6016 46.1353 34.6279C46.1851 34.6495 46.2388 34.6606 46.2931 34.6606C46.3474 34.6606 46.4012 34.6495 46.451 34.6279C46.5248 34.5921 46.5859 34.5345 46.6261 34.463C46.6663 34.3915 46.6838 34.3095 46.6761 34.2278C46.6684 34.1461 46.6359 34.0687 46.5831 34.006C46.5302 33.9432 46.4594 33.8981 46.3802 33.8767L46.3585 33.8604ZM26.9586 30.6108C26.9661 32.8559 26.2374 35.0416 24.8841 36.8331C23.5309 38.6245 21.6276 39.9229 19.4659 40.5295C17.3042 41.136 15.0033 41.0171 12.9157 40.1911C10.828 39.3651 9.06866 37.8774 7.90717 35.9561C7.81464 35.8091 7.72753 35.6512 7.64044 35.4934C6.8695 34.0737 6.4454 32.4918 6.40283 30.8769C6.36026 29.262 6.70043 27.66 7.3955 26.2017C7.47171 26.0439 7.54791 25.8914 7.62956 25.7445C7.81717 25.3962 8.02622 25.0598 8.25553 24.7375C8.37529 24.5633 8.50049 24.3945 8.63657 24.2258C9.96145 22.5573 11.7726 21.3423 13.819 20.7493C15.8654 20.1563 18.0456 20.2147 20.0573 20.9164C22.069 21.6181 23.8125 22.9283 25.0462 24.6653C26.2798 26.4024 26.9425 28.4802 26.9423 30.6108H26.9586ZM26.398 30.6108C26.3987 28.4317 25.6654 26.316 24.3163 24.6049C22.9671 22.8938 21.0809 21.6871 18.9618 21.1795C16.8427 20.6719 14.6145 20.893 12.6365 21.8072C10.6585 22.7213 9.04615 24.2752 8.05958 26.218C7.97793 26.3813 7.90172 26.5446 7.83096 26.697C7.57319 27.2762 7.37441 27.8798 7.23764 28.4988C7.18865 28.7328 7.14511 28.9288 7.11789 29.1193C7.04154 29.6128 7.00333 30.1114 7.00359 30.6108C7.00573 31.2986 7.07868 31.9845 7.22131 32.6574C7.26486 32.8479 7.31385 33.0439 7.37373 33.2562C7.54146 33.841 7.7619 34.4095 8.03236 34.9545C8.11401 35.1124 8.20654 35.2756 8.29907 35.4389C9.36335 37.2901 11.009 38.738 12.9805 39.558C14.9521 40.378 17.1392 40.5242 19.2023 39.9738C21.2654 39.4234 23.0891 38.2073 24.3902 36.5143C25.6914 34.8213 26.3971 32.746 26.398 30.6108ZM43.1578 39.1458C43.114 39.1179 43.065 39.099 43.0138 39.0902C42.9625 39.0813 42.9101 39.0828 42.8594 39.0944C42.8088 39.1061 42.7609 39.1277 42.7187 39.158C42.6765 39.1883 42.6407 39.2267 42.6135 39.271C42.5667 39.3437 42.5456 39.4299 42.5536 39.516C42.5592 39.5762 42.5777 39.6346 42.6077 39.6872C42.6378 39.7398 42.6787 39.7853 42.7278 39.8208C42.7707 39.8512 42.8194 39.8727 42.8708 39.8839C42.9223 39.8951 42.9754 39.8959 43.0272 39.8861C43.0804 39.875 43.1308 39.8528 43.1749 39.8209C43.219 39.789 43.2558 39.7481 43.283 39.701C43.3408 39.6086 43.3603 39.4973 43.3374 39.3908C43.3108 39.2893 43.2466 39.2017 43.1578 39.1458ZM23.23 34.8239C23.243 34.8979 23.2406 34.9739 23.2228 35.047C23.205 35.1201 23.1722 35.1886 23.1265 35.2484C23.1071 35.2801 23.0784 35.3049 23.0443 35.3195C23.0101 35.3341 22.9723 35.3378 22.936 35.3301C22.8598 35.3301 22.8381 35.2484 22.8163 35.1777C22.8 35.0913 22.8 35.0027 22.8163 34.9164C22.8593 34.5626 22.7887 34.2042 22.6149 33.8931C22.4855 33.6087 22.4456 33.2916 22.5006 32.984C22.5214 32.8077 22.4974 32.629 22.4308 32.4644C22.3642 32.2998 22.2571 32.1546 22.1196 32.0423C21.9619 31.8984 21.8163 31.7418 21.6841 31.5742C21.6328 31.5128 21.5948 31.4414 21.5723 31.3647C21.5498 31.2879 21.5434 31.2073 21.5535 31.1279C21.5646 30.9665 21.5225 30.8059 21.4337 30.6706C21.4128 30.6363 21.385 30.6066 21.3521 30.5836C21.3191 30.5606 21.2817 30.5448 21.2422 30.5371C21.2027 30.5294 21.1621 30.53 21.1229 30.539C21.0837 30.5479 21.0468 30.5649 21.0146 30.589C20.9905 30.6034 20.971 30.6243 20.9585 30.6494C20.946 30.6745 20.9409 30.7026 20.9438 30.7305C20.9601 30.8533 20.9457 30.9781 20.902 31.094C20.8583 31.2098 20.7867 31.3131 20.6934 31.3946C20.4975 31.5797 20.5247 31.7647 20.7261 31.9389L20.7805 31.9879C20.9225 32.0797 21.0298 32.2164 21.085 32.3762C21.1403 32.5361 21.1404 32.7098 21.0853 32.8697C21.0531 33.0054 21.0349 33.144 21.0309 33.2834C21.0128 33.4589 20.9405 33.6244 20.8241 33.757C20.6364 34.033 20.5187 34.3506 20.4811 34.6823C20.4387 34.9211 20.3768 35.1559 20.2961 35.3845C20.2843 35.4161 20.2661 35.4448 20.2425 35.4688C20.2189 35.4929 20.1906 35.5117 20.1592 35.524C20.1279 35.5363 20.0943 35.5419 20.0607 35.5404C20.0271 35.5389 19.9941 35.5303 19.964 35.5151C19.8388 35.4662 19.8062 35.3627 19.8769 35.2158C19.9551 35.0443 20.0519 34.8818 20.1654 34.7313C20.2519 34.5906 20.2972 34.4284 20.2961 34.2632C20.3058 34.1905 20.3241 34.1193 20.3505 34.0509C20.4867 33.664 20.5851 33.2647 20.6444 32.8588C20.6559 32.7865 20.6527 32.7125 20.6349 32.6414C20.6171 32.5704 20.5852 32.5036 20.541 32.4451C20.496 32.395 20.4593 32.3381 20.4322 32.2764C20.2676 31.941 20.0528 31.6326 19.7953 31.3619C19.7665 31.3131 19.7249 31.2731 19.675 31.2462C19.6251 31.2193 19.5688 31.2066 19.5122 31.2095C19.4034 31.2095 19.2673 31.4381 19.2509 31.5906C19.2441 31.6865 19.2571 31.7829 19.289 31.8736C19.328 31.9994 19.3536 32.1289 19.3653 32.2601C19.3812 32.3541 19.3691 32.4507 19.3303 32.5379C19.2916 32.625 19.228 32.6988 19.1475 32.75C18.6764 33.113 18.287 33.5711 18.0044 34.0945C17.8988 34.2913 17.769 34.4742 17.618 34.6388C17.5572 34.7143 17.5245 34.8086 17.5254 34.9055C17.5254 35.0906 17.4656 35.1396 17.3186 35.1396C17.1716 35.1396 17.1117 35.0742 17.1716 34.9218C17.3102 34.6183 17.4741 34.327 17.6615 34.0509C17.9654 33.6159 18.3021 33.2046 18.6685 32.8207C18.796 32.7073 18.8811 32.5539 18.9098 32.3857C18.9385 32.2176 18.9091 32.0446 18.8264 31.8954C18.7323 31.7579 18.6024 31.6487 18.4508 31.5797C18.2766 31.4762 18.0915 31.3837 17.9065 31.2912C17.8618 31.2717 17.8211 31.244 17.7867 31.2095C17.7418 31.1418 17.676 31.0908 17.5993 31.0642C17.5226 31.0377 17.4392 31.0371 17.3621 31.0626C17.3621 31.0626 17.3023 31.0625 17.2914 31.0299C17.2825 31.01 17.2809 30.9877 17.2869 30.9668C17.2929 30.9459 17.306 30.9278 17.324 30.9156C17.3894 30.8666 17.4601 30.8285 17.5309 30.7795C17.6016 30.7305 17.618 30.7251 17.5962 30.6652C17.5869 30.6399 17.5697 30.6183 17.5471 30.6036C17.5246 30.5889 17.4979 30.5819 17.471 30.5835C17.3661 30.5787 17.2615 30.5992 17.1662 30.6434C16.896 30.7882 16.6002 30.8788 16.2952 30.9101C16.2571 30.9172 16.2215 30.9341 16.1918 30.9591C16.0398 31.063 15.8752 31.1471 15.7019 31.2095C15.6102 31.2375 15.529 31.2925 15.4688 31.3672C15.4086 31.4419 15.3723 31.533 15.3645 31.6287C15.2375 32.3017 15.1484 32.9814 15.0977 33.6644C15.0785 33.9876 15.0293 34.3084 14.9508 34.6225C14.9366 34.6746 14.9184 34.7256 14.8963 34.7749C14.8691 34.8347 14.8419 34.8946 14.7603 34.8783C14.6786 34.862 14.7113 34.7803 14.7113 34.7259C14.7376 34.2763 14.794 33.8289 14.88 33.3868C14.9617 32.886 15.1141 32.4016 15.1794 31.8954C15.2338 31.5198 15.1522 31.4436 14.782 31.5307C14.7556 31.5366 14.7323 31.5521 14.7167 31.5742C14.6629 31.6419 14.5926 31.6945 14.5125 31.727C14.4323 31.7594 14.3452 31.7705 14.2595 31.7593C14.1243 31.7427 13.9871 31.7605 13.8606 31.8109C13.734 31.8613 13.6223 31.9428 13.5355 32.0478C13.3987 32.1844 13.2382 32.295 13.0619 32.3744C12.9432 32.4377 12.8427 32.5306 12.7703 32.6441C12.6978 32.7575 12.6558 32.8877 12.6483 33.0221C12.6202 33.4531 12.655 33.8858 12.7517 34.3067C12.8255 34.6665 12.88 35.0299 12.915 35.3954C12.915 35.575 12.8007 35.6349 12.6483 35.5533C12.5908 35.5169 12.5439 35.4661 12.5124 35.4059C12.4809 35.3457 12.4658 35.2782 12.4686 35.2103C12.4686 34.9872 12.4414 34.7694 12.4686 34.5517C12.4749 34.1245 12.4086 33.6993 12.2727 33.2943C12.219 33.1181 12.2041 32.9324 12.2291 32.75C12.2571 32.5853 12.3466 32.4374 12.4795 32.3363C12.5701 32.2613 12.6489 32.1732 12.7136 32.075C12.7136 32.0315 12.7517 31.9988 12.6864 31.9607C12.621 31.9226 12.5666 31.8083 12.4958 31.792C12.4251 31.7756 12.3761 31.9008 12.2999 31.9335C12.073 32.0183 11.8588 32.1337 11.663 32.2764C11.5263 32.3884 11.413 32.5264 11.3299 32.6825C11.2468 32.8385 11.1953 33.0094 11.1786 33.1854C11.1514 33.6023 11.1514 34.0205 11.1786 34.4374C11.1551 34.6919 11.1151 34.9446 11.0588 35.194C11.0562 35.2187 11.0486 35.2427 11.0363 35.2643C11.024 35.2859 11.0073 35.3047 10.9873 35.3195C10.9674 35.3344 10.9446 35.3449 10.9203 35.3505C10.8961 35.356 10.871 35.3565 10.8465 35.3519C10.7322 35.3519 10.705 35.2484 10.705 35.1504C10.6976 35.0624 10.7068 34.9738 10.7322 34.8892C10.8434 34.5114 10.8713 34.1139 10.8139 33.7243C10.7764 33.4237 10.8058 33.1186 10.8999 32.8306C10.994 32.5427 11.1505 32.2791 11.3582 32.0587C11.5233 31.8878 11.7058 31.7346 11.9025 31.6014C12.0332 31.5143 12.0168 31.4436 11.9352 31.3456C11.8333 31.2472 11.7599 31.1231 11.7229 30.9863C11.6724 30.7681 11.6784 30.5406 11.7403 30.3254C11.8022 30.1101 11.918 29.9142 12.0767 29.7562C12.191 29.6419 12.3162 29.5439 12.4305 29.4296C12.5078 29.333 12.5609 29.2195 12.5855 29.0983C12.6101 28.9771 12.6055 28.8519 12.572 28.7328C12.5669 28.727 12.5607 28.7224 12.5536 28.7192C12.5466 28.716 12.539 28.7144 12.5312 28.7144C12.5235 28.7144 12.5159 28.716 12.5088 28.7192C12.5018 28.7224 12.4955 28.727 12.4904 28.7328C12.4239 28.7462 12.3555 28.7462 12.289 28.7328C12.2332 28.7268 12.1768 28.7334 12.1238 28.752C12.0709 28.7707 12.0228 28.801 11.9832 28.8407C11.9435 28.8804 11.9132 28.9284 11.8945 28.9814C11.8759 29.0343 11.8693 29.0907 11.8753 29.1465C11.8832 29.2134 11.8832 29.281 11.8753 29.3479C11.871 29.3682 11.8625 29.3873 11.8503 29.4041C11.8381 29.4208 11.8225 29.4348 11.8045 29.4451C11.7865 29.4553 11.7665 29.4617 11.7459 29.4637C11.7253 29.4657 11.7044 29.4634 11.6848 29.4568C11.5923 29.4568 11.5705 29.3806 11.5759 29.2935C11.586 29.1835 11.6255 29.0782 11.6902 28.9887C11.7283 28.9288 11.7665 28.8744 11.7991 28.8145C11.8164 28.7933 11.8285 28.7683 11.8344 28.7415C11.8402 28.7147 11.8397 28.687 11.8328 28.6604C11.8259 28.6339 11.8129 28.6094 11.7947 28.5889C11.7766 28.5684 11.7538 28.5524 11.7283 28.5423C11.615 28.4798 11.5231 28.3846 11.4649 28.269C11.4066 28.1534 11.3846 28.0229 11.4017 27.8946C11.4126 27.8517 11.4126 27.8068 11.4017 27.7639C11.3419 27.617 11.4018 27.5625 11.5433 27.5244L11.7229 27.4645C11.957 27.3829 11.9787 27.3502 11.9134 27.1107C11.9134 27.04 11.8808 26.9692 11.9787 26.9529C12.0767 26.9365 12.1366 26.9529 12.1584 27.0509C12.1608 27.0744 12.1608 27.0981 12.1584 27.1216C12.1584 27.1869 12.191 27.2087 12.2509 27.2087C12.3816 27.2129 12.51 27.244 12.628 27.3002C12.746 27.3564 12.8512 27.4365 12.9368 27.5353L13.0347 27.6278C13.0728 27.6278 13.1109 27.6714 13.1218 27.5952C13.1327 27.519 13.1218 27.4918 13.149 27.4428C13.1762 27.3938 13.1871 27.3666 13.2361 27.3611C13.2851 27.3557 13.3069 27.3611 13.3341 27.421C13.3517 27.4536 13.361 27.4901 13.361 27.5271C13.361 27.5642 13.3517 27.6007 13.3341 27.6333C13.296 27.7313 13.3341 27.7857 13.4158 27.8184C13.5218 27.8577 13.6092 27.9354 13.6607 28.0361C13.6998 27.9586 13.7185 27.8724 13.7151 27.7857C13.7151 27.7476 13.7151 27.6659 13.7805 27.6823C13.8458 27.6986 13.9274 27.6823 13.9274 27.7857C13.9386 27.8487 13.9386 27.9132 13.9274 27.9762C13.9141 28.0081 13.9072 28.0423 13.9072 28.0769C13.9072 28.1115 13.9141 28.1457 13.9274 28.1776C13.9819 28.281 14.0526 28.2429 14.1125 28.1776C14.1662 28.1137 14.1952 28.0325 14.1941 27.949C14.1941 27.8347 14.2431 27.7639 14.3847 27.7748C14.5701 27.756 14.7528 27.7158 14.929 27.6551C15.0106 27.6551 14.9725 27.5571 14.9671 27.5027C14.9478 27.4279 14.9539 27.3488 14.9844 27.2778C15.015 27.2069 15.0682 27.1481 15.1358 27.1107C15.1834 27.0861 15.2372 27.0761 15.2904 27.0819C15.3437 27.0877 15.394 27.1091 15.4352 27.1434C15.5604 27.2414 15.5441 27.372 15.5278 27.5027C15.5171 27.5447 15.5006 27.585 15.4788 27.6224C15.408 27.7803 15.4298 27.8238 15.5985 27.8673C15.6605 27.8851 15.7255 27.8895 15.7893 27.8804C15.8531 27.8713 15.9142 27.8487 15.9687 27.8143C16.0232 27.7799 16.0698 27.7343 16.1054 27.6806C16.1411 27.6269 16.165 27.5662 16.1755 27.5027C16.3769 26.4848 16.6327 25.4832 16.8668 24.4762C16.943 24.1333 17.0247 23.7903 17.0954 23.4474C17.1226 23.3222 17.1879 23.2896 17.3077 23.3277C17.2393 23.539 17.2009 23.7589 17.1934 23.9809C17.1895 24.0438 17.2045 24.1065 17.2365 24.1608C17.2685 24.2151 17.3161 24.2586 17.373 24.2857C17.6611 24.4207 17.962 24.5265 18.2712 24.6014C18.7689 24.7136 19.2391 24.9246 19.6537 25.2219C19.6864 25.2219 19.7681 25.2709 19.7191 25.3199C19.6701 25.3689 19.6265 25.4505 19.5286 25.3798C19.4306 25.309 19.1911 25.1675 19.0169 25.0695C18.9019 25.0082 18.7792 24.9625 18.6522 24.9334C18.6309 24.924 18.6078 24.9195 18.5845 24.9204C18.5613 24.9213 18.5385 24.9275 18.518 24.9385C18.4975 24.9495 18.4798 24.9651 18.4663 24.984C18.4527 25.003 18.4437 25.0248 18.4399 25.0477C18.3812 25.2416 18.3573 25.4443 18.3691 25.6465C18.3691 25.7336 18.4345 25.7608 18.4943 25.788C18.7044 25.8623 18.9214 25.9152 19.1421 25.9459C19.1965 25.9459 19.2673 25.9459 19.2727 26.0547C19.2782 26.1636 19.2727 26.2398 19.1149 26.2072C18.8956 26.1479 18.6837 26.0639 18.4835 25.9568C18.4504 25.9431 18.4148 25.9365 18.379 25.9374C18.3432 25.9384 18.308 25.9468 18.2757 25.9622C18.2434 25.9776 18.2146 25.9996 18.1914 26.0268C18.1681 26.054 18.1508 26.0858 18.1405 26.1201C18.1126 26.2731 18.0926 26.4276 18.0807 26.5827C18.0807 26.6426 18.1187 26.6644 18.1623 26.6916C18.36 26.824 18.5852 26.9096 18.8209 26.942C18.8699 26.942 18.957 26.942 18.9461 27.04C18.9352 27.138 18.9135 27.1652 18.8209 27.1434C18.5397 27.0935 18.2691 26.9959 18.0208 26.8549C17.7327 26.6782 17.4094 26.5667 17.0736 26.5283C16.9588 26.5072 16.8483 26.4667 16.747 26.4086C16.6055 26.3269 16.5892 26.3269 16.5565 26.4848C16.4803 26.8712 16.4041 27.2577 16.3225 27.6496C16.2408 28.0415 16.1537 28.4716 16.0721 28.8852C16.0721 28.9723 16.0231 29.0812 16.0721 29.1465C16.1211 29.2118 16.2626 29.1465 16.3606 29.1465C16.935 28.9119 17.5432 28.7704 18.1623 28.7274C18.8216 28.6946 19.4695 28.908 19.9804 29.3261C20.2964 29.5687 20.5768 29.8546 20.8132 30.1753C20.8676 30.2515 20.9275 30.3005 21.02 30.2569C21.1125 30.2134 21.0636 30.2569 21.0799 30.2569C21.4446 30.1753 21.5589 30.2569 21.695 30.6271C21.7261 30.729 21.7516 30.8326 21.7712 30.9374C21.8585 31.2689 22.0636 31.5572 22.3482 31.7484C22.473 31.8497 22.5879 31.9627 22.6911 32.0859C22.7671 32.1588 22.822 32.251 22.8498 32.3526C22.8776 32.4542 22.8773 32.5614 22.849 32.6629C22.7733 33.0284 22.8113 33.4083 22.9578 33.7515C23.1018 34.102 23.2077 34.467 23.2735 34.8402L23.23 34.8239ZM12.4251 28.4335C12.3268 28.1991 12.1496 28.0066 11.9243 27.8891C11.7937 27.8565 11.6576 27.8401 11.5269 27.8129C11.3963 27.7857 11.429 27.8129 11.4072 27.8782C11.3807 27.9978 11.3994 28.1229 11.4597 28.2294C11.52 28.336 11.6177 28.4164 11.7338 28.4552C11.7773 28.4552 11.8045 28.4552 11.8263 28.4117C11.8353 28.3941 11.8497 28.3799 11.8673 28.3711C11.8849 28.3623 11.9049 28.3594 11.9243 28.3627C11.9733 28.3627 11.9243 28.428 11.9243 28.4716C11.8807 28.6131 11.9842 28.6457 12.0876 28.6621C12.191 28.6784 12.4142 28.5478 12.4088 28.4443L12.4251 28.4335ZM14.6242 28.0524C14.5843 28.0176 14.5358 27.9942 14.4838 27.9846C14.4318 27.975 14.3781 27.9797 14.3285 27.9981C14.2789 28.0165 14.2352 28.0479 14.2019 28.0891C14.1687 28.1303 14.1472 28.1797 14.1397 28.232C14.114 28.3684 14.1031 28.5071 14.1071 28.6457C14.1071 28.76 14.1071 28.8363 14.1071 28.9179C14.1022 28.9733 14.1155 29.0287 14.145 29.0759C14.1744 29.123 14.2184 29.1593 14.2703 29.1792C14.3955 29.2445 14.4228 29.2282 14.4282 29.0812C14.4336 28.9342 14.4282 28.8526 14.4718 28.7709C14.5823 28.6249 14.6518 28.452 14.6732 28.2701C14.6854 28.2328 14.6873 28.1929 14.6787 28.1545C14.67 28.1162 14.6512 28.0809 14.6242 28.0524ZM15.8326 28.4062C15.8326 28.3191 15.8761 28.1831 15.7237 28.1232C15.6217 28.0829 15.5081 28.0836 15.4066 28.1252C15.3052 28.1668 15.2237 28.2461 15.1794 28.3464C15.1006 28.5455 15.0618 28.7582 15.0651 28.9723C15.0651 29.1247 15.1848 29.2064 15.3209 29.2554C15.457 29.3044 15.4896 29.2064 15.5441 29.1247C15.5538 29.1078 15.5667 29.093 15.5822 29.0812C15.68 29.0004 15.7558 28.8961 15.8025 28.7781C15.8491 28.66 15.8651 28.5321 15.8489 28.4062H15.8326ZM44.3717 38.0299C44.282 37.9777 44.1759 37.9616 44.0747 37.9849C43.9736 38.0081 43.8852 38.069 43.8273 38.1551C43.7855 38.2297 43.7666 38.3149 43.7729 38.4001C43.7778 38.4606 43.7959 38.5192 43.826 38.5719C43.8561 38.6246 43.8975 38.67 43.9471 38.7049C43.9894 38.7365 44.0381 38.7587 44.0897 38.77C44.1413 38.7813 44.1948 38.7813 44.2465 38.7702C44.2996 38.7588 44.3498 38.7367 44.3942 38.7053C44.4385 38.6739 44.4761 38.6339 44.5046 38.5876C44.533 38.5413 44.5518 38.4898 44.5599 38.436C44.5679 38.3823 44.565 38.3275 44.5513 38.2749C44.5401 38.2245 44.5189 38.1769 44.489 38.1348C44.4591 38.0927 44.421 38.0571 44.3771 38.0299H44.3717ZM43.7838 37.0066L43.7348 37.0828C42.8052 38.4438 41.5762 39.5739 40.1421 40.3863C38.7081 41.1987 37.107 41.6719 35.4617 41.7697C33.8164 41.8674 32.1706 41.5871 30.6504 40.9501C29.1303 40.3132 27.7762 39.3366 26.6919 38.0953C26.3867 37.7516 26.1048 37.3879 25.8482 37.0066C24.8262 38.5077 23.4529 39.7362 21.8477 40.5853C20.2425 41.4344 18.4541 41.8783 16.6382 41.8783C16.101 41.8761 15.5645 41.8379 15.0324 41.764H14.9943H14.8473H14.7494H14.6296C12.1959 41.3273 9.97967 40.085 8.33718 38.2368L8.17934 38.0517C8.10313 37.9646 8.03235 37.883 7.96159 37.7904L7.84729 37.6489C7.8135 37.6094 7.78256 37.5676 7.75475 37.5237C7.52881 37.228 7.31808 36.9209 7.12334 36.6038C7.01992 36.4351 6.92738 36.2718 6.83485 36.0976C6.42042 35.3387 6.09877 34.5328 5.87683 33.6971V41.9219H1.02687V29.5929L1.13574 29.5058C1.61053 28.9231 1.86979 28.1944 1.86979 27.4428C1.86979 26.6911 1.61053 25.9625 1.13574 25.3798L1.02687 25.2927V19.4248H5.86595V25.2927L5.75707 25.3798C5.501 25.6556 5.30416 25.9809 5.17871 26.3357C5.05326 26.6905 5.00186 27.0673 5.02768 27.4428C5.00552 28.1055 5.19628 28.758 5.572 29.3044C5.572 29.1628 5.6101 29.0213 5.63187 28.8798C5.70191 28.438 5.80195 28.0016 5.93126 27.5734L5.98025 27.3992C6.01835 27.2795 6.05646 27.1597 6.1 27.0454C6.14355 26.9311 6.16532 26.8495 6.20343 26.7569C6.24153 26.6644 6.25786 26.61 6.29052 26.5392C6.32318 26.4684 6.29052 26.5392 6.29052 26.5392L6.37217 26.3487C6.43204 26.2071 6.49736 26.0656 6.56268 25.9241C6.628 25.7826 6.72598 25.5921 6.81307 25.4288C6.98181 25.1239 7.16688 24.8191 7.3574 24.5197L7.48258 24.3347L7.75475 23.9591L7.89628 23.7794L7.98882 23.6651C9.79259 21.4441 12.3841 20.005 15.2229 19.648H15.359C15.7782 19.5997 16.1999 19.5761 16.6219 19.5772C18.7292 19.5791 20.793 20.1771 22.5749 21.3021C24.3568 22.4271 25.7841 24.0332 26.6919 25.935C26.6962 25.8859 26.7091 25.838 26.73 25.7935C26.7856 25.6954 26.8775 25.6231 26.9858 25.5921C27.091 25.5653 27.2024 25.581 27.2961 25.6356C27.3421 25.6611 27.3826 25.6955 27.4152 25.7367C27.4477 25.778 27.4718 25.8253 27.486 25.8759C27.5002 25.9266 27.5041 25.9795 27.4977 26.0317C27.4913 26.0839 27.4746 26.1343 27.4485 26.1799C27.4275 26.2257 27.3973 26.2667 27.3599 26.3004C27.3224 26.3341 27.2785 26.3598 27.2308 26.3759C27.1856 26.3811 27.1399 26.3811 27.0947 26.3759C27.0323 26.3751 26.9709 26.3602 26.9151 26.3323H26.8661C27.1565 27.0015 27.379 27.6981 27.5302 28.4117C27.6583 27.9681 27.8203 27.535 28.0146 27.1162C28.5681 25.9168 29.3739 24.8511 30.377 23.9917C31.3766 23.127 32.5523 22.4899 33.8226 22.1247C35.0943 21.7632 36.4279 21.6742 37.7363 21.8634C39.0451 22.0526 40.297 22.5244 41.4051 23.246C42.1119 23.6984 42.7514 24.2481 43.3048 24.879L43.3701 24.9661L43.4027 24.9987C44.8343 26.7624 45.4766 28.7492 45.4766 31.4273C45.4325 33.4184 44.8391 35.3586 43.762 37.0338L43.7838 37.0066ZM1.59297 24.0353H5.27806V20.0018H1.59297V24.0353ZM5.27806 24.4762H1.59297V24.9824H5.27806V24.4762ZM4.43979 27.4863C4.42003 26.759 4.60891 26.0412 4.98412 25.4179H1.89779C2.2546 26.0489 2.44212 26.7614 2.44212 27.4863C2.44212 28.2112 2.2546 28.9238 1.89779 29.5548H5.0059C4.63069 28.9314 4.44181 28.2136 4.46157 27.4863H4.43979ZM5.29984 40.1964H1.61473V41.285H5.29984V40.1964ZM5.29984 38.9934H1.61473V39.7555H5.29984V38.9934ZM5.29984 29.9957H1.61473V38.5525H5.29984V29.9957ZM27.2199 30.7305C27.2212 28.394 26.4487 26.1229 25.0231 24.2717C23.5974 22.4205 21.5989 21.0935 19.3396 20.4979C17.0803 19.9023 14.6874 20.0717 12.5345 20.9794C10.3815 21.8872 8.5898 23.4824 7.43904 25.5159C7.36284 25.6574 7.28663 25.7935 7.21587 25.9404C6.98665 26.3846 6.79017 26.8448 6.628 27.3176C6.56268 27.5081 6.5028 27.7095 6.44836 27.9055C5.87913 29.9478 5.93985 32.1144 6.62255 34.1217C6.69331 34.3285 6.76952 34.5299 6.84573 34.715C7.0278 35.169 7.24246 35.6092 7.48803 36.0323C7.57512 36.1738 7.66221 36.3153 7.75475 36.4568C8.99207 38.3759 10.8173 39.843 12.9575 40.6388C15.0977 41.4347 17.438 41.5165 19.6285 40.8721C21.8191 40.2276 23.7422 38.8916 25.1106 37.0636C26.4789 35.2356 27.2189 33.0139 27.2199 30.7305ZM44.8996 31.4273C44.8996 28.9832 44.3553 27.1488 43.0871 25.5376C41.7244 23.8611 39.7817 22.7576 37.6438 22.4458C37.2273 22.3869 36.8071 22.3578 36.3864 22.3588C35.5746 22.3565 34.7665 22.4682 33.9859 22.6908C32.7986 23.032 31.6993 23.6262 30.7635 24.4326C29.8244 25.2373 29.0689 26.2341 28.5481 27.3557C28.1003 28.3279 27.8346 29.374 27.7642 30.442C27.7642 30.5346 27.7642 30.6271 27.7642 30.7251C27.7642 30.823 27.7642 31.0462 27.7642 31.2041C27.7794 31.7226 27.8543 32.2377 27.9874 32.7391C28.0427 32.9746 28.1155 33.2057 28.2051 33.4304L28.2704 33.6154C28.2704 33.6917 28.3303 33.757 28.3576 33.8223L28.461 34.0291L28.5209 34.1543C28.5633 34.2502 28.6124 34.343 28.6678 34.4319L28.9128 34.8293C28.9635 34.9129 29.0198 34.9929 29.0815 35.0688L29.1795 35.1994C29.3058 35.3788 29.446 35.5481 29.5986 35.7057L29.7782 35.9016L29.9905 36.0976L30.1103 36.2119L30.2845 36.3643C30.3183 36.3963 30.3547 36.4254 30.3933 36.4514L30.8342 36.7834L31.4167 37.1427L32.0372 37.4366L32.6849 37.6761L33.349 37.8503L34.0294 37.9537H34.171L34.7153 37.9864C35.3249 37.986 35.932 37.9092 36.5225 37.7578C36.7591 37.7 36.9918 37.6273 37.2192 37.54L37.4043 37.4693C37.4738 37.4462 37.5412 37.4171 37.6057 37.3822L37.818 37.2842L37.9432 37.2243C38.0391 37.1801 38.1319 37.1291 38.2208 37.0719L38.6181 36.8324C38.6998 36.7834 38.776 36.7236 38.8576 36.6637C38.9007 36.628 38.9462 36.5952 38.9937 36.5657C39.169 36.4363 39.3362 36.2963 39.4945 36.1466C39.5598 36.0867 39.6251 36.0214 39.6959 35.9669C39.7635 35.9 39.8272 35.8291 39.8864 35.7547C39.93 35.7165 39.9626 35.673 40.0061 35.6295L40.1586 35.4607L40.2457 35.3464L40.3001 35.2811L40.5777 34.9109L40.7247 34.666L40.937 34.3231L41.2363 33.6971L41.4758 33.0493L41.6446 32.3853L41.7534 31.6994C41.7534 31.6559 41.7534 31.6069 41.7534 31.5579L41.7861 31.0136C41.7864 30.4068 41.689 29.8039 41.4976 29.2282C41.4976 29.1792 41.4595 29.1247 41.4377 29.0703C41.4099 28.9807 41.3753 28.8934 41.3343 28.809L41.1384 28.3899L40.8988 27.998C40.8499 27.9218 40.79 27.8456 40.7356 27.7694L40.6321 27.6333C40.2564 27.154 39.8039 26.7401 39.2931 26.4086L39.1515 26.3215C39.0699 26.2725 38.9883 26.2235 38.9012 26.1799L38.4875 25.9785L38.0575 25.8207C37.9704 25.788 37.8778 25.7662 37.7853 25.739L37.6165 25.7009C37.0246 25.5635 36.4146 25.5212 35.8094 25.5757C35.2016 25.6418 34.6091 25.8093 34.0567 26.0711C33.502 26.3273 32.9956 26.6771 32.5598 27.1053C32.1178 27.5334 31.7499 28.0319 31.4711 28.5804C31.188 29.1262 31.0037 29.7177 30.9268 30.3277C30.9211 30.4002 30.9211 30.473 30.9268 30.5454V30.7849C30.9295 30.8121 30.9295 30.8394 30.9268 30.8666C30.9268 30.9156 30.9268 30.9646 30.9268 31.0081V31.2367C30.9293 31.3373 30.9402 31.4374 30.9594 31.5361C30.9594 31.5851 30.9594 31.6395 30.9866 31.6885C31.0139 31.7375 31.0302 31.8845 31.052 31.9879C31.0672 32.0325 31.0799 32.078 31.0901 32.124C31.2759 32.6974 31.5905 33.2206 32.01 33.6535C32.4336 34.083 32.9518 34.4074 33.5232 34.6007C34.3873 34.8938 35.3279 34.8671 36.1739 34.5255C37.02 34.1839 37.7154 33.55 38.1337 32.7391C38.4126 32.2003 38.5617 31.6039 38.5691 30.9972C38.5734 30.707 38.5205 30.4188 38.4135 30.149C38.3064 29.8792 38.1472 29.6332 37.945 29.4249C37.7428 29.2167 37.5016 29.0503 37.2351 28.9353C36.9686 28.8202 36.682 28.7589 36.3918 28.7546H36.3537C35.7735 28.7571 35.217 28.9856 34.8024 29.3915C34.3686 29.8095 34.1131 30.3789 34.0893 30.9809V31.0626H33.828V30.9809C33.8171 30.6391 33.8744 30.2986 33.9968 29.9793C34.1167 29.6596 34.3021 29.3686 34.5411 29.1247C34.7834 28.878 35.0722 28.6817 35.3908 28.5471C35.7093 28.4126 36.0514 28.3425 36.3973 28.3409C36.7439 28.343 37.0867 28.4137 37.4059 28.5488C37.7252 28.6839 38.0145 28.8809 38.2574 29.1283C38.5002 29.3756 38.6917 29.6686 38.8209 29.9903C38.9501 30.312 39.0144 30.656 39.0101 31.0027C39.0034 31.6747 38.8413 32.3361 38.5365 32.935C38.2288 33.5339 37.7829 34.0508 37.2355 34.4428C36.6863 34.8361 36.0521 35.0943 35.3844 35.1965C34.7166 35.2986 34.0342 35.2418 33.3926 35.0307C32.7528 34.814 32.1717 34.4526 31.6943 33.9747C31.2244 33.4886 30.8708 32.9024 30.6601 32.2601L30.6274 32.1185C30.5947 32.0042 30.5621 31.8899 30.5403 31.7702C30.5185 31.6504 30.5403 31.6668 30.5403 31.6123C30.5163 31.4977 30.5035 31.381 30.5022 31.264V31.019C30.5022 30.9646 30.5022 30.9047 30.5022 30.8503C30.4995 30.8231 30.4995 30.7958 30.5022 30.7686V30.5237C30.4939 30.4386 30.4939 30.3529 30.5022 30.2678C30.572 29.6096 30.7563 28.9685 31.0465 28.3736C31.3361 27.7679 31.7263 27.2158 32.2005 26.7406C32.674 26.2687 33.2268 25.8836 33.8335 25.6029C34.4339 25.317 35.0778 25.133 35.7386 25.0586C36.4019 24.998 37.0704 25.0421 37.72 25.1893L37.8887 25.2328C37.9959 25.2542 38.1014 25.2833 38.2044 25.3199L38.6671 25.4886L39.1189 25.7064C39.2169 25.7554 39.3149 25.8152 39.4074 25.8697C39.4526 25.9019 39.4998 25.931 39.5489 25.9568C40.1108 26.3169 40.6092 26.7675 41.024 27.2904C41.4145 27.7803 41.72 28.3323 41.9276 28.9233C42.1606 29.6029 42.2766 30.317 42.2706 31.0353C42.2864 31.701 42.202 32.3653 42.0202 33.0058L41.9657 33.2126L41.7099 33.9094L41.3888 34.5789L41.171 34.9436L41.0023 35.2158L40.6593 35.6839L40.5559 35.8145L40.3872 35.9996L40.2729 36.1248C40.2021 36.201 40.1314 36.2826 40.0551 36.3589L39.8538 36.5439C39.6833 36.7107 39.5014 36.8653 39.3094 37.0066L39.1788 37.11C39.0917 37.1699 39.0046 37.2407 38.912 37.2951L38.4929 37.5509C38.39 37.6164 38.2827 37.6746 38.1718 37.7251L38.052 37.785L37.8288 37.8884C37.7537 37.9291 37.6755 37.9637 37.5948 37.9918L37.4206 38.0572C37.1708 38.1567 36.9144 38.2385 36.6531 38.3021C36.0148 38.4674 35.3583 38.5515 34.699 38.5525L34.1111 38.5253H33.9532L33.2184 38.4164L32.4999 38.2313L31.7977 37.9809L31.1227 37.6544L30.7635 37.4366L30.4859 37.2679L30.0885 36.9685L30.0178 36.9195L29.8871 36.8161L29.702 36.6528L29.5768 36.5385L29.3428 36.3153L29.1577 36.1139C28.9892 35.9436 28.8328 35.7617 28.6896 35.5696C28.6896 35.526 28.6243 35.477 28.5916 35.4335C28.559 35.39 28.461 35.2593 28.4011 35.1668L28.1453 34.7476C28.0816 34.6447 28.0252 34.5374 27.9765 34.4265C27.9765 34.3884 27.9384 34.3448 27.9167 34.3067L27.8078 34.0836C27.7751 34.0074 27.737 33.9312 27.7098 33.8495L27.639 33.6699C27.5846 33.5175 27.5302 33.3705 27.4812 33.2126C27.3577 33.7694 27.1903 34.3154 26.9804 34.8456C27.0389 34.8541 27.0949 34.875 27.1447 34.9069C27.1945 34.9388 27.2368 34.981 27.2689 35.0307C27.3214 35.1213 27.3366 35.2288 27.3112 35.3305C27.2858 35.4321 27.2218 35.5198 27.1328 35.575C27.0723 35.6176 27 35.6404 26.926 35.6403H26.8389C26.7791 35.6255 26.7233 35.5976 26.6756 35.5587V35.526C26.4874 35.9144 26.2784 36.2924 26.0496 36.6582L26.0823 36.6147C26.3652 37.0424 26.68 37.4482 27.024 37.8285C27.4422 38.2864 27.8993 38.7071 28.3902 39.0859C28.8801 39.4673 29.4029 39.8043 29.9524 40.0929C31.0504 40.6716 32.2465 41.0408 33.4797 41.1816C34.7094 41.3299 35.9557 41.2562 37.1593 40.9639C39.7135 40.3403 41.9297 38.7576 43.3483 36.5439V36.5113C44.2822 34.9911 44.7933 33.2491 44.8289 31.4654L44.8996 31.4273ZM34.4431 24.3891H34.5411C34.642 24.3586 34.7277 24.2913 34.7811 24.2005C34.8346 24.1098 34.8519 24.0022 34.8296 23.8992C34.8061 23.7964 34.7437 23.7066 34.6554 23.6488C34.6071 23.6189 34.553 23.5996 34.4968 23.5921C34.4405 23.5846 34.3832 23.5891 34.3288 23.6053C34.2747 23.6179 34.2239 23.642 34.1798 23.6757C34.1357 23.7095 34.0993 23.7523 34.073 23.8012C34.047 23.8472 34.0311 23.8981 34.0264 23.9507C34.0217 24.0033 34.0283 24.0562 34.0458 24.106C34.073 24.1904 34.126 24.2641 34.1973 24.3168C34.2685 24.3695 34.3545 24.3986 34.4431 24.4V24.3891ZM34.3887 36.8596C34.4905 36.8568 34.5876 36.816 34.6608 36.7453C34.6989 36.7055 34.7286 36.6586 34.7482 36.6072C34.7678 36.5558 34.777 36.5009 34.7752 36.4459C34.7711 36.3447 34.7291 36.2488 34.6575 36.1771C34.5859 36.1055 34.4899 36.0635 34.3887 36.0595C34.2855 36.0578 34.1856 36.0959 34.1096 36.1658C34.0336 36.2357 33.9874 36.3321 33.9804 36.4351C33.9743 36.5387 34.0096 36.6405 34.0784 36.7181C34.1155 36.7602 34.1606 36.7943 34.2111 36.8186C34.2616 36.843 34.3164 36.8569 34.3724 36.8596H34.3887ZM42.0583 26.9964C42.1259 26.9923 42.1916 26.9724 42.2502 26.9384C42.3088 26.9044 42.3586 26.8571 42.3958 26.8005C42.439 26.77 42.4757 26.7312 42.5038 26.6863C42.5318 26.6414 42.5506 26.5914 42.559 26.5392C42.5737 26.4273 42.5445 26.3142 42.4774 26.2235C42.4463 26.1802 42.4065 26.1438 42.3606 26.1166C42.3147 26.0895 42.2636 26.0721 42.2107 26.0656C42.1541 26.059 42.0968 26.0644 42.0425 26.0812C41.9881 26.0981 41.9379 26.1262 41.895 26.1636C41.8214 26.2321 41.7748 26.3247 41.7638 26.4246C41.7529 26.5246 41.7781 26.6251 41.8351 26.7079C41.8728 26.7555 41.9208 26.7939 41.9755 26.8203C42.0302 26.8467 42.0901 26.8604 42.1508 26.8603L42.0583 26.9964ZM35.6189 36.5167C35.6791 36.5552 35.7488 36.5759 35.8203 36.5766C35.8545 36.5823 35.8895 36.5823 35.9237 36.5766C35.9781 36.5631 36.0293 36.5388 36.0742 36.5051C36.1191 36.4714 36.1568 36.4291 36.185 36.3806C36.2118 36.3361 36.2286 36.2862 36.2342 36.2345C36.2398 36.1828 36.2342 36.1305 36.2176 36.0813C36.1884 35.9823 36.1227 35.898 36.0338 35.8455C35.9449 35.793 35.8395 35.7761 35.7386 35.7982C35.6412 35.8273 35.5576 35.8908 35.5036 35.9769C35.4495 36.0631 35.4285 36.1659 35.4447 36.2663C35.4534 36.3212 35.4739 36.3735 35.505 36.4196C35.536 36.4656 35.5767 36.5044 35.6243 36.533L35.6189 36.5167ZM30.0123 37.8068C29.9236 37.7548 29.8187 37.7377 29.718 37.7588C29.6174 37.7799 29.5283 37.8378 29.468 37.9211C29.4359 37.9663 29.414 38.0179 29.4037 38.0724C29.3933 38.1269 29.3949 38.1829 29.4081 38.2368C29.4193 38.2879 29.4411 38.3361 29.4721 38.3782C29.503 38.4204 29.5424 38.4557 29.5877 38.4817C29.6527 38.5229 29.7285 38.5438 29.8055 38.5416C29.8379 38.547 29.871 38.547 29.9034 38.5416C29.9537 38.53 30.0009 38.508 30.0422 38.4771C30.0834 38.4462 30.1177 38.407 30.1429 38.362C30.1974 38.2724 30.2142 38.1649 30.1897 38.0629C30.1653 37.9609 30.1015 37.8728 30.0123 37.8177V37.8068ZM28.3793 37.0393C28.308 37.1161 28.269 37.2175 28.2704 37.3223C28.2766 37.4325 28.3254 37.536 28.4065 37.6108C28.4809 37.6791 28.5777 37.7178 28.6787 37.7197H28.7114C28.7621 37.7171 28.8117 37.7036 28.8568 37.6801C28.9019 37.6566 28.9414 37.6237 28.9727 37.5836C29.0408 37.5043 29.0755 37.4016 29.0693 37.2972C29.0631 37.1928 29.0165 37.0949 28.9395 37.0242C28.8624 36.9535 28.7609 36.9156 28.6563 36.9184C28.5518 36.9212 28.4525 36.9645 28.3793 37.0393ZM31.1663 38.4491C31.1183 38.4244 31.0658 38.4097 31.012 38.406C30.9581 38.4022 30.9041 38.4095 30.8531 38.4273C30.8022 38.4452 30.7555 38.4732 30.7157 38.5097C30.676 38.5462 30.6441 38.5904 30.6219 38.6396C30.6003 38.6875 30.5891 38.7394 30.5891 38.792C30.5891 38.8446 30.6003 38.8965 30.6219 38.9444C30.6391 38.996 30.6669 39.0435 30.7034 39.0838C30.74 39.1241 30.7845 39.1563 30.8342 39.1785C30.8843 39.2062 30.9404 39.2211 30.9975 39.222C31.0442 39.2214 31.0903 39.2121 31.1336 39.1948C31.1865 39.1752 31.2346 39.1447 31.2749 39.1053C31.3152 39.0659 31.3468 39.0186 31.3677 38.9662C31.4119 38.8665 31.415 38.7534 31.3762 38.6515C31.3375 38.5495 31.2601 38.467 31.1608 38.4219L31.1663 38.4491ZM36.9688 36.0595C37.0121 36.0768 37.0583 36.086 37.1049 36.0867C37.1708 36.0859 37.2357 36.0711 37.2954 36.0431C37.3423 36.0186 37.3838 35.9849 37.4175 35.944C37.4512 35.9032 37.4764 35.8561 37.4916 35.8054C37.5068 35.7546 37.5117 35.7014 37.5061 35.6488C37.5004 35.5961 37.4843 35.5451 37.4587 35.4988C37.4061 35.4072 37.3199 35.3395 37.2184 35.31C37.1169 35.2806 37.0079 35.2917 36.9144 35.341C36.8671 35.3651 36.825 35.3984 36.7906 35.4389C36.7563 35.4794 36.7302 35.5263 36.714 35.5769C36.6978 35.6275 36.6918 35.6808 36.6963 35.7337C36.7008 35.7866 36.7157 35.8382 36.7402 35.8853C36.7603 35.9322 36.7901 35.9744 36.8277 36.0091C36.8652 36.0438 36.9095 36.0702 36.9579 36.0867L36.9688 36.0595ZM38.2099 35.3301C38.3117 35.3273 38.4087 35.2865 38.482 35.2158C38.5241 35.1787 38.5583 35.1336 38.5826 35.0831C38.6069 35.0326 38.6208 34.9778 38.6236 34.9218C38.6245 34.871 38.6148 34.8205 38.5952 34.7737C38.5755 34.7268 38.5462 34.6846 38.5092 34.6497C38.4367 34.581 38.3419 34.5405 38.2421 34.5355C38.1423 34.5305 38.044 34.5614 37.9649 34.6225C37.927 34.6572 37.8964 34.6992 37.8749 34.7459C37.8534 34.7926 37.8414 34.8432 37.8397 34.8946C37.8321 35.0003 37.8659 35.1049 37.9339 35.1862C38.002 35.2674 38.099 35.319 38.2044 35.3301H38.2099ZM31.9719 39.1404C31.8681 39.1166 31.7592 39.1331 31.6672 39.1867C31.5752 39.2403 31.507 39.3269 31.4765 39.4289C31.4617 39.4784 31.4569 39.5304 31.4625 39.5819C31.4681 39.6333 31.484 39.6831 31.5092 39.7282C31.5367 39.7773 31.5741 39.8201 31.6191 39.8539C31.6641 39.8876 31.7157 39.9116 31.7705 39.9242C31.8047 39.9295 31.8396 39.9295 31.8739 39.9242C31.9492 39.927 32.0235 39.9061 32.0862 39.8643C32.131 39.8382 32.1696 39.8029 32.1997 39.7606C32.2297 39.7184 32.2504 39.6702 32.2604 39.6194C32.2854 39.5162 32.2693 39.4074 32.2154 39.316C32.1616 39.2245 32.0742 39.1576 31.9719 39.1295V39.1404ZM40.3926 31.0353C40.2875 31.0293 40.1842 31.0647 40.1049 31.1339C40.0255 31.203 39.9764 31.3005 39.968 31.4055C39.9586 31.5096 39.9895 31.6134 40.0543 31.6954C40.1191 31.7774 40.2129 31.8315 40.3164 31.8464H40.3763C40.4548 31.8443 40.5311 31.8197 40.5959 31.7754C40.6608 31.731 40.7115 31.669 40.7419 31.5966C40.7724 31.5242 40.7813 31.4445 40.7676 31.3672C40.7539 31.2898 40.7182 31.2181 40.6648 31.1605C40.6307 31.1214 40.589 31.0896 40.5422 31.0671C40.4954 31.0446 40.4445 31.032 40.3926 31.0299V31.0353ZM40.1912 32.4288C40.1439 32.4086 40.093 32.3982 40.0415 32.3982C39.9901 32.3982 39.9392 32.4086 39.8919 32.4288C39.795 32.4704 39.7187 32.5487 39.6796 32.6465C39.6402 32.7506 39.6433 32.8659 39.6881 32.9676C39.7329 33.0694 39.8158 33.1496 39.9191 33.1909C39.967 33.2125 40.0189 33.2237 40.0715 33.2237C40.124 33.2237 40.176 33.2125 40.2239 33.1909C40.3263 33.1426 40.4062 33.0569 40.447 32.9514C40.4878 32.8463 40.4878 32.7298 40.447 32.6248C40.3938 32.5302 40.306 32.46 40.2021 32.4288H40.1912ZM39.9136 30.1209C39.9349 30.2125 39.9871 30.2939 40.0615 30.3514C40.1359 30.4089 40.2279 30.439 40.3219 30.4366H40.3763C40.4295 30.4311 40.4809 30.4142 40.527 30.3869C40.573 30.3597 40.6126 30.3227 40.643 30.2787C40.6764 30.231 40.6994 30.1768 40.7107 30.1196C40.7219 30.0624 40.7211 30.0035 40.7084 29.9467C40.694 29.8897 40.6683 29.8362 40.6327 29.7895C40.5972 29.7427 40.5526 29.7036 40.5015 29.6745C40.4551 29.6544 40.4051 29.6441 40.3545 29.6441C40.304 29.6441 40.2539 29.6544 40.2075 29.6745C40.1072 29.7027 40.0213 29.7676 39.9668 29.8564C39.9123 29.9452 39.8933 30.0513 39.9136 30.1535V30.1209ZM39.7721 29.1683C39.8422 29.1688 39.9114 29.152 39.9735 29.1193C40.0205 29.0959 40.0622 29.063 40.0959 29.0228C40.1297 28.9825 40.1547 28.9357 40.1694 28.8852C40.1835 28.8291 40.1859 28.7707 40.1765 28.7136C40.1672 28.6565 40.1462 28.6019 40.115 28.5532C40.0872 28.5038 40.0489 28.4612 40.0029 28.4283C39.9568 28.3953 39.904 28.373 39.8483 28.3627C39.7941 28.3532 39.7386 28.3551 39.6852 28.3682C39.6318 28.3813 39.5817 28.4054 39.538 28.4389C39.4556 28.5 39.3989 28.5895 39.3788 28.6901C39.3586 28.7907 39.3766 28.8951 39.4292 28.9832C39.4656 29.0409 39.5163 29.0883 39.5764 29.1207C39.6364 29.1531 39.7038 29.1695 39.7721 29.1683ZM39.2278 27.6877C39.2225 27.6323 39.2051 27.5788 39.1769 27.5308C39.1487 27.4829 39.1103 27.4417 39.0645 27.4101C39.0196 27.3748 38.9679 27.3493 38.9125 27.3352C38.8572 27.3212 38.7996 27.3189 38.7433 27.3285C38.6904 27.3366 38.64 27.3565 38.5957 27.3866C38.5514 27.4167 38.5145 27.4564 38.4875 27.5027C38.4326 27.5882 38.4111 27.691 38.4272 27.7914C38.4432 27.8918 38.4957 27.9828 38.5746 28.047C38.6455 28.0948 38.7286 28.1212 38.8141 28.1232C38.8723 28.1227 38.9298 28.1104 38.9832 28.087C39.0365 28.0636 39.0845 28.0296 39.1243 27.9871C39.1623 27.9455 39.1911 27.8964 39.209 27.8429C39.2268 27.7895 39.2332 27.7329 39.2278 27.6768V27.6877ZM39.1298 33.8767C39.0737 33.9619 39.0515 34.0651 39.0676 34.1658C39.0837 34.2666 39.137 34.3576 39.2169 34.4211C39.2853 34.4744 39.3696 34.5031 39.4564 34.5027H39.5163C39.5734 34.4942 39.6281 34.4738 39.6768 34.4428C39.7256 34.4119 39.7673 34.3711 39.7993 34.3231C39.8597 34.2256 39.8793 34.1083 39.8538 33.9965C39.8271 33.895 39.7629 33.8074 39.6741 33.7515C39.5854 33.6975 39.4793 33.6797 39.3779 33.7021C39.2765 33.7244 39.1876 33.785 39.1298 33.8713V33.8767ZM27.7751 35.918C27.7223 35.9111 27.6686 35.9148 27.6172 35.9288C27.5659 35.9428 27.5178 35.9669 27.4758 35.9996C27.3933 36.0615 27.3385 36.1534 27.3233 36.2554C27.3148 36.3108 27.3177 36.3674 27.3317 36.4217C27.3458 36.4759 27.3707 36.5268 27.405 36.5711C27.4753 36.6538 27.5746 36.7064 27.6826 36.7181H27.7153C27.8126 36.7162 27.9065 36.6817 27.982 36.6201C28.0586 36.5529 28.106 36.4584 28.1141 36.3568C28.1223 36.2552 28.0905 36.1544 28.0255 36.0758C27.9959 36.0351 27.9585 36.0007 27.9156 35.9746C27.8726 35.9484 27.8249 35.931 27.7751 35.9234V35.918ZM42.7822 33.7461C42.7249 33.74 42.6669 33.7456 42.6117 33.7624C42.5565 33.7793 42.5053 33.807 42.4611 33.8441C42.3883 33.9132 42.3428 34.0062 42.3328 34.1061C42.3228 34.206 42.349 34.3062 42.4067 34.3884C42.4444 34.4359 42.4924 34.4744 42.5471 34.5007C42.6017 34.5271 42.6616 34.5408 42.7223 34.5408C42.8097 34.5399 42.8949 34.5134 42.9673 34.4646C43.0521 34.4016 43.1089 34.3078 43.1252 34.2033C43.142 34.0922 43.1146 33.9788 43.049 33.8876C43.018 33.8441 42.9783 33.8075 42.9324 33.7803C42.8864 33.7531 42.8353 33.7359 42.7822 33.7298V33.7461ZM41.416 36.2282C41.3356 36.1685 41.2366 36.1396 41.1368 36.1466C41.0369 36.1535 40.9429 36.196 40.8716 36.2663C40.809 36.3451 40.7777 36.4443 40.7838 36.5447C40.7898 36.6452 40.8327 36.7399 40.9043 36.8106C40.9773 36.877 41.0723 36.9139 41.171 36.9141C41.2261 36.9136 41.2804 36.9012 41.3302 36.8777C41.38 36.8542 41.4241 36.8202 41.4595 36.778C41.497 36.7405 41.5256 36.6952 41.5435 36.6453C41.5614 36.5954 41.568 36.5422 41.5629 36.4895C41.5603 36.4353 41.5458 36.3823 41.5204 36.3343C41.495 36.2864 41.4593 36.2445 41.416 36.2119V36.2282ZM33.3218 39.369C33.2419 39.3601 33.1611 39.3752 33.0899 39.4126C33.0187 39.45 32.9603 39.5078 32.9222 39.5787C32.8842 39.6495 32.8682 39.7302 32.8763 39.8102C32.8845 39.8902 32.9164 39.9659 32.968 40.0276C33.0012 40.0704 33.0431 40.1057 33.091 40.1311C33.1388 40.1564 33.1915 40.1712 33.2456 40.1746C33.3479 40.1766 33.4472 40.1397 33.5232 40.0712C33.5635 40.0365 33.5964 39.9941 33.6198 39.9464C33.6432 39.8986 33.6566 39.8466 33.6593 39.7936C33.6635 39.7392 33.6565 39.6846 33.6387 39.6331C33.6209 39.5816 33.5927 39.5343 33.5559 39.4942C33.4883 39.4202 33.3946 39.3753 33.2946 39.369H33.3218ZM42.1617 35.0579C42.0717 35.0049 41.9647 34.9889 41.8631 35.0132C41.7616 35.0376 41.6735 35.1005 41.6174 35.1886C41.5682 35.2794 41.5544 35.3853 41.5785 35.4857C41.6026 35.5862 41.663 35.6742 41.748 35.7329C41.8102 35.7762 41.8845 35.799 41.9603 35.7982H42.0419C42.0953 35.7855 42.1455 35.7621 42.1895 35.7293C42.2335 35.6966 42.2704 35.6552 42.2978 35.6077C42.327 35.5612 42.3465 35.5092 42.3549 35.4549C42.3633 35.4006 42.3605 35.3452 42.3467 35.292C42.3332 35.2425 42.3099 35.1963 42.2781 35.1561C42.2463 35.1159 42.2067 35.0825 42.1617 35.0579ZM42.5209 27.9817C42.5587 28.0292 42.6067 28.0676 42.6613 28.094C42.716 28.1204 42.7759 28.1341 42.8367 28.1341C42.924 28.1332 43.0092 28.1067 43.0816 28.0579C43.1665 27.9949 43.2232 27.901 43.2395 27.7966C43.2563 27.6854 43.2289 27.5721 43.1632 27.4809C43.1072 27.4106 43.0282 27.3624 42.9401 27.3448C42.8827 27.3388 42.8247 27.3443 42.7695 27.3611C42.7144 27.378 42.6631 27.4057 42.6189 27.4428C42.5462 27.5119 42.5007 27.6049 42.4907 27.7048C42.4807 27.8047 42.5069 27.9049 42.5645 27.9871L42.5209 27.9817ZM43.5388 30.7741C43.4584 30.7641 43.3769 30.7783 43.3046 30.8148C43.2323 30.8514 43.1725 30.9086 43.1328 30.9792C43.0931 31.0498 43.0754 31.1307 43.0817 31.2114C43.0881 31.2922 43.1184 31.3692 43.1687 31.4327C43.2056 31.4812 43.2534 31.5203 43.3083 31.5468C43.3632 31.5732 43.4235 31.5864 43.4844 31.5851C43.572 31.5859 43.6577 31.5593 43.7294 31.5089C43.7718 31.4781 43.8077 31.4391 43.8348 31.3943C43.8619 31.3494 43.8797 31.2995 43.8872 31.2476C43.8954 31.1922 43.8924 31.1357 43.8783 31.0815C43.8643 31.0273 43.8396 30.9764 43.8056 30.9319C43.7749 30.8881 43.7352 30.8514 43.6892 30.8242C43.6432 30.797 43.592 30.7799 43.5388 30.7741ZM43.0925 29.6092C43.1291 29.658 43.1768 29.6973 43.2318 29.7239C43.2867 29.7504 43.3472 29.7633 43.4082 29.7616C43.4958 29.7624 43.5815 29.7358 43.6531 29.6854C43.6963 29.6553 43.7326 29.6165 43.7598 29.5715C43.787 29.5265 43.8044 29.4763 43.811 29.4241C43.8192 29.3687 43.8162 29.3122 43.8022 29.258C43.7881 29.2038 43.7634 29.1529 43.7294 29.1084C43.6674 29.0352 43.5797 28.9884 43.4844 28.9778C43.427 28.9717 43.369 28.9773 43.3139 28.9941C43.2587 29.011 43.2075 29.0387 43.1632 29.0758C43.0905 29.1449 43.045 29.2379 43.035 29.3378C43.025 29.4377 43.0512 29.5379 43.1088 29.6201L43.0925 29.6092ZM43.3592 32.3417C43.3027 32.3351 43.2453 32.3405 43.191 32.3573C43.1366 32.3742 43.0864 32.4023 43.0435 32.4397C42.9699 32.5082 42.9234 32.6008 42.9124 32.7007C42.9014 32.8007 42.9267 32.9012 42.9836 32.984C43.0214 33.0316 43.0694 33.07 43.124 33.0964C43.1787 33.1228 43.2386 33.1365 43.2993 33.1364C43.3868 33.1362 43.4721 33.1097 43.5443 33.0602C43.6307 32.9978 43.6894 32.904 43.7076 32.799C43.7223 32.6871 43.693 32.5739 43.6259 32.4832C43.5955 32.4392 43.5559 32.4023 43.5099 32.3751C43.4638 32.3478 43.4124 32.3309 43.3592 32.3254V32.3417ZM36.0271 39.1676C35.9266 39.1946 35.8397 39.258 35.7833 39.3455C35.727 39.4331 35.7052 39.5385 35.7223 39.6412C35.7322 39.697 35.7539 39.7501 35.7858 39.797C35.8177 39.8439 35.8591 39.8835 35.9074 39.9133C35.9678 39.9512 36.0374 39.9719 36.1088 39.9732C36.1431 39.9784 36.1779 39.9784 36.2122 39.9732C36.3217 39.9448 36.4155 39.8744 36.4735 39.7772C36.4996 39.7324 36.5164 39.6828 36.5229 39.6314C36.5295 39.58 36.5256 39.5278 36.5116 39.4779C36.4995 39.4265 36.4773 39.3781 36.4463 39.3354C36.4152 39.2928 36.376 39.2567 36.3309 39.2294C36.2858 39.202 36.2358 39.1839 36.1836 39.1761C36.1314 39.1683 36.0782 39.1709 36.0271 39.1839V39.1676ZM34.699 39.3635C34.5936 39.3731 34.4957 39.4223 34.4251 39.501C34.3544 39.5798 34.3161 39.6823 34.3179 39.7881C34.3217 39.8935 34.3667 39.9931 34.4431 40.0657C34.5206 40.1361 34.6215 40.1749 34.7262 40.1746C34.7823 40.1725 34.8373 40.1588 34.8879 40.1345C34.9385 40.1101 34.9835 40.0756 35.0201 40.0331C35.0535 39.9934 35.0784 39.9474 35.0934 39.8978C35.1084 39.8482 35.1131 39.7961 35.1072 39.7446C35.0951 39.6392 35.0445 39.542 34.9652 39.4717C34.8858 39.4014 34.7832 39.3629 34.6772 39.3635H34.699ZM37.6546 38.5198C37.5566 38.5577 37.4772 38.6324 37.4335 38.728C37.3897 38.8236 37.3851 38.9325 37.4206 39.0315C37.4583 39.128 37.5299 39.2073 37.622 39.2547C37.6772 39.2782 37.7362 39.2911 37.7962 39.2928C37.8463 39.2916 37.8959 39.2824 37.9432 39.2656C37.9931 39.2492 38.0388 39.2222 38.0773 39.1865C38.1159 39.1508 38.1462 39.1072 38.1663 39.0587C38.1877 39.0079 38.1988 38.9533 38.1988 38.8981C38.1988 38.843 38.1877 38.7884 38.1663 38.7376C38.1224 38.645 38.0461 38.5717 37.9518 38.5316C37.8575 38.4915 37.7518 38.4873 37.6546 38.5198ZM38.8359 37.932C38.7489 37.989 38.6867 38.0767 38.6614 38.1775C38.6362 38.2784 38.6499 38.3851 38.6998 38.4763C38.7235 38.5225 38.7565 38.5633 38.7968 38.5961C38.8371 38.6289 38.8838 38.653 38.9338 38.6668H39.0373C39.112 38.6656 39.1852 38.645 39.2495 38.6069C39.3422 38.549 39.4086 38.4572 39.4346 38.3511C39.4463 38.3001 39.4475 38.2473 39.4381 38.1958C39.4287 38.1444 39.409 38.0953 39.3802 38.0517C39.3232 37.9647 39.2351 37.9027 39.1339 37.8784C39.0328 37.8541 38.9262 37.8694 38.8359 37.9211V37.932ZM40.1967 37.061C40.0969 37.0583 39.9997 37.0933 39.9245 37.159C39.8455 37.224 39.7949 37.3173 39.7837 37.419C39.7725 37.5207 39.8016 37.6228 39.8646 37.7033C39.8969 37.7463 39.9378 37.782 39.9846 37.8082C40.0315 37.8345 40.0833 37.8507 40.1368 37.8558H40.2184C40.3121 37.8569 40.403 37.8241 40.4743 37.7632C40.5161 37.7272 40.5503 37.6831 40.5746 37.6335C40.599 37.5839 40.6129 37.5299 40.6158 37.4747C40.6187 37.423 40.611 37.3712 40.5933 37.3225C40.5755 37.2739 40.5479 37.2293 40.5124 37.1917C40.4773 37.1518 40.4348 37.1193 40.3871 37.0959C40.3395 37.0726 40.2877 37.0589 40.2348 37.0556" fill="black"/>
</svg>
