<svg width="51" height="9" viewBox="0 0 51 9" fill="none" xmlns="http://www.w3.org/2000/svg">
<path d="M5.36873 8.33231L3.77561 5.93284H2.18249V8.33231H0.0957031V0.0493164H3.76345C5.85092 0.0493164 7.24616 1.1697 7.24616 2.96069C7.24616 4.04123 6.71535 4.91916 5.82796 5.43377L7.80399 8.33231H5.36873ZM2.18249 4.08107H3.72631C4.52928 4.08107 5.16072 3.64278 5.16072 2.96069C5.16072 2.29076 4.53064 1.86462 3.72766 1.86462H2.18249V4.08107Z" fill="white"/>
<path d="M16.4284 4.47074C16.4284 7.04107 14.9217 8.49102 12.5115 8.49102C10.116 8.49102 8.60938 7.04107 8.60938 4.47074V0.0493164H10.711V4.50653C10.711 5.77279 11.4147 6.56496 12.5135 6.56496C13.6123 6.56496 14.3295 5.77414 14.3295 4.50653V0.0493164H16.4284V4.47074Z" fill="white"/>
<path d="M25.1906 1.88893H22.5109V8.33231H20.4356V1.88893H17.7559V0.0493164H25.1906V1.88893Z" fill="white"/>
<path d="M34.3744 4.47074C34.3744 7.04107 32.8677 8.49102 30.4575 8.49102C28.0614 8.49102 26.5547 7.04107 26.5547 4.47074V0.0493164H28.6543V4.50653C28.6543 5.77279 29.358 6.56496 30.4575 6.56496C31.5569 6.56496 32.2748 5.77414 32.2748 4.50653V0.0493164H34.3744V4.47074Z" fill="white"/>
<path d="M42.8951 6.03009C42.8951 7.4071 41.7713 8.33231 39.8818 8.33231H35.6582V0.0493164H39.6346C41.462 0.0493164 42.5243 0.902266 42.5243 2.25429C42.5243 3.02147 42.0921 3.81364 41.3634 4.06892C42.3886 4.2884 42.8951 5.14135 42.8951 6.03009ZM37.745 1.73023V3.45976H39.3131C40.1039 3.45976 40.5362 3.07009 40.5362 2.53455C40.5362 2.01049 40.1161 1.73023 39.3131 1.73023H37.745ZM40.8569 5.76266C40.8569 5.25075 40.4247 4.95833 39.6467 4.95833H37.745V6.62709H39.6096C40.4774 6.62709 40.8569 6.24958 40.8569 5.76266Z" fill="white"/>
<path d="M46.3511 1.85477V3.3655H50.081V5.12137H46.3511V6.55713H50.6118V8.34745H44.2637V0.0644531H50.6118V1.85477H46.3511Z" fill="white"/>
</svg>
