<svg width="93" height="16" viewBox="0 0 93 16" fill="none" xmlns="http://www.w3.org/2000/svg">
<path d="M10.0377 15.2833L7.14548 10.9273H4.25328V15.2833H0.464844V0.246094H7.12341C10.9131 0.246094 13.446 2.28008 13.446 5.53151C13.446 7.49316 12.4824 9.087 10.8714 10.0212L14.4587 15.2833H10.0377ZM4.25328 7.56549H7.05598C8.51373 7.56549 9.66007 6.7698 9.66007 5.53151C9.66007 4.31529 8.51618 3.54166 7.05843 3.54166H4.25328V7.56549Z" fill="black"/>
<path d="M30.1168 8.27291C30.1168 12.9392 27.3816 15.5715 23.0059 15.5715C18.6571 15.5715 15.9219 12.9392 15.9219 8.27291V0.246094H19.7373V8.33789C19.7373 10.6367 21.0148 12.0748 23.0096 12.0748C25.0043 12.0748 26.3063 10.6391 26.3063 8.33789V0.246094H30.1168V8.27291Z" fill="black"/>
<path d="M46.0228 3.5858H41.1579V15.2833H37.3903V3.5858H32.5254V0.246094H46.0228V3.5858Z" fill="black"/>
<path d="M62.6962 8.27291C62.6962 12.9392 59.9609 15.5715 55.5852 15.5715C51.2353 15.5715 48.5 12.9392 48.5 8.27291V0.246094H52.3117V8.33789C52.3117 10.6367 53.5893 12.0748 55.5852 12.0748C57.5812 12.0748 58.8845 10.6391 58.8845 8.33789V0.246094H62.6962V8.27291Z" fill="black"/>
<path d="M78.1694 11.1038C78.1694 13.6037 76.1293 15.2833 72.6988 15.2833H65.0312V0.246094H72.2501C75.5678 0.246094 77.4963 1.79457 77.4963 4.24908C77.4963 5.64185 76.7116 7.07998 75.3887 7.54342C77.2499 7.94188 78.1694 9.49036 78.1694 11.1038ZM68.8197 3.29768V6.43754H71.6665C73.1022 6.43754 73.8869 5.73012 73.8869 4.75788C73.8869 3.80648 73.1243 3.29768 71.6665 3.29768H68.8197ZM74.4692 10.6183C74.4692 9.68897 73.6846 9.1581 72.2722 9.1581H68.8197V12.1876H72.2048C73.7802 12.1876 74.4692 11.5023 74.4692 10.6183Z" fill="black"/>
<path d="M84.4381 3.52315V6.26578H91.2095V9.45346H84.4381V12.06H92.1731V15.3102H80.6484V0.272949H92.1731V3.52315H84.4381Z" fill="black"/>
</svg>
